StartChar: custom_1_1_0_0_0
Encoding: 23268 23268 3300
Width: 70
Flags: H
LayerCount: 2
Fore
SplineSet
31 43 m 1
 29 43 l 1
 29 41 l 1
 31 41 l 1
 31 43 l 1
31 39 m 1
 29 39 l 1
 29 37 l 1
 31 37 l 1
 31 39 l 1
31 35 m 1
 29 35 l 1
 29 33 l 1
 31 33 l 1
 31 35 l 1
36 37 m 1
 34 37 l 1
 34 35 l 1
 36 35 l 1
 36 37 l 1
31 31 m 1
 29 31 l 1
 29 29 l 1
 31 29 l 1
 31 31 l 1
36 33 m 1
 34 33 l 1
 34 31 l 1
 36 31 l 1
 36 33 l 1
31 27 m 1
 29 27 l 1
 29 25 l 1
 31 25 l 1
 31 27 l 1
49 43 m 1
 47 43 l 1
 47 41 l 1
 49 41 l 1
 49 43 l 1
49 39 m 1
 47 39 l 1
 47 37 l 1
 49 37 l 1
 49 39 l 1
49 35 m 1
 47 35 l 1
 47 33 l 1
 49 33 l 1
 49 35 l 1
49 31 m 1
 47 31 l 1
 47 29 l 1
 49 29 l 1
 49 31 l 1
63 43 m 1
 61 43 l 1
 61 41 l 1
 63 41 l 1
 63 43 l 1
63 39 m 1
 61 39 l 1
 61 37 l 1
 63 37 l 1
 63 39 l 1
63 35 m 1
 61 35 l 1
 61 33 l 1
 63 33 l 1
 63 35 l 1
63 31 m 1
 61 31 l 1
 61 29 l 1
 63 29 l 1
 63 31 l 1
49 27 m 1
 47 27 l 1
 47 25 l 1
 49 25 l 1
 49 27 l 1
63 27 m 1
 61 27 l 1
 61 25 l 1
 63 25 l 1
 63 27 l 1
EndSplineSet
EndChar

StartChar: custom_1_1_0_0_1
Encoding: 23269 23269 3301
Width: 70
Flags: H
LayerCount: 2
Fore
SplineSet
31 43 m 1
 29 43 l 1
 29 41 l 1
 31 41 l 1
 31 43 l 1
31 39 m 1
 29 39 l 1
 29 37 l 1
 31 37 l 1
 31 39 l 1
31 35 m 1
 29 35 l 1
 29 33 l 1
 31 33 l 1
 31 35 l 1
36 37 m 1
 34 37 l 1
 34 35 l 1
 36 35 l 1
 36 37 l 1
31 31 m 1
 29 31 l 1
 29 29 l 1
 31 29 l 1
 31 31 l 1
36 33 m 1
 34 33 l 1
 34 31 l 1
 36 31 l 1
 36 33 l 1
31 27 m 1
 29 27 l 1
 29 25 l 1
 31 25 l 1
 31 27 l 1
49 43 m 1
 47 43 l 1
 47 41 l 1
 49 41 l 1
 49 43 l 1
49 39 m 1
 47 39 l 1
 47 37 l 1
 49 37 l 1
 49 39 l 1
49 35 m 1
 47 35 l 1
 47 33 l 1
 49 33 l 1
 49 35 l 1
49 31 m 1
 47 31 l 1
 47 29 l 1
 49 29 l 1
 49 31 l 1
63 43 m 1
 61 43 l 1
 61 41 l 1
 63 41 l 1
 63 43 l 1
63 39 m 1
 61 39 l 1
 61 37 l 1
 63 37 l 1
 63 39 l 1
63 35 m 1
 61 35 l 1
 61 33 l 1
 63 33 l 1
 63 35 l 1
63 31 m 1
 61 31 l 1
 61 29 l 1
 63 29 l 1
 63 31 l 1
49 27 m 1
 47 27 l 1
 47 25 l 1
 49 25 l 1
 49 27 l 1
63 27 m 1
 61 27 l 1
 61 25 l 1
 63 25 l 1
 63 27 l 1
EndSplineSet
EndChar

StartChar: custom_1_1_0_0_2
Encoding: 23270 23270 3302
Width: 70
Flags: H
LayerCount: 2
Fore
SplineSet
31 43 m 1
 29 43 l 1
 29 41 l 1
 31 41 l 1
 31 43 l 1
31 39 m 1
 29 39 l 1
 29 37 l 1
 31 37 l 1
 31 39 l 1
31 35 m 1
 29 35 l 1
 29 33 l 1
 31 33 l 1
 31 35 l 1
36 37 m 1
 34 37 l 1
 34 35 l 1
 36 35 l 1
 36 37 l 1
31 31 m 1
 29 31 l 1
 29 29 l 1
 31 29 l 1
 31 31 l 1
36 33 m 1
 34 33 l 1
 34 31 l 1
 36 31 l 1
 36 33 l 1
31 27 m 1
 29 27 l 1
 29 25 l 1
 31 25 l 1
 31 27 l 1
49 43 m 1
 47 43 l 1
 47 41 l 1
 49 41 l 1
 49 43 l 1
49 39 m 1
 47 39 l 1
 47 37 l 1
 49 37 l 1
 49 39 l 1
49 35 m 1
 47 35 l 1
 47 33 l 1
 49 33 l 1
 49 35 l 1
49 31 m 1
 47 31 l 1
 47 29 l 1
 49 29 l 1
 49 31 l 1
63 43 m 1
 61 43 l 1
 61 41 l 1
 63 41 l 1
 63 43 l 1
63 39 m 1
 61 39 l 1
 61 37 l 1
 63 37 l 1
 63 39 l 1
63 35 m 1
 61 35 l 1
 61 33 l 1
 63 33 l 1
 63 35 l 1
63 31 m 1
 61 31 l 1
 61 29 l 1
 63 29 l 1
 63 31 l 1
49 27 m 1
 47 27 l 1
 47 25 l 1
 49 25 l 1
 49 27 l 1
63 27 m 1
 61 27 l 1
 61 25 l 1
 63 25 l 1
 63 27 l 1
EndSplineSet
EndChar

StartChar: custom_1_1_0_0_3
Encoding: 23271 23271 3303
Width: 70
Flags: H
LayerCount: 2
Fore
SplineSet
31 43 m 1
 29 43 l 1
 29 41 l 1
 31 41 l 1
 31 43 l 1
31 39 m 1
 29 39 l 1
 29 37 l 1
 31 37 l 1
 31 39 l 1
31 35 m 1
 29 35 l 1
 29 33 l 1
 31 33 l 1
 31 35 l 1
36 37 m 1
 34 37 l 1
 34 35 l 1
 36 35 l 1
 36 37 l 1
31 31 m 1
 29 31 l 1
 29 29 l 1
 31 29 l 1
 31 31 l 1
36 33 m 1
 34 33 l 1
 34 31 l 1
 36 31 l 1
 36 33 l 1
31 27 m 1
 29 27 l 1
 29 25 l 1
 31 25 l 1
 31 27 l 1
49 43 m 1
 47 43 l 1
 47 41 l 1
 49 41 l 1
 49 43 l 1
49 39 m 1
 47 39 l 1
 47 37 l 1
 49 37 l 1
 49 39 l 1
49 35 m 1
 47 35 l 1
 47 33 l 1
 49 33 l 1
 49 35 l 1
49 31 m 1
 47 31 l 1
 47 29 l 1
 49 29 l 1
 49 31 l 1
63 43 m 1
 61 43 l 1
 61 41 l 1
 63 41 l 1
 63 43 l 1
63 39 m 1
 61 39 l 1
 61 37 l 1
 63 37 l 1
 63 39 l 1
63 35 m 1
 61 35 l 1
 61 33 l 1
 63 33 l 1
 63 35 l 1
63 31 m 1
 61 31 l 1
 61 29 l 1
 63 29 l 1
 63 31 l 1
49 27 m 1
 47 27 l 1
 47 25 l 1
 49 25 l 1
 49 27 l 1
63 27 m 1
 61 27 l 1
 61 25 l 1
 63 25 l 1
 63 27 l 1
EndSplineSet
EndChar

StartChar: custom_1_1_0_0_4
Encoding: 23272 23272 3304
Width: 70
Flags: H
LayerCount: 2
Fore
SplineSet
31 43 m 1
 29 43 l 1
 29 41 l 1
 31 41 l 1
 31 43 l 1
31 39 m 1
 29 39 l 1
 29 37 l 1
 31 37 l 1
 31 39 l 1
31 35 m 1
 29 35 l 1
 29 33 l 1
 31 33 l 1
 31 35 l 1
36 37 m 1
 34 37 l 1
 34 35 l 1
 36 35 l 1
 36 37 l 1
31 31 m 1
 29 31 l 1
 29 29 l 1
 31 29 l 1
 31 31 l 1
36 33 m 1
 34 33 l 1
 34 31 l 1
 36 31 l 1
 36 33 l 1
31 27 m 1
 29 27 l 1
 29 25 l 1
 31 25 l 1
 31 27 l 1
49 43 m 1
 47 43 l 1
 47 41 l 1
 49 41 l 1
 49 43 l 1
49 39 m 1
 47 39 l 1
 47 37 l 1
 49 37 l 1
 49 39 l 1
49 35 m 1
 47 35 l 1
 47 33 l 1
 49 33 l 1
 49 35 l 1
49 31 m 1
 47 31 l 1
 47 29 l 1
 49 29 l 1
 49 31 l 1
63 43 m 1
 61 43 l 1
 61 41 l 1
 63 41 l 1
 63 43 l 1
63 39 m 1
 61 39 l 1
 61 37 l 1
 63 37 l 1
 63 39 l 1
63 35 m 1
 61 35 l 1
 61 33 l 1
 63 33 l 1
 63 35 l 1
63 31 m 1
 61 31 l 1
 61 29 l 1
 63 29 l 1
 63 31 l 1
49 27 m 1
 47 27 l 1
 47 25 l 1
 49 25 l 1
 49 27 l 1
63 27 m 1
 61 27 l 1
 61 25 l 1
 63 25 l 1
 63 27 l 1
EndSplineSet
EndChar

StartChar: custom_1_1_0_0_5
Encoding: 23273 23273 3305
Width: 70
Flags: H
LayerCount: 2
Fore
SplineSet
31 43 m 1
 29 43 l 1
 29 41 l 1
 31 41 l 1
 31 43 l 1
31 39 m 1
 29 39 l 1
 29 37 l 1
 31 37 l 1
 31 39 l 1
31 35 m 1
 29 35 l 1
 29 33 l 1
 31 33 l 1
 31 35 l 1
36 37 m 1
 34 37 l 1
 34 35 l 1
 36 35 l 1
 36 37 l 1
31 31 m 1
 29 31 l 1
 29 29 l 1
 31 29 l 1
 31 31 l 1
36 33 m 1
 34 33 l 1
 34 31 l 1
 36 31 l 1
 36 33 l 1
31 27 m 1
 29 27 l 1
 29 25 l 1
 31 25 l 1
 31 27 l 1
49 43 m 1
 47 43 l 1
 47 41 l 1
 49 41 l 1
 49 43 l 1
49 39 m 1
 47 39 l 1
 47 37 l 1
 49 37 l 1
 49 39 l 1
49 35 m 1
 47 35 l 1
 47 33 l 1
 49 33 l 1
 49 35 l 1
49 31 m 1
 47 31 l 1
 47 29 l 1
 49 29 l 1
 49 31 l 1
63 43 m 1
 61 43 l 1
 61 41 l 1
 63 41 l 1
 63 43 l 1
63 39 m 1
 61 39 l 1
 61 37 l 1
 63 37 l 1
 63 39 l 1
63 35 m 1
 61 35 l 1
 61 33 l 1
 63 33 l 1
 63 35 l 1
63 31 m 1
 61 31 l 1
 61 29 l 1
 63 29 l 1
 63 31 l 1
49 27 m 1
 47 27 l 1
 47 25 l 1
 49 25 l 1
 49 27 l 1
63 27 m 1
 61 27 l 1
 61 25 l 1
 63 25 l 1
 63 27 l 1
EndSplineSet
EndChar

StartChar: custom_1_1_0_0_6
Encoding: 23274 23274 3306
Width: 70
Flags: H
LayerCount: 2
Fore
SplineSet
31 43 m 1
 29 43 l 1
 29 41 l 1
 31 41 l 1
 31 43 l 1
31 39 m 1
 29 39 l 1
 29 37 l 1
 31 37 l 1
 31 39 l 1
31 35 m 1
 29 35 l 1
 29 33 l 1
 31 33 l 1
 31 35 l 1
36 37 m 1
 34 37 l 1
 34 35 l 1
 36 35 l 1
 36 37 l 1
31 31 m 1
 29 31 l 1
 29 29 l 1
 31 29 l 1
 31 31 l 1
36 33 m 1
 34 33 l 1
 34 31 l 1
 36 31 l 1
 36 33 l 1
31 27 m 1
 29 27 l 1
 29 25 l 1
 31 25 l 1
 31 27 l 1
49 43 m 1
 47 43 l 1
 47 41 l 1
 49 41 l 1
 49 43 l 1
49 39 m 1
 47 39 l 1
 47 37 l 1
 49 37 l 1
 49 39 l 1
49 35 m 1
 47 35 l 1
 47 33 l 1
 49 33 l 1
 49 35 l 1
49 31 m 1
 47 31 l 1
 47 29 l 1
 49 29 l 1
 49 31 l 1
63 43 m 1
 61 43 l 1
 61 41 l 1
 63 41 l 1
 63 43 l 1
63 39 m 1
 61 39 l 1
 61 37 l 1
 63 37 l 1
 63 39 l 1
63 35 m 1
 61 35 l 1
 61 33 l 1
 63 33 l 1
 63 35 l 1
63 31 m 1
 61 31 l 1
 61 29 l 1
 63 29 l 1
 63 31 l 1
49 27 m 1
 47 27 l 1
 47 25 l 1
 49 25 l 1
 49 27 l 1
63 27 m 1
 61 27 l 1
 61 25 l 1
 63 25 l 1
 63 27 l 1
EndSplineSet
EndChar

StartChar: custom_1_1_0_0_7
Encoding: 23275 23275 3307
Width: 70
Flags: H
LayerCount: 2
Fore
SplineSet
31 43 m 1
 29 43 l 1
 29 41 l 1
 31 41 l 1
 31 43 l 1
31 39 m 1
 29 39 l 1
 29 37 l 1
 31 37 l 1
 31 39 l 1
31 35 m 1
 29 35 l 1
 29 33 l 1
 31 33 l 1
 31 35 l 1
36 37 m 1
 34 37 l 1
 34 35 l 1
 36 35 l 1
 36 37 l 1
31 31 m 1
 29 31 l 1
 29 29 l 1
 31 29 l 1
 31 31 l 1
36 33 m 1
 34 33 l 1
 34 31 l 1
 36 31 l 1
 36 33 l 1
31 27 m 1
 29 27 l 1
 29 25 l 1
 31 25 l 1
 31 27 l 1
49 43 m 1
 47 43 l 1
 47 41 l 1
 49 41 l 1
 49 43 l 1
49 39 m 1
 47 39 l 1
 47 37 l 1
 49 37 l 1
 49 39 l 1
49 35 m 1
 47 35 l 1
 47 33 l 1
 49 33 l 1
 49 35 l 1
49 31 m 1
 47 31 l 1
 47 29 l 1
 49 29 l 1
 49 31 l 1
63 43 m 1
 61 43 l 1
 61 41 l 1
 63 41 l 1
 63 43 l 1
63 39 m 1
 61 39 l 1
 61 37 l 1
 63 37 l 1
 63 39 l 1
63 35 m 1
 61 35 l 1
 61 33 l 1
 63 33 l 1
 63 35 l 1
63 31 m 1
 61 31 l 1
 61 29 l 1
 63 29 l 1
 63 31 l 1
49 27 m 1
 47 27 l 1
 47 25 l 1
 49 25 l 1
 49 27 l 1
63 27 m 1
 61 27 l 1
 61 25 l 1
 63 25 l 1
 63 27 l 1
EndSplineSet
EndChar

StartChar: custom_1_1_0_0_8
Encoding: 23276 23276 3308
Width: 70
Flags: H
LayerCount: 2
Fore
SplineSet
31 43 m 1
 29 43 l 1
 29 41 l 1
 31 41 l 1
 31 43 l 1
31 39 m 1
 29 39 l 1
 29 37 l 1
 31 37 l 1
 31 39 l 1
31 35 m 1
 29 35 l 1
 29 33 l 1
 31 33 l 1
 31 35 l 1
36 37 m 1
 34 37 l 1
 34 35 l 1
 36 35 l 1
 36 37 l 1
31 31 m 1
 29 31 l 1
 29 29 l 1
 31 29 l 1
 31 31 l 1
36 33 m 1
 34 33 l 1
 34 31 l 1
 36 31 l 1
 36 33 l 1
31 27 m 1
 29 27 l 1
 29 25 l 1
 31 25 l 1
 31 27 l 1
49 43 m 1
 47 43 l 1
 47 41 l 1
 49 41 l 1
 49 43 l 1
49 39 m 1
 47 39 l 1
 47 37 l 1
 49 37 l 1
 49 39 l 1
49 35 m 1
 47 35 l 1
 47 33 l 1
 49 33 l 1
 49 35 l 1
49 31 m 1
 47 31 l 1
 47 29 l 1
 49 29 l 1
 49 31 l 1
63 43 m 1
 61 43 l 1
 61 41 l 1
 63 41 l 1
 63 43 l 1
63 39 m 1
 61 39 l 1
 61 37 l 1
 63 37 l 1
 63 39 l 1
63 35 m 1
 61 35 l 1
 61 33 l 1
 63 33 l 1
 63 35 l 1
63 31 m 1
 61 31 l 1
 61 29 l 1
 63 29 l 1
 63 31 l 1
49 27 m 1
 47 27 l 1
 47 25 l 1
 49 25 l 1
 49 27 l 1
63 27 m 1
 61 27 l 1
 61 25 l 1
 63 25 l 1
 63 27 l 1
EndSplineSet
EndChar

StartChar: custom_1_1_0_0_9
Encoding: 23277 23277 3309
Width: 70
Flags: H
LayerCount: 2
Fore
SplineSet
31 43 m 1
 29 43 l 1
 29 41 l 1
 31 41 l 1
 31 43 l 1
31 39 m 1
 29 39 l 1
 29 37 l 1
 31 37 l 1
 31 39 l 1
31 35 m 1
 29 35 l 1
 29 33 l 1
 31 33 l 1
 31 35 l 1
36 37 m 1
 34 37 l 1
 34 35 l 1
 36 35 l 1
 36 37 l 1
31 31 m 1
 29 31 l 1
 29 29 l 1
 31 29 l 1
 31 31 l 1
36 33 m 1
 34 33 l 1
 34 31 l 1
 36 31 l 1
 36 33 l 1
31 27 m 1
 29 27 l 1
 29 25 l 1
 31 25 l 1
 31 27 l 1
49 43 m 1
 47 43 l 1
 47 41 l 1
 49 41 l 1
 49 43 l 1
49 39 m 1
 47 39 l 1
 47 37 l 1
 49 37 l 1
 49 39 l 1
49 35 m 1
 47 35 l 1
 47 33 l 1
 49 33 l 1
 49 35 l 1
49 31 m 1
 47 31 l 1
 47 29 l 1
 49 29 l 1
 49 31 l 1
63 43 m 1
 61 43 l 1
 61 41 l 1
 63 41 l 1
 63 43 l 1
63 39 m 1
 61 39 l 1
 61 37 l 1
 63 37 l 1
 63 39 l 1
63 35 m 1
 61 35 l 1
 61 33 l 1
 63 33 l 1
 63 35 l 1
63 31 m 1
 61 31 l 1
 61 29 l 1
 63 29 l 1
 63 31 l 1
49 27 m 1
 47 27 l 1
 47 25 l 1
 49 25 l 1
 49 27 l 1
63 27 m 1
 61 27 l 1
 61 25 l 1
 63 25 l 1
 63 27 l 1
EndSplineSet
EndChar

StartChar: custom_1_1_0_1_0
Encoding: 23278 23278 3310
Width: 70
Flags: H
LayerCount: 2
Fore
SplineSet
31 43 m 1
 29 43 l 1
 29 41 l 1
 31 41 l 1
 31 43 l 1
31 39 m 1
 29 39 l 1
 29 37 l 1
 31 37 l 1
 31 39 l 1
31 35 m 1
 29 35 l 1
 29 33 l 1
 31 33 l 1
 31 35 l 1
36 37 m 1
 34 37 l 1
 34 35 l 1
 36 35 l 1
 36 37 l 1
31 31 m 1
 29 31 l 1
 29 29 l 1
 31 29 l 1
 31 31 l 1
36 33 m 1
 34 33 l 1
 34 31 l 1
 36 31 l 1
 36 33 l 1
31 27 m 1
 29 27 l 1
 29 25 l 1
 31 25 l 1
 31 27 l 1
49 43 m 1
 47 43 l 1
 47 41 l 1
 49 41 l 1
 49 43 l 1
49 39 m 1
 47 39 l 1
 47 37 l 1
 49 37 l 1
 49 39 l 1
49 35 m 1
 47 35 l 1
 47 33 l 1
 49 33 l 1
 49 35 l 1
49 31 m 1
 47 31 l 1
 47 29 l 1
 49 29 l 1
 49 31 l 1
63 43 m 1
 61 43 l 1
 61 41 l 1
 63 41 l 1
 63 43 l 1
63 39 m 1
 61 39 l 1
 61 37 l 1
 63 37 l 1
 63 39 l 1
63 35 m 1
 61 35 l 1
 61 33 l 1
 63 33 l 1
 63 35 l 1
63 31 m 1
 61 31 l 1
 61 29 l 1
 63 29 l 1
 63 31 l 1
49 27 m 1
 47 27 l 1
 47 25 l 1
 49 25 l 1
 49 27 l 1
63 27 m 1
 61 27 l 1
 61 25 l 1
 63 25 l 1
 63 27 l 1
EndSplineSet
EndChar

StartChar: custom_1_1_0_1_1
Encoding: 23279 23279 3311
Width: 70
Flags: H
LayerCount: 2
Fore
SplineSet
31 43 m 1
 29 43 l 1
 29 41 l 1
 31 41 l 1
 31 43 l 1
31 39 m 1
 29 39 l 1
 29 37 l 1
 31 37 l 1
 31 39 l 1
31 35 m 1
 29 35 l 1
 29 33 l 1
 31 33 l 1
 31 35 l 1
36 37 m 1
 34 37 l 1
 34 35 l 1
 36 35 l 1
 36 37 l 1
31 31 m 1
 29 31 l 1
 29 29 l 1
 31 29 l 1
 31 31 l 1
36 33 m 1
 34 33 l 1
 34 31 l 1
 36 31 l 1
 36 33 l 1
31 27 m 1
 29 27 l 1
 29 25 l 1
 31 25 l 1
 31 27 l 1
49 43 m 1
 47 43 l 1
 47 41 l 1
 49 41 l 1
 49 43 l 1
49 39 m 1
 47 39 l 1
 47 37 l 1
 49 37 l 1
 49 39 l 1
49 35 m 1
 47 35 l 1
 47 33 l 1
 49 33 l 1
 49 35 l 1
49 31 m 1
 47 31 l 1
 47 29 l 1
 49 29 l 1
 49 31 l 1
63 43 m 1
 61 43 l 1
 61 41 l 1
 63 41 l 1
 63 43 l 1
63 39 m 1
 61 39 l 1
 61 37 l 1
 63 37 l 1
 63 39 l 1
63 35 m 1
 61 35 l 1
 61 33 l 1
 63 33 l 1
 63 35 l 1
63 31 m 1
 61 31 l 1
 61 29 l 1
 63 29 l 1
 63 31 l 1
49 27 m 1
 47 27 l 1
 47 25 l 1
 49 25 l 1
 49 27 l 1
63 27 m 1
 61 27 l 1
 61 25 l 1
 63 25 l 1
 63 27 l 1
EndSplineSet
EndChar

StartChar: custom_1_1_0_1_2
Encoding: 23280 23280 3312
Width: 70
Flags: H
LayerCount: 2
Fore
SplineSet
31 43 m 1
 29 43 l 1
 29 41 l 1
 31 41 l 1
 31 43 l 1
31 39 m 1
 29 39 l 1
 29 37 l 1
 31 37 l 1
 31 39 l 1
31 35 m 1
 29 35 l 1
 29 33 l 1
 31 33 l 1
 31 35 l 1
36 37 m 1
 34 37 l 1
 34 35 l 1
 36 35 l 1
 36 37 l 1
31 31 m 1
 29 31 l 1
 29 29 l 1
 31 29 l 1
 31 31 l 1
36 33 m 1
 34 33 l 1
 34 31 l 1
 36 31 l 1
 36 33 l 1
31 27 m 1
 29 27 l 1
 29 25 l 1
 31 25 l 1
 31 27 l 1
49 43 m 1
 47 43 l 1
 47 41 l 1
 49 41 l 1
 49 43 l 1
49 39 m 1
 47 39 l 1
 47 37 l 1
 49 37 l 1
 49 39 l 1
49 35 m 1
 47 35 l 1
 47 33 l 1
 49 33 l 1
 49 35 l 1
49 31 m 1
 47 31 l 1
 47 29 l 1
 49 29 l 1
 49 31 l 1
63 43 m 1
 61 43 l 1
 61 41 l 1
 63 41 l 1
 63 43 l 1
63 39 m 1
 61 39 l 1
 61 37 l 1
 63 37 l 1
 63 39 l 1
63 35 m 1
 61 35 l 1
 61 33 l 1
 63 33 l 1
 63 35 l 1
63 31 m 1
 61 31 l 1
 61 29 l 1
 63 29 l 1
 63 31 l 1
49 27 m 1
 47 27 l 1
 47 25 l 1
 49 25 l 1
 49 27 l 1
63 27 m 1
 61 27 l 1
 61 25 l 1
 63 25 l 1
 63 27 l 1
EndSplineSet
EndChar

StartChar: custom_1_1_0_1_3
Encoding: 23281 23281 3313
Width: 70
Flags: H
LayerCount: 2
Fore
SplineSet
31 43 m 1
 29 43 l 1
 29 41 l 1
 31 41 l 1
 31 43 l 1
31 39 m 1
 29 39 l 1
 29 37 l 1
 31 37 l 1
 31 39 l 1
31 35 m 1
 29 35 l 1
 29 33 l 1
 31 33 l 1
 31 35 l 1
36 37 m 1
 34 37 l 1
 34 35 l 1
 36 35 l 1
 36 37 l 1
31 31 m 1
 29 31 l 1
 29 29 l 1
 31 29 l 1
 31 31 l 1
36 33 m 1
 34 33 l 1
 34 31 l 1
 36 31 l 1
 36 33 l 1
31 27 m 1
 29 27 l 1
 29 25 l 1
 31 25 l 1
 31 27 l 1
49 43 m 1
 47 43 l 1
 47 41 l 1
 49 41 l 1
 49 43 l 1
49 39 m 1
 47 39 l 1
 47 37 l 1
 49 37 l 1
 49 39 l 1
49 35 m 1
 47 35 l 1
 47 33 l 1
 49 33 l 1
 49 35 l 1
49 31 m 1
 47 31 l 1
 47 29 l 1
 49 29 l 1
 49 31 l 1
63 43 m 1
 61 43 l 1
 61 41 l 1
 63 41 l 1
 63 43 l 1
63 39 m 1
 61 39 l 1
 61 37 l 1
 63 37 l 1
 63 39 l 1
63 35 m 1
 61 35 l 1
 61 33 l 1
 63 33 l 1
 63 35 l 1
63 31 m 1
 61 31 l 1
 61 29 l 1
 63 29 l 1
 63 31 l 1
49 27 m 1
 47 27 l 1
 47 25 l 1
 49 25 l 1
 49 27 l 1
63 27 m 1
 61 27 l 1
 61 25 l 1
 63 25 l 1
 63 27 l 1
EndSplineSet
EndChar

StartChar: custom_1_1_0_1_4
Encoding: 23282 23282 3314
Width: 70
Flags: H
LayerCount: 2
Fore
SplineSet
31 43 m 1
 29 43 l 1
 29 41 l 1
 31 41 l 1
 31 43 l 1
31 39 m 1
 29 39 l 1
 29 37 l 1
 31 37 l 1
 31 39 l 1
31 35 m 1
 29 35 l 1
 29 33 l 1
 31 33 l 1
 31 35 l 1
36 37 m 1
 34 37 l 1
 34 35 l 1
 36 35 l 1
 36 37 l 1
31 31 m 1
 29 31 l 1
 29 29 l 1
 31 29 l 1
 31 31 l 1
36 33 m 1
 34 33 l 1
 34 31 l 1
 36 31 l 1
 36 33 l 1
31 27 m 1
 29 27 l 1
 29 25 l 1
 31 25 l 1
 31 27 l 1
49 43 m 1
 47 43 l 1
 47 41 l 1
 49 41 l 1
 49 43 l 1
49 39 m 1
 47 39 l 1
 47 37 l 1
 49 37 l 1
 49 39 l 1
49 35 m 1
 47 35 l 1
 47 33 l 1
 49 33 l 1
 49 35 l 1
49 31 m 1
 47 31 l 1
 47 29 l 1
 49 29 l 1
 49 31 l 1
63 43 m 1
 61 43 l 1
 61 41 l 1
 63 41 l 1
 63 43 l 1
63 39 m 1
 61 39 l 1
 61 37 l 1
 63 37 l 1
 63 39 l 1
63 35 m 1
 61 35 l 1
 61 33 l 1
 63 33 l 1
 63 35 l 1
63 31 m 1
 61 31 l 1
 61 29 l 1
 63 29 l 1
 63 31 l 1
49 27 m 1
 47 27 l 1
 47 25 l 1
 49 25 l 1
 49 27 l 1
63 27 m 1
 61 27 l 1
 61 25 l 1
 63 25 l 1
 63 27 l 1
EndSplineSet
EndChar

StartChar: custom_1_1_0_1_5
Encoding: 23283 23283 3315
Width: 70
Flags: H
LayerCount: 2
Fore
SplineSet
31 43 m 1
 29 43 l 1
 29 41 l 1
 31 41 l 1
 31 43 l 1
31 39 m 1
 29 39 l 1
 29 37 l 1
 31 37 l 1
 31 39 l 1
31 35 m 1
 29 35 l 1
 29 33 l 1
 31 33 l 1
 31 35 l 1
36 37 m 1
 34 37 l 1
 34 35 l 1
 36 35 l 1
 36 37 l 1
31 31 m 1
 29 31 l 1
 29 29 l 1
 31 29 l 1
 31 31 l 1
36 33 m 1
 34 33 l 1
 34 31 l 1
 36 31 l 1
 36 33 l 1
31 27 m 1
 29 27 l 1
 29 25 l 1
 31 25 l 1
 31 27 l 1
49 43 m 1
 47 43 l 1
 47 41 l 1
 49 41 l 1
 49 43 l 1
49 39 m 1
 47 39 l 1
 47 37 l 1
 49 37 l 1
 49 39 l 1
49 35 m 1
 47 35 l 1
 47 33 l 1
 49 33 l 1
 49 35 l 1
49 31 m 1
 47 31 l 1
 47 29 l 1
 49 29 l 1
 49 31 l 1
63 43 m 1
 61 43 l 1
 61 41 l 1
 63 41 l 1
 63 43 l 1
63 39 m 1
 61 39 l 1
 61 37 l 1
 63 37 l 1
 63 39 l 1
63 35 m 1
 61 35 l 1
 61 33 l 1
 63 33 l 1
 63 35 l 1
63 31 m 1
 61 31 l 1
 61 29 l 1
 63 29 l 1
 63 31 l 1
49 27 m 1
 47 27 l 1
 47 25 l 1
 49 25 l 1
 49 27 l 1
63 27 m 1
 61 27 l 1
 61 25 l 1
 63 25 l 1
 63 27 l 1
EndSplineSet
EndChar

StartChar: custom_1_1_0_1_6
Encoding: 23284 23284 3316
Width: 70
Flags: H
LayerCount: 2
Fore
SplineSet
31 43 m 1
 29 43 l 1
 29 41 l 1
 31 41 l 1
 31 43 l 1
31 39 m 1
 29 39 l 1
 29 37 l 1
 31 37 l 1
 31 39 l 1
31 35 m 1
 29 35 l 1
 29 33 l 1
 31 33 l 1
 31 35 l 1
36 37 m 1
 34 37 l 1
 34 35 l 1
 36 35 l 1
 36 37 l 1
31 31 m 1
 29 31 l 1
 29 29 l 1
 31 29 l 1
 31 31 l 1
36 33 m 1
 34 33 l 1
 34 31 l 1
 36 31 l 1
 36 33 l 1
31 27 m 1
 29 27 l 1
 29 25 l 1
 31 25 l 1
 31 27 l 1
49 43 m 1
 47 43 l 1
 47 41 l 1
 49 41 l 1
 49 43 l 1
49 39 m 1
 47 39 l 1
 47 37 l 1
 49 37 l 1
 49 39 l 1
49 35 m 1
 47 35 l 1
 47 33 l 1
 49 33 l 1
 49 35 l 1
49 31 m 1
 47 31 l 1
 47 29 l 1
 49 29 l 1
 49 31 l 1
63 43 m 1
 61 43 l 1
 61 41 l 1
 63 41 l 1
 63 43 l 1
63 39 m 1
 61 39 l 1
 61 37 l 1
 63 37 l 1
 63 39 l 1
63 35 m 1
 61 35 l 1
 61 33 l 1
 63 33 l 1
 63 35 l 1
63 31 m 1
 61 31 l 1
 61 29 l 1
 63 29 l 1
 63 31 l 1
49 27 m 1
 47 27 l 1
 47 25 l 1
 49 25 l 1
 49 27 l 1
63 27 m 1
 61 27 l 1
 61 25 l 1
 63 25 l 1
 63 27 l 1
EndSplineSet
EndChar

StartChar: custom_1_1_0_1_7
Encoding: 23285 23285 3317
Width: 70
Flags: H
LayerCount: 2
Fore
SplineSet
31 43 m 1
 29 43 l 1
 29 41 l 1
 31 41 l 1
 31 43 l 1
31 39 m 1
 29 39 l 1
 29 37 l 1
 31 37 l 1
 31 39 l 1
31 35 m 1
 29 35 l 1
 29 33 l 1
 31 33 l 1
 31 35 l 1
36 37 m 1
 34 37 l 1
 34 35 l 1
 36 35 l 1
 36 37 l 1
31 31 m 1
 29 31 l 1
 29 29 l 1
 31 29 l 1
 31 31 l 1
36 33 m 1
 34 33 l 1
 34 31 l 1
 36 31 l 1
 36 33 l 1
31 27 m 1
 29 27 l 1
 29 25 l 1
 31 25 l 1
 31 27 l 1
49 43 m 1
 47 43 l 1
 47 41 l 1
 49 41 l 1
 49 43 l 1
49 39 m 1
 47 39 l 1
 47 37 l 1
 49 37 l 1
 49 39 l 1
49 35 m 1
 47 35 l 1
 47 33 l 1
 49 33 l 1
 49 35 l 1
49 31 m 1
 47 31 l 1
 47 29 l 1
 49 29 l 1
 49 31 l 1
63 43 m 1
 61 43 l 1
 61 41 l 1
 63 41 l 1
 63 43 l 1
63 39 m 1
 61 39 l 1
 61 37 l 1
 63 37 l 1
 63 39 l 1
63 35 m 1
 61 35 l 1
 61 33 l 1
 63 33 l 1
 63 35 l 1
63 31 m 1
 61 31 l 1
 61 29 l 1
 63 29 l 1
 63 31 l 1
49 27 m 1
 47 27 l 1
 47 25 l 1
 49 25 l 1
 49 27 l 1
63 27 m 1
 61 27 l 1
 61 25 l 1
 63 25 l 1
 63 27 l 1
EndSplineSet
EndChar

StartChar: custom_1_1_0_1_8
Encoding: 23286 23286 3318
Width: 70
Flags: H
LayerCount: 2
Fore
SplineSet
31 43 m 1
 29 43 l 1
 29 41 l 1
 31 41 l 1
 31 43 l 1
31 39 m 1
 29 39 l 1
 29 37 l 1
 31 37 l 1
 31 39 l 1
31 35 m 1
 29 35 l 1
 29 33 l 1
 31 33 l 1
 31 35 l 1
36 37 m 1
 34 37 l 1
 34 35 l 1
 36 35 l 1
 36 37 l 1
31 31 m 1
 29 31 l 1
 29 29 l 1
 31 29 l 1
 31 31 l 1
36 33 m 1
 34 33 l 1
 34 31 l 1
 36 31 l 1
 36 33 l 1
31 27 m 1
 29 27 l 1
 29 25 l 1
 31 25 l 1
 31 27 l 1
49 43 m 1
 47 43 l 1
 47 41 l 1
 49 41 l 1
 49 43 l 1
49 39 m 1
 47 39 l 1
 47 37 l 1
 49 37 l 1
 49 39 l 1
49 35 m 1
 47 35 l 1
 47 33 l 1
 49 33 l 1
 49 35 l 1
49 31 m 1
 47 31 l 1
 47 29 l 1
 49 29 l 1
 49 31 l 1
63 43 m 1
 61 43 l 1
 61 41 l 1
 63 41 l 1
 63 43 l 1
63 39 m 1
 61 39 l 1
 61 37 l 1
 63 37 l 1
 63 39 l 1
63 35 m 1
 61 35 l 1
 61 33 l 1
 63 33 l 1
 63 35 l 1
63 31 m 1
 61 31 l 1
 61 29 l 1
 63 29 l 1
 63 31 l 1
49 27 m 1
 47 27 l 1
 47 25 l 1
 49 25 l 1
 49 27 l 1
63 27 m 1
 61 27 l 1
 61 25 l 1
 63 25 l 1
 63 27 l 1
EndSplineSet
EndChar

StartChar: custom_1_1_0_1_9
Encoding: 23287 23287 3319
Width: 70
Flags: H
LayerCount: 2
Fore
SplineSet
31 43 m 1
 29 43 l 1
 29 41 l 1
 31 41 l 1
 31 43 l 1
31 39 m 1
 29 39 l 1
 29 37 l 1
 31 37 l 1
 31 39 l 1
31 35 m 1
 29 35 l 1
 29 33 l 1
 31 33 l 1
 31 35 l 1
36 37 m 1
 34 37 l 1
 34 35 l 1
 36 35 l 1
 36 37 l 1
31 31 m 1
 29 31 l 1
 29 29 l 1
 31 29 l 1
 31 31 l 1
36 33 m 1
 34 33 l 1
 34 31 l 1
 36 31 l 1
 36 33 l 1
31 27 m 1
 29 27 l 1
 29 25 l 1
 31 25 l 1
 31 27 l 1
49 43 m 1
 47 43 l 1
 47 41 l 1
 49 41 l 1
 49 43 l 1
49 39 m 1
 47 39 l 1
 47 37 l 1
 49 37 l 1
 49 39 l 1
49 35 m 1
 47 35 l 1
 47 33 l 1
 49 33 l 1
 49 35 l 1
49 31 m 1
 47 31 l 1
 47 29 l 1
 49 29 l 1
 49 31 l 1
63 43 m 1
 61 43 l 1
 61 41 l 1
 63 41 l 1
 63 43 l 1
63 39 m 1
 61 39 l 1
 61 37 l 1
 63 37 l 1
 63 39 l 1
63 35 m 1
 61 35 l 1
 61 33 l 1
 63 33 l 1
 63 35 l 1
63 31 m 1
 61 31 l 1
 61 29 l 1
 63 29 l 1
 63 31 l 1
49 27 m 1
 47 27 l 1
 47 25 l 1
 49 25 l 1
 49 27 l 1
63 27 m 1
 61 27 l 1
 61 25 l 1
 63 25 l 1
 63 27 l 1
EndSplineSet
EndChar

StartChar: custom_1_1_0_2_0
Encoding: 23288 23288 3320
Width: 70
Flags: H
LayerCount: 2
Fore
SplineSet
31 43 m 1
 29 43 l 1
 29 41 l 1
 31 41 l 1
 31 43 l 1
31 39 m 1
 29 39 l 1
 29 37 l 1
 31 37 l 1
 31 39 l 1
31 35 m 1
 29 35 l 1
 29 33 l 1
 31 33 l 1
 31 35 l 1
36 37 m 1
 34 37 l 1
 34 35 l 1
 36 35 l 1
 36 37 l 1
31 31 m 1
 29 31 l 1
 29 29 l 1
 31 29 l 1
 31 31 l 1
36 33 m 1
 34 33 l 1
 34 31 l 1
 36 31 l 1
 36 33 l 1
31 27 m 1
 29 27 l 1
 29 25 l 1
 31 25 l 1
 31 27 l 1
49 43 m 1
 47 43 l 1
 47 41 l 1
 49 41 l 1
 49 43 l 1
49 39 m 1
 47 39 l 1
 47 37 l 1
 49 37 l 1
 49 39 l 1
49 35 m 1
 47 35 l 1
 47 33 l 1
 49 33 l 1
 49 35 l 1
49 31 m 1
 47 31 l 1
 47 29 l 1
 49 29 l 1
 49 31 l 1
63 43 m 1
 61 43 l 1
 61 41 l 1
 63 41 l 1
 63 43 l 1
63 39 m 1
 61 39 l 1
 61 37 l 1
 63 37 l 1
 63 39 l 1
63 35 m 1
 61 35 l 1
 61 33 l 1
 63 33 l 1
 63 35 l 1
63 31 m 1
 61 31 l 1
 61 29 l 1
 63 29 l 1
 63 31 l 1
49 27 m 1
 47 27 l 1
 47 25 l 1
 49 25 l 1
 49 27 l 1
63 27 m 1
 61 27 l 1
 61 25 l 1
 63 25 l 1
 63 27 l 1
EndSplineSet
EndChar

StartChar: custom_1_1_0_2_1
Encoding: 23289 23289 3321
Width: 70
Flags: H
LayerCount: 2
Fore
SplineSet
31 43 m 1
 29 43 l 1
 29 41 l 1
 31 41 l 1
 31 43 l 1
31 39 m 1
 29 39 l 1
 29 37 l 1
 31 37 l 1
 31 39 l 1
31 35 m 1
 29 35 l 1
 29 33 l 1
 31 33 l 1
 31 35 l 1
36 37 m 1
 34 37 l 1
 34 35 l 1
 36 35 l 1
 36 37 l 1
31 31 m 1
 29 31 l 1
 29 29 l 1
 31 29 l 1
 31 31 l 1
36 33 m 1
 34 33 l 1
 34 31 l 1
 36 31 l 1
 36 33 l 1
31 27 m 1
 29 27 l 1
 29 25 l 1
 31 25 l 1
 31 27 l 1
49 43 m 1
 47 43 l 1
 47 41 l 1
 49 41 l 1
 49 43 l 1
49 39 m 1
 47 39 l 1
 47 37 l 1
 49 37 l 1
 49 39 l 1
49 35 m 1
 47 35 l 1
 47 33 l 1
 49 33 l 1
 49 35 l 1
49 31 m 1
 47 31 l 1
 47 29 l 1
 49 29 l 1
 49 31 l 1
63 43 m 1
 61 43 l 1
 61 41 l 1
 63 41 l 1
 63 43 l 1
63 39 m 1
 61 39 l 1
 61 37 l 1
 63 37 l 1
 63 39 l 1
63 35 m 1
 61 35 l 1
 61 33 l 1
 63 33 l 1
 63 35 l 1
63 31 m 1
 61 31 l 1
 61 29 l 1
 63 29 l 1
 63 31 l 1
49 27 m 1
 47 27 l 1
 47 25 l 1
 49 25 l 1
 49 27 l 1
63 27 m 1
 61 27 l 1
 61 25 l 1
 63 25 l 1
 63 27 l 1
EndSplineSet
EndChar

StartChar: custom_1_1_0_2_2
Encoding: 23290 23290 3322
Width: 70
Flags: H
LayerCount: 2
Fore
SplineSet
31 43 m 1
 29 43 l 1
 29 41 l 1
 31 41 l 1
 31 43 l 1
31 39 m 1
 29 39 l 1
 29 37 l 1
 31 37 l 1
 31 39 l 1
31 35 m 1
 29 35 l 1
 29 33 l 1
 31 33 l 1
 31 35 l 1
36 37 m 1
 34 37 l 1
 34 35 l 1
 36 35 l 1
 36 37 l 1
31 31 m 1
 29 31 l 1
 29 29 l 1
 31 29 l 1
 31 31 l 1
36 33 m 1
 34 33 l 1
 34 31 l 1
 36 31 l 1
 36 33 l 1
31 27 m 1
 29 27 l 1
 29 25 l 1
 31 25 l 1
 31 27 l 1
49 43 m 1
 47 43 l 1
 47 41 l 1
 49 41 l 1
 49 43 l 1
49 39 m 1
 47 39 l 1
 47 37 l 1
 49 37 l 1
 49 39 l 1
49 35 m 1
 47 35 l 1
 47 33 l 1
 49 33 l 1
 49 35 l 1
49 31 m 1
 47 31 l 1
 47 29 l 1
 49 29 l 1
 49 31 l 1
63 43 m 1
 61 43 l 1
 61 41 l 1
 63 41 l 1
 63 43 l 1
63 39 m 1
 61 39 l 1
 61 37 l 1
 63 37 l 1
 63 39 l 1
63 35 m 1
 61 35 l 1
 61 33 l 1
 63 33 l 1
 63 35 l 1
63 31 m 1
 61 31 l 1
 61 29 l 1
 63 29 l 1
 63 31 l 1
49 27 m 1
 47 27 l 1
 47 25 l 1
 49 25 l 1
 49 27 l 1
63 27 m 1
 61 27 l 1
 61 25 l 1
 63 25 l 1
 63 27 l 1
EndSplineSet
EndChar

StartChar: custom_1_1_0_2_3
Encoding: 23291 23291 3323
Width: 70
Flags: H
LayerCount: 2
Fore
SplineSet
31 43 m 1
 29 43 l 1
 29 41 l 1
 31 41 l 1
 31 43 l 1
31 39 m 1
 29 39 l 1
 29 37 l 1
 31 37 l 1
 31 39 l 1
31 35 m 1
 29 35 l 1
 29 33 l 1
 31 33 l 1
 31 35 l 1
36 37 m 1
 34 37 l 1
 34 35 l 1
 36 35 l 1
 36 37 l 1
31 31 m 1
 29 31 l 1
 29 29 l 1
 31 29 l 1
 31 31 l 1
36 33 m 1
 34 33 l 1
 34 31 l 1
 36 31 l 1
 36 33 l 1
31 27 m 1
 29 27 l 1
 29 25 l 1
 31 25 l 1
 31 27 l 1
49 43 m 1
 47 43 l 1
 47 41 l 1
 49 41 l 1
 49 43 l 1
49 39 m 1
 47 39 l 1
 47 37 l 1
 49 37 l 1
 49 39 l 1
49 35 m 1
 47 35 l 1
 47 33 l 1
 49 33 l 1
 49 35 l 1
49 31 m 1
 47 31 l 1
 47 29 l 1
 49 29 l 1
 49 31 l 1
63 43 m 1
 61 43 l 1
 61 41 l 1
 63 41 l 1
 63 43 l 1
63 39 m 1
 61 39 l 1
 61 37 l 1
 63 37 l 1
 63 39 l 1
63 35 m 1
 61 35 l 1
 61 33 l 1
 63 33 l 1
 63 35 l 1
63 31 m 1
 61 31 l 1
 61 29 l 1
 63 29 l 1
 63 31 l 1
49 27 m 1
 47 27 l 1
 47 25 l 1
 49 25 l 1
 49 27 l 1
63 27 m 1
 61 27 l 1
 61 25 l 1
 63 25 l 1
 63 27 l 1
EndSplineSet
EndChar

StartChar: custom_1_1_0_2_4
Encoding: 23292 23292 3324
Width: 70
Flags: H
LayerCount: 2
Fore
SplineSet
31 43 m 1
 29 43 l 1
 29 41 l 1
 31 41 l 1
 31 43 l 1
31 39 m 1
 29 39 l 1
 29 37 l 1
 31 37 l 1
 31 39 l 1
31 35 m 1
 29 35 l 1
 29 33 l 1
 31 33 l 1
 31 35 l 1
36 37 m 1
 34 37 l 1
 34 35 l 1
 36 35 l 1
 36 37 l 1
31 31 m 1
 29 31 l 1
 29 29 l 1
 31 29 l 1
 31 31 l 1
36 33 m 1
 34 33 l 1
 34 31 l 1
 36 31 l 1
 36 33 l 1
31 27 m 1
 29 27 l 1
 29 25 l 1
 31 25 l 1
 31 27 l 1
49 43 m 1
 47 43 l 1
 47 41 l 1
 49 41 l 1
 49 43 l 1
49 39 m 1
 47 39 l 1
 47 37 l 1
 49 37 l 1
 49 39 l 1
49 35 m 1
 47 35 l 1
 47 33 l 1
 49 33 l 1
 49 35 l 1
49 31 m 1
 47 31 l 1
 47 29 l 1
 49 29 l 1
 49 31 l 1
63 43 m 1
 61 43 l 1
 61 41 l 1
 63 41 l 1
 63 43 l 1
63 39 m 1
 61 39 l 1
 61 37 l 1
 63 37 l 1
 63 39 l 1
63 35 m 1
 61 35 l 1
 61 33 l 1
 63 33 l 1
 63 35 l 1
63 31 m 1
 61 31 l 1
 61 29 l 1
 63 29 l 1
 63 31 l 1
49 27 m 1
 47 27 l 1
 47 25 l 1
 49 25 l 1
 49 27 l 1
63 27 m 1
 61 27 l 1
 61 25 l 1
 63 25 l 1
 63 27 l 1
EndSplineSet
EndChar

StartChar: custom_1_1_0_2_5
Encoding: 23293 23293 3325
Width: 70
Flags: H
LayerCount: 2
Fore
SplineSet
31 43 m 1
 29 43 l 1
 29 41 l 1
 31 41 l 1
 31 43 l 1
31 39 m 1
 29 39 l 1
 29 37 l 1
 31 37 l 1
 31 39 l 1
31 35 m 1
 29 35 l 1
 29 33 l 1
 31 33 l 1
 31 35 l 1
36 37 m 1
 34 37 l 1
 34 35 l 1
 36 35 l 1
 36 37 l 1
31 31 m 1
 29 31 l 1
 29 29 l 1
 31 29 l 1
 31 31 l 1
36 33 m 1
 34 33 l 1
 34 31 l 1
 36 31 l 1
 36 33 l 1
31 27 m 1
 29 27 l 1
 29 25 l 1
 31 25 l 1
 31 27 l 1
49 43 m 1
 47 43 l 1
 47 41 l 1
 49 41 l 1
 49 43 l 1
49 39 m 1
 47 39 l 1
 47 37 l 1
 49 37 l 1
 49 39 l 1
49 35 m 1
 47 35 l 1
 47 33 l 1
 49 33 l 1
 49 35 l 1
49 31 m 1
 47 31 l 1
 47 29 l 1
 49 29 l 1
 49 31 l 1
63 43 m 1
 61 43 l 1
 61 41 l 1
 63 41 l 1
 63 43 l 1
63 39 m 1
 61 39 l 1
 61 37 l 1
 63 37 l 1
 63 39 l 1
63 35 m 1
 61 35 l 1
 61 33 l 1
 63 33 l 1
 63 35 l 1
63 31 m 1
 61 31 l 1
 61 29 l 1
 63 29 l 1
 63 31 l 1
49 27 m 1
 47 27 l 1
 47 25 l 1
 49 25 l 1
 49 27 l 1
63 27 m 1
 61 27 l 1
 61 25 l 1
 63 25 l 1
 63 27 l 1
EndSplineSet
EndChar

StartChar: custom_1_1_0_2_6
Encoding: 23294 23294 3326
Width: 70
Flags: H
LayerCount: 2
Fore
SplineSet
31 43 m 1
 29 43 l 1
 29 41 l 1
 31 41 l 1
 31 43 l 1
31 39 m 1
 29 39 l 1
 29 37 l 1
 31 37 l 1
 31 39 l 1
31 35 m 1
 29 35 l 1
 29 33 l 1
 31 33 l 1
 31 35 l 1
36 37 m 1
 34 37 l 1
 34 35 l 1
 36 35 l 1
 36 37 l 1
31 31 m 1
 29 31 l 1
 29 29 l 1
 31 29 l 1
 31 31 l 1
36 33 m 1
 34 33 l 1
 34 31 l 1
 36 31 l 1
 36 33 l 1
31 27 m 1
 29 27 l 1
 29 25 l 1
 31 25 l 1
 31 27 l 1
49 43 m 1
 47 43 l 1
 47 41 l 1
 49 41 l 1
 49 43 l 1
49 39 m 1
 47 39 l 1
 47 37 l 1
 49 37 l 1
 49 39 l 1
49 35 m 1
 47 35 l 1
 47 33 l 1
 49 33 l 1
 49 35 l 1
49 31 m 1
 47 31 l 1
 47 29 l 1
 49 29 l 1
 49 31 l 1
63 43 m 1
 61 43 l 1
 61 41 l 1
 63 41 l 1
 63 43 l 1
63 39 m 1
 61 39 l 1
 61 37 l 1
 63 37 l 1
 63 39 l 1
63 35 m 1
 61 35 l 1
 61 33 l 1
 63 33 l 1
 63 35 l 1
63 31 m 1
 61 31 l 1
 61 29 l 1
 63 29 l 1
 63 31 l 1
49 27 m 1
 47 27 l 1
 47 25 l 1
 49 25 l 1
 49 27 l 1
63 27 m 1
 61 27 l 1
 61 25 l 1
 63 25 l 1
 63 27 l 1
EndSplineSet
EndChar

StartChar: custom_1_1_0_2_7
Encoding: 23295 23295 3327
Width: 70
Flags: H
LayerCount: 2
Fore
SplineSet
31 43 m 1
 29 43 l 1
 29 41 l 1
 31 41 l 1
 31 43 l 1
31 39 m 1
 29 39 l 1
 29 37 l 1
 31 37 l 1
 31 39 l 1
31 35 m 1
 29 35 l 1
 29 33 l 1
 31 33 l 1
 31 35 l 1
36 37 m 1
 34 37 l 1
 34 35 l 1
 36 35 l 1
 36 37 l 1
31 31 m 1
 29 31 l 1
 29 29 l 1
 31 29 l 1
 31 31 l 1
36 33 m 1
 34 33 l 1
 34 31 l 1
 36 31 l 1
 36 33 l 1
31 27 m 1
 29 27 l 1
 29 25 l 1
 31 25 l 1
 31 27 l 1
49 43 m 1
 47 43 l 1
 47 41 l 1
 49 41 l 1
 49 43 l 1
49 39 m 1
 47 39 l 1
 47 37 l 1
 49 37 l 1
 49 39 l 1
49 35 m 1
 47 35 l 1
 47 33 l 1
 49 33 l 1
 49 35 l 1
49 31 m 1
 47 31 l 1
 47 29 l 1
 49 29 l 1
 49 31 l 1
63 43 m 1
 61 43 l 1
 61 41 l 1
 63 41 l 1
 63 43 l 1
63 39 m 1
 61 39 l 1
 61 37 l 1
 63 37 l 1
 63 39 l 1
63 35 m 1
 61 35 l 1
 61 33 l 1
 63 33 l 1
 63 35 l 1
63 31 m 1
 61 31 l 1
 61 29 l 1
 63 29 l 1
 63 31 l 1
49 27 m 1
 47 27 l 1
 47 25 l 1
 49 25 l 1
 49 27 l 1
63 27 m 1
 61 27 l 1
 61 25 l 1
 63 25 l 1
 63 27 l 1
EndSplineSet
EndChar

StartChar: custom_1_1_0_2_8
Encoding: 23296 23296 3328
Width: 70
Flags: H
LayerCount: 2
Fore
SplineSet
31 43 m 1
 29 43 l 1
 29 41 l 1
 31 41 l 1
 31 43 l 1
31 39 m 1
 29 39 l 1
 29 37 l 1
 31 37 l 1
 31 39 l 1
31 35 m 1
 29 35 l 1
 29 33 l 1
 31 33 l 1
 31 35 l 1
36 37 m 1
 34 37 l 1
 34 35 l 1
 36 35 l 1
 36 37 l 1
31 31 m 1
 29 31 l 1
 29 29 l 1
 31 29 l 1
 31 31 l 1
36 33 m 1
 34 33 l 1
 34 31 l 1
 36 31 l 1
 36 33 l 1
31 27 m 1
 29 27 l 1
 29 25 l 1
 31 25 l 1
 31 27 l 1
49 43 m 1
 47 43 l 1
 47 41 l 1
 49 41 l 1
 49 43 l 1
49 39 m 1
 47 39 l 1
 47 37 l 1
 49 37 l 1
 49 39 l 1
49 35 m 1
 47 35 l 1
 47 33 l 1
 49 33 l 1
 49 35 l 1
49 31 m 1
 47 31 l 1
 47 29 l 1
 49 29 l 1
 49 31 l 1
63 43 m 1
 61 43 l 1
 61 41 l 1
 63 41 l 1
 63 43 l 1
63 39 m 1
 61 39 l 1
 61 37 l 1
 63 37 l 1
 63 39 l 1
63 35 m 1
 61 35 l 1
 61 33 l 1
 63 33 l 1
 63 35 l 1
63 31 m 1
 61 31 l 1
 61 29 l 1
 63 29 l 1
 63 31 l 1
49 27 m 1
 47 27 l 1
 47 25 l 1
 49 25 l 1
 49 27 l 1
63 27 m 1
 61 27 l 1
 61 25 l 1
 63 25 l 1
 63 27 l 1
EndSplineSet
EndChar

StartChar: custom_1_1_0_2_9
Encoding: 23297 23297 3329
Width: 70
Flags: H
LayerCount: 2
Fore
SplineSet
31 43 m 1
 29 43 l 1
 29 41 l 1
 31 41 l 1
 31 43 l 1
31 39 m 1
 29 39 l 1
 29 37 l 1
 31 37 l 1
 31 39 l 1
31 35 m 1
 29 35 l 1
 29 33 l 1
 31 33 l 1
 31 35 l 1
36 37 m 1
 34 37 l 1
 34 35 l 1
 36 35 l 1
 36 37 l 1
31 31 m 1
 29 31 l 1
 29 29 l 1
 31 29 l 1
 31 31 l 1
36 33 m 1
 34 33 l 1
 34 31 l 1
 36 31 l 1
 36 33 l 1
31 27 m 1
 29 27 l 1
 29 25 l 1
 31 25 l 1
 31 27 l 1
49 43 m 1
 47 43 l 1
 47 41 l 1
 49 41 l 1
 49 43 l 1
49 39 m 1
 47 39 l 1
 47 37 l 1
 49 37 l 1
 49 39 l 1
49 35 m 1
 47 35 l 1
 47 33 l 1
 49 33 l 1
 49 35 l 1
49 31 m 1
 47 31 l 1
 47 29 l 1
 49 29 l 1
 49 31 l 1
63 43 m 1
 61 43 l 1
 61 41 l 1
 63 41 l 1
 63 43 l 1
63 39 m 1
 61 39 l 1
 61 37 l 1
 63 37 l 1
 63 39 l 1
63 35 m 1
 61 35 l 1
 61 33 l 1
 63 33 l 1
 63 35 l 1
63 31 m 1
 61 31 l 1
 61 29 l 1
 63 29 l 1
 63 31 l 1
49 27 m 1
 47 27 l 1
 47 25 l 1
 49 25 l 1
 49 27 l 1
63 27 m 1
 61 27 l 1
 61 25 l 1
 63 25 l 1
 63 27 l 1
EndSplineSet
EndChar

StartChar: custom_1_1_0_3_0
Encoding: 23298 23298 3330
Width: 70
Flags: H
LayerCount: 2
Fore
SplineSet
31 43 m 1
 29 43 l 1
 29 41 l 1
 31 41 l 1
 31 43 l 1
31 39 m 1
 29 39 l 1
 29 37 l 1
 31 37 l 1
 31 39 l 1
31 35 m 1
 29 35 l 1
 29 33 l 1
 31 33 l 1
 31 35 l 1
36 37 m 1
 34 37 l 1
 34 35 l 1
 36 35 l 1
 36 37 l 1
31 31 m 1
 29 31 l 1
 29 29 l 1
 31 29 l 1
 31 31 l 1
36 33 m 1
 34 33 l 1
 34 31 l 1
 36 31 l 1
 36 33 l 1
31 27 m 1
 29 27 l 1
 29 25 l 1
 31 25 l 1
 31 27 l 1
49 43 m 1
 47 43 l 1
 47 41 l 1
 49 41 l 1
 49 43 l 1
49 39 m 1
 47 39 l 1
 47 37 l 1
 49 37 l 1
 49 39 l 1
49 35 m 1
 47 35 l 1
 47 33 l 1
 49 33 l 1
 49 35 l 1
49 31 m 1
 47 31 l 1
 47 29 l 1
 49 29 l 1
 49 31 l 1
63 43 m 1
 61 43 l 1
 61 41 l 1
 63 41 l 1
 63 43 l 1
63 39 m 1
 61 39 l 1
 61 37 l 1
 63 37 l 1
 63 39 l 1
63 35 m 1
 61 35 l 1
 61 33 l 1
 63 33 l 1
 63 35 l 1
63 31 m 1
 61 31 l 1
 61 29 l 1
 63 29 l 1
 63 31 l 1
49 27 m 1
 47 27 l 1
 47 25 l 1
 49 25 l 1
 49 27 l 1
63 27 m 1
 61 27 l 1
 61 25 l 1
 63 25 l 1
 63 27 l 1
EndSplineSet
EndChar

StartChar: custom_1_1_0_3_1
Encoding: 23299 23299 3331
Width: 70
Flags: H
LayerCount: 2
Fore
SplineSet
31 43 m 1
 29 43 l 1
 29 41 l 1
 31 41 l 1
 31 43 l 1
31 39 m 1
 29 39 l 1
 29 37 l 1
 31 37 l 1
 31 39 l 1
31 35 m 1
 29 35 l 1
 29 33 l 1
 31 33 l 1
 31 35 l 1
36 37 m 1
 34 37 l 1
 34 35 l 1
 36 35 l 1
 36 37 l 1
31 31 m 1
 29 31 l 1
 29 29 l 1
 31 29 l 1
 31 31 l 1
36 33 m 1
 34 33 l 1
 34 31 l 1
 36 31 l 1
 36 33 l 1
31 27 m 1
 29 27 l 1
 29 25 l 1
 31 25 l 1
 31 27 l 1
49 43 m 1
 47 43 l 1
 47 41 l 1
 49 41 l 1
 49 43 l 1
49 39 m 1
 47 39 l 1
 47 37 l 1
 49 37 l 1
 49 39 l 1
49 35 m 1
 47 35 l 1
 47 33 l 1
 49 33 l 1
 49 35 l 1
49 31 m 1
 47 31 l 1
 47 29 l 1
 49 29 l 1
 49 31 l 1
63 43 m 1
 61 43 l 1
 61 41 l 1
 63 41 l 1
 63 43 l 1
63 39 m 1
 61 39 l 1
 61 37 l 1
 63 37 l 1
 63 39 l 1
63 35 m 1
 61 35 l 1
 61 33 l 1
 63 33 l 1
 63 35 l 1
63 31 m 1
 61 31 l 1
 61 29 l 1
 63 29 l 1
 63 31 l 1
49 27 m 1
 47 27 l 1
 47 25 l 1
 49 25 l 1
 49 27 l 1
63 27 m 1
 61 27 l 1
 61 25 l 1
 63 25 l 1
 63 27 l 1
EndSplineSet
EndChar

StartChar: custom_1_1_0_3_2
Encoding: 23300 23300 3332
Width: 70
Flags: H
LayerCount: 2
Fore
SplineSet
31 43 m 1
 29 43 l 1
 29 41 l 1
 31 41 l 1
 31 43 l 1
31 39 m 1
 29 39 l 1
 29 37 l 1
 31 37 l 1
 31 39 l 1
31 35 m 1
 29 35 l 1
 29 33 l 1
 31 33 l 1
 31 35 l 1
36 37 m 1
 34 37 l 1
 34 35 l 1
 36 35 l 1
 36 37 l 1
31 31 m 1
 29 31 l 1
 29 29 l 1
 31 29 l 1
 31 31 l 1
36 33 m 1
 34 33 l 1
 34 31 l 1
 36 31 l 1
 36 33 l 1
31 27 m 1
 29 27 l 1
 29 25 l 1
 31 25 l 1
 31 27 l 1
49 43 m 1
 47 43 l 1
 47 41 l 1
 49 41 l 1
 49 43 l 1
49 39 m 1
 47 39 l 1
 47 37 l 1
 49 37 l 1
 49 39 l 1
49 35 m 1
 47 35 l 1
 47 33 l 1
 49 33 l 1
 49 35 l 1
49 31 m 1
 47 31 l 1
 47 29 l 1
 49 29 l 1
 49 31 l 1
63 43 m 1
 61 43 l 1
 61 41 l 1
 63 41 l 1
 63 43 l 1
63 39 m 1
 61 39 l 1
 61 37 l 1
 63 37 l 1
 63 39 l 1
63 35 m 1
 61 35 l 1
 61 33 l 1
 63 33 l 1
 63 35 l 1
63 31 m 1
 61 31 l 1
 61 29 l 1
 63 29 l 1
 63 31 l 1
49 27 m 1
 47 27 l 1
 47 25 l 1
 49 25 l 1
 49 27 l 1
63 27 m 1
 61 27 l 1
 61 25 l 1
 63 25 l 1
 63 27 l 1
EndSplineSet
EndChar

StartChar: custom_1_1_0_3_3
Encoding: 23301 23301 3333
Width: 70
Flags: H
LayerCount: 2
Fore
SplineSet
31 43 m 1
 29 43 l 1
 29 41 l 1
 31 41 l 1
 31 43 l 1
31 39 m 1
 29 39 l 1
 29 37 l 1
 31 37 l 1
 31 39 l 1
31 35 m 1
 29 35 l 1
 29 33 l 1
 31 33 l 1
 31 35 l 1
36 37 m 1
 34 37 l 1
 34 35 l 1
 36 35 l 1
 36 37 l 1
31 31 m 1
 29 31 l 1
 29 29 l 1
 31 29 l 1
 31 31 l 1
36 33 m 1
 34 33 l 1
 34 31 l 1
 36 31 l 1
 36 33 l 1
31 27 m 1
 29 27 l 1
 29 25 l 1
 31 25 l 1
 31 27 l 1
49 43 m 1
 47 43 l 1
 47 41 l 1
 49 41 l 1
 49 43 l 1
49 39 m 1
 47 39 l 1
 47 37 l 1
 49 37 l 1
 49 39 l 1
49 35 m 1
 47 35 l 1
 47 33 l 1
 49 33 l 1
 49 35 l 1
49 31 m 1
 47 31 l 1
 47 29 l 1
 49 29 l 1
 49 31 l 1
63 43 m 1
 61 43 l 1
 61 41 l 1
 63 41 l 1
 63 43 l 1
63 39 m 1
 61 39 l 1
 61 37 l 1
 63 37 l 1
 63 39 l 1
63 35 m 1
 61 35 l 1
 61 33 l 1
 63 33 l 1
 63 35 l 1
63 31 m 1
 61 31 l 1
 61 29 l 1
 63 29 l 1
 63 31 l 1
49 27 m 1
 47 27 l 1
 47 25 l 1
 49 25 l 1
 49 27 l 1
63 27 m 1
 61 27 l 1
 61 25 l 1
 63 25 l 1
 63 27 l 1
EndSplineSet
EndChar

StartChar: custom_1_1_0_3_4
Encoding: 23302 23302 3334
Width: 70
Flags: H
LayerCount: 2
Fore
SplineSet
31 43 m 1
 29 43 l 1
 29 41 l 1
 31 41 l 1
 31 43 l 1
31 39 m 1
 29 39 l 1
 29 37 l 1
 31 37 l 1
 31 39 l 1
31 35 m 1
 29 35 l 1
 29 33 l 1
 31 33 l 1
 31 35 l 1
36 37 m 1
 34 37 l 1
 34 35 l 1
 36 35 l 1
 36 37 l 1
31 31 m 1
 29 31 l 1
 29 29 l 1
 31 29 l 1
 31 31 l 1
36 33 m 1
 34 33 l 1
 34 31 l 1
 36 31 l 1
 36 33 l 1
31 27 m 1
 29 27 l 1
 29 25 l 1
 31 25 l 1
 31 27 l 1
49 43 m 1
 47 43 l 1
 47 41 l 1
 49 41 l 1
 49 43 l 1
49 39 m 1
 47 39 l 1
 47 37 l 1
 49 37 l 1
 49 39 l 1
49 35 m 1
 47 35 l 1
 47 33 l 1
 49 33 l 1
 49 35 l 1
49 31 m 1
 47 31 l 1
 47 29 l 1
 49 29 l 1
 49 31 l 1
63 43 m 1
 61 43 l 1
 61 41 l 1
 63 41 l 1
 63 43 l 1
63 39 m 1
 61 39 l 1
 61 37 l 1
 63 37 l 1
 63 39 l 1
63 35 m 1
 61 35 l 1
 61 33 l 1
 63 33 l 1
 63 35 l 1
63 31 m 1
 61 31 l 1
 61 29 l 1
 63 29 l 1
 63 31 l 1
49 27 m 1
 47 27 l 1
 47 25 l 1
 49 25 l 1
 49 27 l 1
63 27 m 1
 61 27 l 1
 61 25 l 1
 63 25 l 1
 63 27 l 1
EndSplineSet
EndChar

StartChar: custom_1_1_0_3_5
Encoding: 23303 23303 3335
Width: 70
Flags: H
LayerCount: 2
Fore
SplineSet
31 43 m 1
 29 43 l 1
 29 41 l 1
 31 41 l 1
 31 43 l 1
31 39 m 1
 29 39 l 1
 29 37 l 1
 31 37 l 1
 31 39 l 1
31 35 m 1
 29 35 l 1
 29 33 l 1
 31 33 l 1
 31 35 l 1
36 37 m 1
 34 37 l 1
 34 35 l 1
 36 35 l 1
 36 37 l 1
31 31 m 1
 29 31 l 1
 29 29 l 1
 31 29 l 1
 31 31 l 1
36 33 m 1
 34 33 l 1
 34 31 l 1
 36 31 l 1
 36 33 l 1
31 27 m 1
 29 27 l 1
 29 25 l 1
 31 25 l 1
 31 27 l 1
49 43 m 1
 47 43 l 1
 47 41 l 1
 49 41 l 1
 49 43 l 1
49 39 m 1
 47 39 l 1
 47 37 l 1
 49 37 l 1
 49 39 l 1
49 35 m 1
 47 35 l 1
 47 33 l 1
 49 33 l 1
 49 35 l 1
49 31 m 1
 47 31 l 1
 47 29 l 1
 49 29 l 1
 49 31 l 1
63 43 m 1
 61 43 l 1
 61 41 l 1
 63 41 l 1
 63 43 l 1
63 39 m 1
 61 39 l 1
 61 37 l 1
 63 37 l 1
 63 39 l 1
63 35 m 1
 61 35 l 1
 61 33 l 1
 63 33 l 1
 63 35 l 1
63 31 m 1
 61 31 l 1
 61 29 l 1
 63 29 l 1
 63 31 l 1
49 27 m 1
 47 27 l 1
 47 25 l 1
 49 25 l 1
 49 27 l 1
63 27 m 1
 61 27 l 1
 61 25 l 1
 63 25 l 1
 63 27 l 1
EndSplineSet
EndChar

StartChar: custom_1_1_0_3_6
Encoding: 23304 23304 3336
Width: 70
Flags: H
LayerCount: 2
Fore
SplineSet
31 43 m 1
 29 43 l 1
 29 41 l 1
 31 41 l 1
 31 43 l 1
31 39 m 1
 29 39 l 1
 29 37 l 1
 31 37 l 1
 31 39 l 1
31 35 m 1
 29 35 l 1
 29 33 l 1
 31 33 l 1
 31 35 l 1
36 37 m 1
 34 37 l 1
 34 35 l 1
 36 35 l 1
 36 37 l 1
31 31 m 1
 29 31 l 1
 29 29 l 1
 31 29 l 1
 31 31 l 1
36 33 m 1
 34 33 l 1
 34 31 l 1
 36 31 l 1
 36 33 l 1
31 27 m 1
 29 27 l 1
 29 25 l 1
 31 25 l 1
 31 27 l 1
49 43 m 1
 47 43 l 1
 47 41 l 1
 49 41 l 1
 49 43 l 1
49 39 m 1
 47 39 l 1
 47 37 l 1
 49 37 l 1
 49 39 l 1
49 35 m 1
 47 35 l 1
 47 33 l 1
 49 33 l 1
 49 35 l 1
49 31 m 1
 47 31 l 1
 47 29 l 1
 49 29 l 1
 49 31 l 1
63 43 m 1
 61 43 l 1
 61 41 l 1
 63 41 l 1
 63 43 l 1
63 39 m 1
 61 39 l 1
 61 37 l 1
 63 37 l 1
 63 39 l 1
63 35 m 1
 61 35 l 1
 61 33 l 1
 63 33 l 1
 63 35 l 1
63 31 m 1
 61 31 l 1
 61 29 l 1
 63 29 l 1
 63 31 l 1
49 27 m 1
 47 27 l 1
 47 25 l 1
 49 25 l 1
 49 27 l 1
63 27 m 1
 61 27 l 1
 61 25 l 1
 63 25 l 1
 63 27 l 1
EndSplineSet
EndChar

StartChar: custom_1_1_0_3_7
Encoding: 23305 23305 3337
Width: 70
Flags: H
LayerCount: 2
Fore
SplineSet
31 43 m 1
 29 43 l 1
 29 41 l 1
 31 41 l 1
 31 43 l 1
31 39 m 1
 29 39 l 1
 29 37 l 1
 31 37 l 1
 31 39 l 1
31 35 m 1
 29 35 l 1
 29 33 l 1
 31 33 l 1
 31 35 l 1
36 37 m 1
 34 37 l 1
 34 35 l 1
 36 35 l 1
 36 37 l 1
31 31 m 1
 29 31 l 1
 29 29 l 1
 31 29 l 1
 31 31 l 1
36 33 m 1
 34 33 l 1
 34 31 l 1
 36 31 l 1
 36 33 l 1
31 27 m 1
 29 27 l 1
 29 25 l 1
 31 25 l 1
 31 27 l 1
49 43 m 1
 47 43 l 1
 47 41 l 1
 49 41 l 1
 49 43 l 1
49 39 m 1
 47 39 l 1
 47 37 l 1
 49 37 l 1
 49 39 l 1
49 35 m 1
 47 35 l 1
 47 33 l 1
 49 33 l 1
 49 35 l 1
49 31 m 1
 47 31 l 1
 47 29 l 1
 49 29 l 1
 49 31 l 1
63 43 m 1
 61 43 l 1
 61 41 l 1
 63 41 l 1
 63 43 l 1
63 39 m 1
 61 39 l 1
 61 37 l 1
 63 37 l 1
 63 39 l 1
63 35 m 1
 61 35 l 1
 61 33 l 1
 63 33 l 1
 63 35 l 1
63 31 m 1
 61 31 l 1
 61 29 l 1
 63 29 l 1
 63 31 l 1
49 27 m 1
 47 27 l 1
 47 25 l 1
 49 25 l 1
 49 27 l 1
63 27 m 1
 61 27 l 1
 61 25 l 1
 63 25 l 1
 63 27 l 1
EndSplineSet
EndChar

StartChar: custom_1_1_0_3_8
Encoding: 23306 23306 3338
Width: 70
Flags: H
LayerCount: 2
Fore
SplineSet
31 43 m 1
 29 43 l 1
 29 41 l 1
 31 41 l 1
 31 43 l 1
31 39 m 1
 29 39 l 1
 29 37 l 1
 31 37 l 1
 31 39 l 1
31 35 m 1
 29 35 l 1
 29 33 l 1
 31 33 l 1
 31 35 l 1
36 37 m 1
 34 37 l 1
 34 35 l 1
 36 35 l 1
 36 37 l 1
31 31 m 1
 29 31 l 1
 29 29 l 1
 31 29 l 1
 31 31 l 1
36 33 m 1
 34 33 l 1
 34 31 l 1
 36 31 l 1
 36 33 l 1
31 27 m 1
 29 27 l 1
 29 25 l 1
 31 25 l 1
 31 27 l 1
49 43 m 1
 47 43 l 1
 47 41 l 1
 49 41 l 1
 49 43 l 1
49 39 m 1
 47 39 l 1
 47 37 l 1
 49 37 l 1
 49 39 l 1
49 35 m 1
 47 35 l 1
 47 33 l 1
 49 33 l 1
 49 35 l 1
49 31 m 1
 47 31 l 1
 47 29 l 1
 49 29 l 1
 49 31 l 1
63 43 m 1
 61 43 l 1
 61 41 l 1
 63 41 l 1
 63 43 l 1
63 39 m 1
 61 39 l 1
 61 37 l 1
 63 37 l 1
 63 39 l 1
63 35 m 1
 61 35 l 1
 61 33 l 1
 63 33 l 1
 63 35 l 1
63 31 m 1
 61 31 l 1
 61 29 l 1
 63 29 l 1
 63 31 l 1
49 27 m 1
 47 27 l 1
 47 25 l 1
 49 25 l 1
 49 27 l 1
63 27 m 1
 61 27 l 1
 61 25 l 1
 63 25 l 1
 63 27 l 1
EndSplineSet
EndChar

StartChar: custom_1_1_0_3_9
Encoding: 23307 23307 3339
Width: 70
Flags: H
LayerCount: 2
Fore
SplineSet
31 43 m 1
 29 43 l 1
 29 41 l 1
 31 41 l 1
 31 43 l 1
31 39 m 1
 29 39 l 1
 29 37 l 1
 31 37 l 1
 31 39 l 1
31 35 m 1
 29 35 l 1
 29 33 l 1
 31 33 l 1
 31 35 l 1
36 37 m 1
 34 37 l 1
 34 35 l 1
 36 35 l 1
 36 37 l 1
31 31 m 1
 29 31 l 1
 29 29 l 1
 31 29 l 1
 31 31 l 1
36 33 m 1
 34 33 l 1
 34 31 l 1
 36 31 l 1
 36 33 l 1
31 27 m 1
 29 27 l 1
 29 25 l 1
 31 25 l 1
 31 27 l 1
49 43 m 1
 47 43 l 1
 47 41 l 1
 49 41 l 1
 49 43 l 1
49 39 m 1
 47 39 l 1
 47 37 l 1
 49 37 l 1
 49 39 l 1
49 35 m 1
 47 35 l 1
 47 33 l 1
 49 33 l 1
 49 35 l 1
49 31 m 1
 47 31 l 1
 47 29 l 1
 49 29 l 1
 49 31 l 1
63 43 m 1
 61 43 l 1
 61 41 l 1
 63 41 l 1
 63 43 l 1
63 39 m 1
 61 39 l 1
 61 37 l 1
 63 37 l 1
 63 39 l 1
63 35 m 1
 61 35 l 1
 61 33 l 1
 63 33 l 1
 63 35 l 1
63 31 m 1
 61 31 l 1
 61 29 l 1
 63 29 l 1
 63 31 l 1
49 27 m 1
 47 27 l 1
 47 25 l 1
 49 25 l 1
 49 27 l 1
63 27 m 1
 61 27 l 1
 61 25 l 1
 63 25 l 1
 63 27 l 1
EndSplineSet
EndChar

StartChar: custom_1_1_0_4_0
Encoding: 23308 23308 3340
Width: 70
Flags: H
LayerCount: 2
Fore
SplineSet
31 43 m 1
 29 43 l 1
 29 41 l 1
 31 41 l 1
 31 43 l 1
31 39 m 1
 29 39 l 1
 29 37 l 1
 31 37 l 1
 31 39 l 1
31 35 m 1
 29 35 l 1
 29 33 l 1
 31 33 l 1
 31 35 l 1
36 37 m 1
 34 37 l 1
 34 35 l 1
 36 35 l 1
 36 37 l 1
31 31 m 1
 29 31 l 1
 29 29 l 1
 31 29 l 1
 31 31 l 1
36 33 m 1
 34 33 l 1
 34 31 l 1
 36 31 l 1
 36 33 l 1
31 27 m 1
 29 27 l 1
 29 25 l 1
 31 25 l 1
 31 27 l 1
49 43 m 1
 47 43 l 1
 47 41 l 1
 49 41 l 1
 49 43 l 1
49 39 m 1
 47 39 l 1
 47 37 l 1
 49 37 l 1
 49 39 l 1
49 35 m 1
 47 35 l 1
 47 33 l 1
 49 33 l 1
 49 35 l 1
49 31 m 1
 47 31 l 1
 47 29 l 1
 49 29 l 1
 49 31 l 1
63 43 m 1
 61 43 l 1
 61 41 l 1
 63 41 l 1
 63 43 l 1
63 39 m 1
 61 39 l 1
 61 37 l 1
 63 37 l 1
 63 39 l 1
63 35 m 1
 61 35 l 1
 61 33 l 1
 63 33 l 1
 63 35 l 1
63 31 m 1
 61 31 l 1
 61 29 l 1
 63 29 l 1
 63 31 l 1
49 27 m 1
 47 27 l 1
 47 25 l 1
 49 25 l 1
 49 27 l 1
63 27 m 1
 61 27 l 1
 61 25 l 1
 63 25 l 1
 63 27 l 1
EndSplineSet
EndChar

StartChar: custom_1_1_0_4_1
Encoding: 23309 23309 3341
Width: 70
Flags: H
LayerCount: 2
Fore
SplineSet
31 43 m 1
 29 43 l 1
 29 41 l 1
 31 41 l 1
 31 43 l 1
31 39 m 1
 29 39 l 1
 29 37 l 1
 31 37 l 1
 31 39 l 1
31 35 m 1
 29 35 l 1
 29 33 l 1
 31 33 l 1
 31 35 l 1
36 37 m 1
 34 37 l 1
 34 35 l 1
 36 35 l 1
 36 37 l 1
31 31 m 1
 29 31 l 1
 29 29 l 1
 31 29 l 1
 31 31 l 1
36 33 m 1
 34 33 l 1
 34 31 l 1
 36 31 l 1
 36 33 l 1
31 27 m 1
 29 27 l 1
 29 25 l 1
 31 25 l 1
 31 27 l 1
49 43 m 1
 47 43 l 1
 47 41 l 1
 49 41 l 1
 49 43 l 1
49 39 m 1
 47 39 l 1
 47 37 l 1
 49 37 l 1
 49 39 l 1
49 35 m 1
 47 35 l 1
 47 33 l 1
 49 33 l 1
 49 35 l 1
49 31 m 1
 47 31 l 1
 47 29 l 1
 49 29 l 1
 49 31 l 1
63 43 m 1
 61 43 l 1
 61 41 l 1
 63 41 l 1
 63 43 l 1
63 39 m 1
 61 39 l 1
 61 37 l 1
 63 37 l 1
 63 39 l 1
63 35 m 1
 61 35 l 1
 61 33 l 1
 63 33 l 1
 63 35 l 1
63 31 m 1
 61 31 l 1
 61 29 l 1
 63 29 l 1
 63 31 l 1
49 27 m 1
 47 27 l 1
 47 25 l 1
 49 25 l 1
 49 27 l 1
63 27 m 1
 61 27 l 1
 61 25 l 1
 63 25 l 1
 63 27 l 1
EndSplineSet
EndChar

StartChar: custom_1_1_0_4_2
Encoding: 23310 23310 3342
Width: 70
Flags: H
LayerCount: 2
Fore
SplineSet
31 43 m 1
 29 43 l 1
 29 41 l 1
 31 41 l 1
 31 43 l 1
31 39 m 1
 29 39 l 1
 29 37 l 1
 31 37 l 1
 31 39 l 1
31 35 m 1
 29 35 l 1
 29 33 l 1
 31 33 l 1
 31 35 l 1
36 37 m 1
 34 37 l 1
 34 35 l 1
 36 35 l 1
 36 37 l 1
31 31 m 1
 29 31 l 1
 29 29 l 1
 31 29 l 1
 31 31 l 1
36 33 m 1
 34 33 l 1
 34 31 l 1
 36 31 l 1
 36 33 l 1
31 27 m 1
 29 27 l 1
 29 25 l 1
 31 25 l 1
 31 27 l 1
49 43 m 1
 47 43 l 1
 47 41 l 1
 49 41 l 1
 49 43 l 1
49 39 m 1
 47 39 l 1
 47 37 l 1
 49 37 l 1
 49 39 l 1
49 35 m 1
 47 35 l 1
 47 33 l 1
 49 33 l 1
 49 35 l 1
49 31 m 1
 47 31 l 1
 47 29 l 1
 49 29 l 1
 49 31 l 1
63 43 m 1
 61 43 l 1
 61 41 l 1
 63 41 l 1
 63 43 l 1
63 39 m 1
 61 39 l 1
 61 37 l 1
 63 37 l 1
 63 39 l 1
63 35 m 1
 61 35 l 1
 61 33 l 1
 63 33 l 1
 63 35 l 1
63 31 m 1
 61 31 l 1
 61 29 l 1
 63 29 l 1
 63 31 l 1
49 27 m 1
 47 27 l 1
 47 25 l 1
 49 25 l 1
 49 27 l 1
63 27 m 1
 61 27 l 1
 61 25 l 1
 63 25 l 1
 63 27 l 1
EndSplineSet
EndChar

StartChar: custom_1_1_0_4_3
Encoding: 23311 23311 3343
Width: 70
Flags: H
LayerCount: 2
Fore
SplineSet
31 43 m 1
 29 43 l 1
 29 41 l 1
 31 41 l 1
 31 43 l 1
31 39 m 1
 29 39 l 1
 29 37 l 1
 31 37 l 1
 31 39 l 1
31 35 m 1
 29 35 l 1
 29 33 l 1
 31 33 l 1
 31 35 l 1
36 37 m 1
 34 37 l 1
 34 35 l 1
 36 35 l 1
 36 37 l 1
31 31 m 1
 29 31 l 1
 29 29 l 1
 31 29 l 1
 31 31 l 1
36 33 m 1
 34 33 l 1
 34 31 l 1
 36 31 l 1
 36 33 l 1
31 27 m 1
 29 27 l 1
 29 25 l 1
 31 25 l 1
 31 27 l 1
49 43 m 1
 47 43 l 1
 47 41 l 1
 49 41 l 1
 49 43 l 1
49 39 m 1
 47 39 l 1
 47 37 l 1
 49 37 l 1
 49 39 l 1
49 35 m 1
 47 35 l 1
 47 33 l 1
 49 33 l 1
 49 35 l 1
49 31 m 1
 47 31 l 1
 47 29 l 1
 49 29 l 1
 49 31 l 1
63 43 m 1
 61 43 l 1
 61 41 l 1
 63 41 l 1
 63 43 l 1
63 39 m 1
 61 39 l 1
 61 37 l 1
 63 37 l 1
 63 39 l 1
63 35 m 1
 61 35 l 1
 61 33 l 1
 63 33 l 1
 63 35 l 1
63 31 m 1
 61 31 l 1
 61 29 l 1
 63 29 l 1
 63 31 l 1
49 27 m 1
 47 27 l 1
 47 25 l 1
 49 25 l 1
 49 27 l 1
63 27 m 1
 61 27 l 1
 61 25 l 1
 63 25 l 1
 63 27 l 1
EndSplineSet
EndChar

StartChar: custom_1_1_0_4_4
Encoding: 23312 23312 3344
Width: 70
Flags: H
LayerCount: 2
Fore
SplineSet
31 43 m 1
 29 43 l 1
 29 41 l 1
 31 41 l 1
 31 43 l 1
31 39 m 1
 29 39 l 1
 29 37 l 1
 31 37 l 1
 31 39 l 1
31 35 m 1
 29 35 l 1
 29 33 l 1
 31 33 l 1
 31 35 l 1
36 37 m 1
 34 37 l 1
 34 35 l 1
 36 35 l 1
 36 37 l 1
31 31 m 1
 29 31 l 1
 29 29 l 1
 31 29 l 1
 31 31 l 1
36 33 m 1
 34 33 l 1
 34 31 l 1
 36 31 l 1
 36 33 l 1
31 27 m 1
 29 27 l 1
 29 25 l 1
 31 25 l 1
 31 27 l 1
49 43 m 1
 47 43 l 1
 47 41 l 1
 49 41 l 1
 49 43 l 1
49 39 m 1
 47 39 l 1
 47 37 l 1
 49 37 l 1
 49 39 l 1
49 35 m 1
 47 35 l 1
 47 33 l 1
 49 33 l 1
 49 35 l 1
49 31 m 1
 47 31 l 1
 47 29 l 1
 49 29 l 1
 49 31 l 1
63 43 m 1
 61 43 l 1
 61 41 l 1
 63 41 l 1
 63 43 l 1
63 39 m 1
 61 39 l 1
 61 37 l 1
 63 37 l 1
 63 39 l 1
63 35 m 1
 61 35 l 1
 61 33 l 1
 63 33 l 1
 63 35 l 1
63 31 m 1
 61 31 l 1
 61 29 l 1
 63 29 l 1
 63 31 l 1
49 27 m 1
 47 27 l 1
 47 25 l 1
 49 25 l 1
 49 27 l 1
63 27 m 1
 61 27 l 1
 61 25 l 1
 63 25 l 1
 63 27 l 1
EndSplineSet
EndChar

StartChar: custom_1_1_0_4_5
Encoding: 23313 23313 3345
Width: 70
Flags: H
LayerCount: 2
Fore
SplineSet
31 43 m 1
 29 43 l 1
 29 41 l 1
 31 41 l 1
 31 43 l 1
31 39 m 1
 29 39 l 1
 29 37 l 1
 31 37 l 1
 31 39 l 1
31 35 m 1
 29 35 l 1
 29 33 l 1
 31 33 l 1
 31 35 l 1
36 37 m 1
 34 37 l 1
 34 35 l 1
 36 35 l 1
 36 37 l 1
31 31 m 1
 29 31 l 1
 29 29 l 1
 31 29 l 1
 31 31 l 1
36 33 m 1
 34 33 l 1
 34 31 l 1
 36 31 l 1
 36 33 l 1
31 27 m 1
 29 27 l 1
 29 25 l 1
 31 25 l 1
 31 27 l 1
49 43 m 1
 47 43 l 1
 47 41 l 1
 49 41 l 1
 49 43 l 1
49 39 m 1
 47 39 l 1
 47 37 l 1
 49 37 l 1
 49 39 l 1
49 35 m 1
 47 35 l 1
 47 33 l 1
 49 33 l 1
 49 35 l 1
49 31 m 1
 47 31 l 1
 47 29 l 1
 49 29 l 1
 49 31 l 1
63 43 m 1
 61 43 l 1
 61 41 l 1
 63 41 l 1
 63 43 l 1
63 39 m 1
 61 39 l 1
 61 37 l 1
 63 37 l 1
 63 39 l 1
63 35 m 1
 61 35 l 1
 61 33 l 1
 63 33 l 1
 63 35 l 1
63 31 m 1
 61 31 l 1
 61 29 l 1
 63 29 l 1
 63 31 l 1
49 27 m 1
 47 27 l 1
 47 25 l 1
 49 25 l 1
 49 27 l 1
63 27 m 1
 61 27 l 1
 61 25 l 1
 63 25 l 1
 63 27 l 1
EndSplineSet
EndChar

StartChar: custom_1_1_0_4_6
Encoding: 23314 23314 3346
Width: 70
Flags: H
LayerCount: 2
Fore
SplineSet
31 43 m 1
 29 43 l 1
 29 41 l 1
 31 41 l 1
 31 43 l 1
31 39 m 1
 29 39 l 1
 29 37 l 1
 31 37 l 1
 31 39 l 1
31 35 m 1
 29 35 l 1
 29 33 l 1
 31 33 l 1
 31 35 l 1
36 37 m 1
 34 37 l 1
 34 35 l 1
 36 35 l 1
 36 37 l 1
31 31 m 1
 29 31 l 1
 29 29 l 1
 31 29 l 1
 31 31 l 1
36 33 m 1
 34 33 l 1
 34 31 l 1
 36 31 l 1
 36 33 l 1
31 27 m 1
 29 27 l 1
 29 25 l 1
 31 25 l 1
 31 27 l 1
49 43 m 1
 47 43 l 1
 47 41 l 1
 49 41 l 1
 49 43 l 1
49 39 m 1
 47 39 l 1
 47 37 l 1
 49 37 l 1
 49 39 l 1
49 35 m 1
 47 35 l 1
 47 33 l 1
 49 33 l 1
 49 35 l 1
49 31 m 1
 47 31 l 1
 47 29 l 1
 49 29 l 1
 49 31 l 1
63 43 m 1
 61 43 l 1
 61 41 l 1
 63 41 l 1
 63 43 l 1
63 39 m 1
 61 39 l 1
 61 37 l 1
 63 37 l 1
 63 39 l 1
63 35 m 1
 61 35 l 1
 61 33 l 1
 63 33 l 1
 63 35 l 1
63 31 m 1
 61 31 l 1
 61 29 l 1
 63 29 l 1
 63 31 l 1
49 27 m 1
 47 27 l 1
 47 25 l 1
 49 25 l 1
 49 27 l 1
63 27 m 1
 61 27 l 1
 61 25 l 1
 63 25 l 1
 63 27 l 1
EndSplineSet
EndChar

StartChar: custom_1_1_0_4_7
Encoding: 23315 23315 3347
Width: 70
Flags: H
LayerCount: 2
Fore
SplineSet
31 43 m 1
 29 43 l 1
 29 41 l 1
 31 41 l 1
 31 43 l 1
31 39 m 1
 29 39 l 1
 29 37 l 1
 31 37 l 1
 31 39 l 1
31 35 m 1
 29 35 l 1
 29 33 l 1
 31 33 l 1
 31 35 l 1
36 37 m 1
 34 37 l 1
 34 35 l 1
 36 35 l 1
 36 37 l 1
31 31 m 1
 29 31 l 1
 29 29 l 1
 31 29 l 1
 31 31 l 1
36 33 m 1
 34 33 l 1
 34 31 l 1
 36 31 l 1
 36 33 l 1
31 27 m 1
 29 27 l 1
 29 25 l 1
 31 25 l 1
 31 27 l 1
49 43 m 1
 47 43 l 1
 47 41 l 1
 49 41 l 1
 49 43 l 1
49 39 m 1
 47 39 l 1
 47 37 l 1
 49 37 l 1
 49 39 l 1
49 35 m 1
 47 35 l 1
 47 33 l 1
 49 33 l 1
 49 35 l 1
49 31 m 1
 47 31 l 1
 47 29 l 1
 49 29 l 1
 49 31 l 1
63 43 m 1
 61 43 l 1
 61 41 l 1
 63 41 l 1
 63 43 l 1
63 39 m 1
 61 39 l 1
 61 37 l 1
 63 37 l 1
 63 39 l 1
63 35 m 1
 61 35 l 1
 61 33 l 1
 63 33 l 1
 63 35 l 1
63 31 m 1
 61 31 l 1
 61 29 l 1
 63 29 l 1
 63 31 l 1
49 27 m 1
 47 27 l 1
 47 25 l 1
 49 25 l 1
 49 27 l 1
63 27 m 1
 61 27 l 1
 61 25 l 1
 63 25 l 1
 63 27 l 1
EndSplineSet
EndChar

StartChar: custom_1_1_0_4_8
Encoding: 23316 23316 3348
Width: 70
Flags: H
LayerCount: 2
Fore
SplineSet
31 43 m 1
 29 43 l 1
 29 41 l 1
 31 41 l 1
 31 43 l 1
31 39 m 1
 29 39 l 1
 29 37 l 1
 31 37 l 1
 31 39 l 1
31 35 m 1
 29 35 l 1
 29 33 l 1
 31 33 l 1
 31 35 l 1
36 37 m 1
 34 37 l 1
 34 35 l 1
 36 35 l 1
 36 37 l 1
31 31 m 1
 29 31 l 1
 29 29 l 1
 31 29 l 1
 31 31 l 1
36 33 m 1
 34 33 l 1
 34 31 l 1
 36 31 l 1
 36 33 l 1
31 27 m 1
 29 27 l 1
 29 25 l 1
 31 25 l 1
 31 27 l 1
49 43 m 1
 47 43 l 1
 47 41 l 1
 49 41 l 1
 49 43 l 1
49 39 m 1
 47 39 l 1
 47 37 l 1
 49 37 l 1
 49 39 l 1
49 35 m 1
 47 35 l 1
 47 33 l 1
 49 33 l 1
 49 35 l 1
49 31 m 1
 47 31 l 1
 47 29 l 1
 49 29 l 1
 49 31 l 1
63 43 m 1
 61 43 l 1
 61 41 l 1
 63 41 l 1
 63 43 l 1
63 39 m 1
 61 39 l 1
 61 37 l 1
 63 37 l 1
 63 39 l 1
63 35 m 1
 61 35 l 1
 61 33 l 1
 63 33 l 1
 63 35 l 1
63 31 m 1
 61 31 l 1
 61 29 l 1
 63 29 l 1
 63 31 l 1
49 27 m 1
 47 27 l 1
 47 25 l 1
 49 25 l 1
 49 27 l 1
63 27 m 1
 61 27 l 1
 61 25 l 1
 63 25 l 1
 63 27 l 1
EndSplineSet
EndChar

StartChar: custom_1_1_0_4_9
Encoding: 23317 23317 3349
Width: 70
Flags: H
LayerCount: 2
Fore
SplineSet
31 43 m 1
 29 43 l 1
 29 41 l 1
 31 41 l 1
 31 43 l 1
31 39 m 1
 29 39 l 1
 29 37 l 1
 31 37 l 1
 31 39 l 1
31 35 m 1
 29 35 l 1
 29 33 l 1
 31 33 l 1
 31 35 l 1
36 37 m 1
 34 37 l 1
 34 35 l 1
 36 35 l 1
 36 37 l 1
31 31 m 1
 29 31 l 1
 29 29 l 1
 31 29 l 1
 31 31 l 1
36 33 m 1
 34 33 l 1
 34 31 l 1
 36 31 l 1
 36 33 l 1
31 27 m 1
 29 27 l 1
 29 25 l 1
 31 25 l 1
 31 27 l 1
49 43 m 1
 47 43 l 1
 47 41 l 1
 49 41 l 1
 49 43 l 1
49 39 m 1
 47 39 l 1
 47 37 l 1
 49 37 l 1
 49 39 l 1
49 35 m 1
 47 35 l 1
 47 33 l 1
 49 33 l 1
 49 35 l 1
49 31 m 1
 47 31 l 1
 47 29 l 1
 49 29 l 1
 49 31 l 1
63 43 m 1
 61 43 l 1
 61 41 l 1
 63 41 l 1
 63 43 l 1
63 39 m 1
 61 39 l 1
 61 37 l 1
 63 37 l 1
 63 39 l 1
63 35 m 1
 61 35 l 1
 61 33 l 1
 63 33 l 1
 63 35 l 1
63 31 m 1
 61 31 l 1
 61 29 l 1
 63 29 l 1
 63 31 l 1
49 27 m 1
 47 27 l 1
 47 25 l 1
 49 25 l 1
 49 27 l 1
63 27 m 1
 61 27 l 1
 61 25 l 1
 63 25 l 1
 63 27 l 1
EndSplineSet
EndChar

StartChar: custom_1_1_0_5_0
Encoding: 23318 23318 3350
Width: 70
Flags: H
LayerCount: 2
Fore
SplineSet
31 43 m 1
 29 43 l 1
 29 41 l 1
 31 41 l 1
 31 43 l 1
31 39 m 1
 29 39 l 1
 29 37 l 1
 31 37 l 1
 31 39 l 1
31 35 m 1
 29 35 l 1
 29 33 l 1
 31 33 l 1
 31 35 l 1
36 37 m 1
 34 37 l 1
 34 35 l 1
 36 35 l 1
 36 37 l 1
31 31 m 1
 29 31 l 1
 29 29 l 1
 31 29 l 1
 31 31 l 1
36 33 m 1
 34 33 l 1
 34 31 l 1
 36 31 l 1
 36 33 l 1
31 27 m 1
 29 27 l 1
 29 25 l 1
 31 25 l 1
 31 27 l 1
49 43 m 1
 47 43 l 1
 47 41 l 1
 49 41 l 1
 49 43 l 1
49 39 m 1
 47 39 l 1
 47 37 l 1
 49 37 l 1
 49 39 l 1
49 35 m 1
 47 35 l 1
 47 33 l 1
 49 33 l 1
 49 35 l 1
49 31 m 1
 47 31 l 1
 47 29 l 1
 49 29 l 1
 49 31 l 1
63 43 m 1
 61 43 l 1
 61 41 l 1
 63 41 l 1
 63 43 l 1
63 39 m 1
 61 39 l 1
 61 37 l 1
 63 37 l 1
 63 39 l 1
63 35 m 1
 61 35 l 1
 61 33 l 1
 63 33 l 1
 63 35 l 1
63 31 m 1
 61 31 l 1
 61 29 l 1
 63 29 l 1
 63 31 l 1
49 27 m 1
 47 27 l 1
 47 25 l 1
 49 25 l 1
 49 27 l 1
63 27 m 1
 61 27 l 1
 61 25 l 1
 63 25 l 1
 63 27 l 1
EndSplineSet
EndChar

StartChar: custom_1_1_0_5_1
Encoding: 23319 23319 3351
Width: 70
Flags: H
LayerCount: 2
Fore
SplineSet
31 43 m 1
 29 43 l 1
 29 41 l 1
 31 41 l 1
 31 43 l 1
31 39 m 1
 29 39 l 1
 29 37 l 1
 31 37 l 1
 31 39 l 1
31 35 m 1
 29 35 l 1
 29 33 l 1
 31 33 l 1
 31 35 l 1
36 37 m 1
 34 37 l 1
 34 35 l 1
 36 35 l 1
 36 37 l 1
31 31 m 1
 29 31 l 1
 29 29 l 1
 31 29 l 1
 31 31 l 1
36 33 m 1
 34 33 l 1
 34 31 l 1
 36 31 l 1
 36 33 l 1
31 27 m 1
 29 27 l 1
 29 25 l 1
 31 25 l 1
 31 27 l 1
49 43 m 1
 47 43 l 1
 47 41 l 1
 49 41 l 1
 49 43 l 1
49 39 m 1
 47 39 l 1
 47 37 l 1
 49 37 l 1
 49 39 l 1
49 35 m 1
 47 35 l 1
 47 33 l 1
 49 33 l 1
 49 35 l 1
49 31 m 1
 47 31 l 1
 47 29 l 1
 49 29 l 1
 49 31 l 1
63 43 m 1
 61 43 l 1
 61 41 l 1
 63 41 l 1
 63 43 l 1
63 39 m 1
 61 39 l 1
 61 37 l 1
 63 37 l 1
 63 39 l 1
63 35 m 1
 61 35 l 1
 61 33 l 1
 63 33 l 1
 63 35 l 1
63 31 m 1
 61 31 l 1
 61 29 l 1
 63 29 l 1
 63 31 l 1
49 27 m 1
 47 27 l 1
 47 25 l 1
 49 25 l 1
 49 27 l 1
63 27 m 1
 61 27 l 1
 61 25 l 1
 63 25 l 1
 63 27 l 1
EndSplineSet
EndChar

StartChar: custom_1_1_0_5_2
Encoding: 23320 23320 3352
Width: 70
Flags: H
LayerCount: 2
Fore
SplineSet
31 43 m 1
 29 43 l 1
 29 41 l 1
 31 41 l 1
 31 43 l 1
31 39 m 1
 29 39 l 1
 29 37 l 1
 31 37 l 1
 31 39 l 1
31 35 m 1
 29 35 l 1
 29 33 l 1
 31 33 l 1
 31 35 l 1
36 37 m 1
 34 37 l 1
 34 35 l 1
 36 35 l 1
 36 37 l 1
31 31 m 1
 29 31 l 1
 29 29 l 1
 31 29 l 1
 31 31 l 1
36 33 m 1
 34 33 l 1
 34 31 l 1
 36 31 l 1
 36 33 l 1
31 27 m 1
 29 27 l 1
 29 25 l 1
 31 25 l 1
 31 27 l 1
49 43 m 1
 47 43 l 1
 47 41 l 1
 49 41 l 1
 49 43 l 1
49 39 m 1
 47 39 l 1
 47 37 l 1
 49 37 l 1
 49 39 l 1
49 35 m 1
 47 35 l 1
 47 33 l 1
 49 33 l 1
 49 35 l 1
49 31 m 1
 47 31 l 1
 47 29 l 1
 49 29 l 1
 49 31 l 1
63 43 m 1
 61 43 l 1
 61 41 l 1
 63 41 l 1
 63 43 l 1
63 39 m 1
 61 39 l 1
 61 37 l 1
 63 37 l 1
 63 39 l 1
63 35 m 1
 61 35 l 1
 61 33 l 1
 63 33 l 1
 63 35 l 1
63 31 m 1
 61 31 l 1
 61 29 l 1
 63 29 l 1
 63 31 l 1
49 27 m 1
 47 27 l 1
 47 25 l 1
 49 25 l 1
 49 27 l 1
63 27 m 1
 61 27 l 1
 61 25 l 1
 63 25 l 1
 63 27 l 1
70 -1 m 1
 69 -1 l 1
 69 -2 l 1
 70 -2 l 1
 70 -1 l 1
EndSplineSet
EndChar

StartChar: custom_1_1_0_5_3
Encoding: 23321 23321 3353
Width: 70
Flags: H
LayerCount: 2
Fore
SplineSet
31 43 m 1
 29 43 l 1
 29 41 l 1
 31 41 l 1
 31 43 l 1
31 39 m 1
 29 39 l 1
 29 37 l 1
 31 37 l 1
 31 39 l 1
31 35 m 1
 29 35 l 1
 29 33 l 1
 31 33 l 1
 31 35 l 1
36 37 m 1
 34 37 l 1
 34 35 l 1
 36 35 l 1
 36 37 l 1
31 31 m 1
 29 31 l 1
 29 29 l 1
 31 29 l 1
 31 31 l 1
36 33 m 1
 34 33 l 1
 34 31 l 1
 36 31 l 1
 36 33 l 1
31 27 m 1
 29 27 l 1
 29 25 l 1
 31 25 l 1
 31 27 l 1
49 43 m 1
 47 43 l 1
 47 41 l 1
 49 41 l 1
 49 43 l 1
49 39 m 1
 47 39 l 1
 47 37 l 1
 49 37 l 1
 49 39 l 1
49 35 m 1
 47 35 l 1
 47 33 l 1
 49 33 l 1
 49 35 l 1
49 31 m 1
 47 31 l 1
 47 29 l 1
 49 29 l 1
 49 31 l 1
63 43 m 1
 61 43 l 1
 61 41 l 1
 63 41 l 1
 63 43 l 1
63 39 m 1
 61 39 l 1
 61 37 l 1
 63 37 l 1
 63 39 l 1
63 35 m 1
 61 35 l 1
 61 33 l 1
 63 33 l 1
 63 35 l 1
63 31 m 1
 61 31 l 1
 61 29 l 1
 63 29 l 1
 63 31 l 1
49 27 m 1
 47 27 l 1
 47 25 l 1
 49 25 l 1
 49 27 l 1
63 27 m 1
 61 27 l 1
 61 25 l 1
 63 25 l 1
 63 27 l 1
70 -1 m 1
 69 -1 l 1
 69 -2 l 1
 70 -2 l 1
 70 -1 l 1
EndSplineSet
EndChar

StartChar: custom_1_1_0_5_4
Encoding: 23322 23322 3354
Width: 70
Flags: H
LayerCount: 2
Fore
SplineSet
31 43 m 1
 29 43 l 1
 29 41 l 1
 31 41 l 1
 31 43 l 1
31 39 m 1
 29 39 l 1
 29 37 l 1
 31 37 l 1
 31 39 l 1
31 35 m 1
 29 35 l 1
 29 33 l 1
 31 33 l 1
 31 35 l 1
36 37 m 1
 34 37 l 1
 34 35 l 1
 36 35 l 1
 36 37 l 1
31 31 m 1
 29 31 l 1
 29 29 l 1
 31 29 l 1
 31 31 l 1
36 33 m 1
 34 33 l 1
 34 31 l 1
 36 31 l 1
 36 33 l 1
31 27 m 1
 29 27 l 1
 29 25 l 1
 31 25 l 1
 31 27 l 1
49 43 m 1
 47 43 l 1
 47 41 l 1
 49 41 l 1
 49 43 l 1
49 39 m 1
 47 39 l 1
 47 37 l 1
 49 37 l 1
 49 39 l 1
49 35 m 1
 47 35 l 1
 47 33 l 1
 49 33 l 1
 49 35 l 1
49 31 m 1
 47 31 l 1
 47 29 l 1
 49 29 l 1
 49 31 l 1
63 43 m 1
 61 43 l 1
 61 41 l 1
 63 41 l 1
 63 43 l 1
63 39 m 1
 61 39 l 1
 61 37 l 1
 63 37 l 1
 63 39 l 1
63 35 m 1
 61 35 l 1
 61 33 l 1
 63 33 l 1
 63 35 l 1
63 31 m 1
 61 31 l 1
 61 29 l 1
 63 29 l 1
 63 31 l 1
49 27 m 1
 47 27 l 1
 47 25 l 1
 49 25 l 1
 49 27 l 1
63 27 m 1
 61 27 l 1
 61 25 l 1
 63 25 l 1
 63 27 l 1
70 -1 m 1
 68 -1 l 1
 68 -2 l 1
 70 -2 l 1
 70 -1 l 1
EndSplineSet
EndChar

StartChar: custom_1_1_0_5_5
Encoding: 23323 23323 3355
Width: 70
Flags: H
LayerCount: 2
Fore
SplineSet
31 43 m 1
 29 43 l 1
 29 41 l 1
 31 41 l 1
 31 43 l 1
31 39 m 1
 29 39 l 1
 29 37 l 1
 31 37 l 1
 31 39 l 1
31 35 m 1
 29 35 l 1
 29 33 l 1
 31 33 l 1
 31 35 l 1
36 37 m 1
 34 37 l 1
 34 35 l 1
 36 35 l 1
 36 37 l 1
31 31 m 1
 29 31 l 1
 29 29 l 1
 31 29 l 1
 31 31 l 1
36 33 m 1
 34 33 l 1
 34 31 l 1
 36 31 l 1
 36 33 l 1
31 27 m 1
 29 27 l 1
 29 25 l 1
 31 25 l 1
 31 27 l 1
49 43 m 1
 47 43 l 1
 47 41 l 1
 49 41 l 1
 49 43 l 1
49 39 m 1
 47 39 l 1
 47 37 l 1
 49 37 l 1
 49 39 l 1
49 35 m 1
 47 35 l 1
 47 33 l 1
 49 33 l 1
 49 35 l 1
49 31 m 1
 47 31 l 1
 47 29 l 1
 49 29 l 1
 49 31 l 1
63 43 m 1
 61 43 l 1
 61 41 l 1
 63 41 l 1
 63 43 l 1
63 39 m 1
 61 39 l 1
 61 37 l 1
 63 37 l 1
 63 39 l 1
63 35 m 1
 61 35 l 1
 61 33 l 1
 63 33 l 1
 63 35 l 1
63 31 m 1
 61 31 l 1
 61 29 l 1
 63 29 l 1
 63 31 l 1
49 27 m 1
 47 27 l 1
 47 25 l 1
 49 25 l 1
 49 27 l 1
63 27 m 1
 61 27 l 1
 61 25 l 1
 63 25 l 1
 63 27 l 1
69 -1 m 1
 68 -1 l 1
 68 -2 l 1
 70 -2 l 1
 70 0 l 1
 69 0 l 1
 69 -1 l 1
EndSplineSet
EndChar

StartChar: custom_1_1_0_5_6
Encoding: 23324 23324 3356
Width: 70
Flags: H
LayerCount: 2
Fore
SplineSet
31 43 m 1
 29 43 l 1
 29 41 l 1
 31 41 l 1
 31 43 l 1
31 39 m 1
 29 39 l 1
 29 37 l 1
 31 37 l 1
 31 39 l 1
31 35 m 1
 29 35 l 1
 29 33 l 1
 31 33 l 1
 31 35 l 1
36 37 m 1
 34 37 l 1
 34 35 l 1
 36 35 l 1
 36 37 l 1
31 31 m 1
 29 31 l 1
 29 29 l 1
 31 29 l 1
 31 31 l 1
36 33 m 1
 34 33 l 1
 34 31 l 1
 36 31 l 1
 36 33 l 1
31 27 m 1
 29 27 l 1
 29 25 l 1
 31 25 l 1
 31 27 l 1
49 43 m 1
 47 43 l 1
 47 41 l 1
 49 41 l 1
 49 43 l 1
49 39 m 1
 47 39 l 1
 47 37 l 1
 49 37 l 1
 49 39 l 1
49 35 m 1
 47 35 l 1
 47 33 l 1
 49 33 l 1
 49 35 l 1
49 31 m 1
 47 31 l 1
 47 29 l 1
 49 29 l 1
 49 31 l 1
63 43 m 1
 61 43 l 1
 61 41 l 1
 63 41 l 1
 63 43 l 1
63 39 m 1
 61 39 l 1
 61 37 l 1
 63 37 l 1
 63 39 l 1
63 35 m 1
 61 35 l 1
 61 33 l 1
 63 33 l 1
 63 35 l 1
63 31 m 1
 61 31 l 1
 61 29 l 1
 63 29 l 1
 63 31 l 1
49 27 m 1
 47 27 l 1
 47 25 l 1
 49 25 l 1
 49 27 l 1
63 27 m 1
 61 27 l 1
 61 25 l 1
 63 25 l 1
 63 27 l 1
70 0 m 1
 68 0 l 1
 68 -2 l 1
 69 -2 l 1
 69 -1 l 1
 70 -1 l 1
 70 0 l 1
EndSplineSet
EndChar

StartChar: custom_1_1_0_5_7
Encoding: 23325 23325 3357
Width: 70
Flags: H
LayerCount: 2
Fore
SplineSet
31 43 m 1
 29 43 l 1
 29 41 l 1
 31 41 l 1
 31 43 l 1
31 39 m 1
 29 39 l 1
 29 37 l 1
 31 37 l 1
 31 39 l 1
31 35 m 1
 29 35 l 1
 29 33 l 1
 31 33 l 1
 31 35 l 1
36 37 m 1
 34 37 l 1
 34 35 l 1
 36 35 l 1
 36 37 l 1
31 31 m 1
 29 31 l 1
 29 29 l 1
 31 29 l 1
 31 31 l 1
36 33 m 1
 34 33 l 1
 34 31 l 1
 36 31 l 1
 36 33 l 1
31 27 m 1
 29 27 l 1
 29 25 l 1
 31 25 l 1
 31 27 l 1
49 43 m 1
 47 43 l 1
 47 41 l 1
 49 41 l 1
 49 43 l 1
49 39 m 1
 47 39 l 1
 47 37 l 1
 49 37 l 1
 49 39 l 1
49 35 m 1
 47 35 l 1
 47 33 l 1
 49 33 l 1
 49 35 l 1
49 31 m 1
 47 31 l 1
 47 29 l 1
 49 29 l 1
 49 31 l 1
63 43 m 1
 61 43 l 1
 61 41 l 1
 63 41 l 1
 63 43 l 1
63 39 m 1
 61 39 l 1
 61 37 l 1
 63 37 l 1
 63 39 l 1
63 35 m 1
 61 35 l 1
 61 33 l 1
 63 33 l 1
 63 35 l 1
63 31 m 1
 61 31 l 1
 61 29 l 1
 63 29 l 1
 63 31 l 1
49 27 m 1
 47 27 l 1
 47 25 l 1
 49 25 l 1
 49 27 l 1
63 27 m 1
 61 27 l 1
 61 25 l 1
 63 25 l 1
 63 27 l 1
70 0 m 1
 68 0 l 1
 68 -1 l 1
 67 -1 l 1
 67 -2 l 1
 69 -2 l 1
 69 -1 l 1
 70 -1 l 1
 70 0 l 1
EndSplineSet
EndChar

StartChar: custom_1_1_0_5_8
Encoding: 23326 23326 3358
Width: 70
Flags: H
LayerCount: 2
Fore
SplineSet
5 -1 m 1
 4 -1 l 1
 4 -2 l 1
 5 -2 l 1
 5 -1 l 1
31 43 m 1
 29 43 l 1
 29 41 l 1
 31 41 l 1
 31 43 l 1
31 39 m 1
 29 39 l 1
 29 37 l 1
 31 37 l 1
 31 39 l 1
31 35 m 1
 29 35 l 1
 29 33 l 1
 31 33 l 1
 31 35 l 1
36 37 m 1
 34 37 l 1
 34 35 l 1
 36 35 l 1
 36 37 l 1
31 31 m 1
 29 31 l 1
 29 29 l 1
 31 29 l 1
 31 31 l 1
36 33 m 1
 34 33 l 1
 34 31 l 1
 36 31 l 1
 36 33 l 1
31 27 m 1
 29 27 l 1
 29 25 l 1
 31 25 l 1
 31 27 l 1
49 43 m 1
 47 43 l 1
 47 41 l 1
 49 41 l 1
 49 43 l 1
49 39 m 1
 47 39 l 1
 47 37 l 1
 49 37 l 1
 49 39 l 1
49 35 m 1
 47 35 l 1
 47 33 l 1
 49 33 l 1
 49 35 l 1
49 31 m 1
 47 31 l 1
 47 29 l 1
 49 29 l 1
 49 31 l 1
63 43 m 1
 61 43 l 1
 61 41 l 1
 63 41 l 1
 63 43 l 1
63 39 m 1
 61 39 l 1
 61 37 l 1
 63 37 l 1
 63 39 l 1
63 35 m 1
 61 35 l 1
 61 33 l 1
 63 33 l 1
 63 35 l 1
63 31 m 1
 61 31 l 1
 61 29 l 1
 63 29 l 1
 63 31 l 1
49 27 m 1
 47 27 l 1
 47 25 l 1
 49 25 l 1
 49 27 l 1
63 27 m 1
 61 27 l 1
 61 25 l 1
 63 25 l 1
 63 27 l 1
70 0 m 1
 67 0 l 1
 67 -2 l 1
 68 -2 l 1
 68 -1 l 1
 70 -1 l 1
 70 0 l 1
EndSplineSet
EndChar

StartChar: custom_1_1_0_5_9
Encoding: 23327 23327 3359
Width: 70
Flags: H
LayerCount: 2
Fore
SplineSet
6 -1 m 1
 4 -1 l 1
 4 -2 l 1
 6 -2 l 1
 6 -1 l 1
31 43 m 1
 29 43 l 1
 29 41 l 1
 31 41 l 1
 31 43 l 1
31 39 m 1
 29 39 l 1
 29 37 l 1
 31 37 l 1
 31 39 l 1
31 35 m 1
 29 35 l 1
 29 33 l 1
 31 33 l 1
 31 35 l 1
36 37 m 1
 34 37 l 1
 34 35 l 1
 36 35 l 1
 36 37 l 1
31 31 m 1
 29 31 l 1
 29 29 l 1
 31 29 l 1
 31 31 l 1
36 33 m 1
 34 33 l 1
 34 31 l 1
 36 31 l 1
 36 33 l 1
31 27 m 1
 29 27 l 1
 29 25 l 1
 31 25 l 1
 31 27 l 1
49 43 m 1
 47 43 l 1
 47 41 l 1
 49 41 l 1
 49 43 l 1
49 39 m 1
 47 39 l 1
 47 37 l 1
 49 37 l 1
 49 39 l 1
49 35 m 1
 47 35 l 1
 47 33 l 1
 49 33 l 1
 49 35 l 1
49 31 m 1
 47 31 l 1
 47 29 l 1
 49 29 l 1
 49 31 l 1
63 43 m 1
 61 43 l 1
 61 41 l 1
 63 41 l 1
 63 43 l 1
63 39 m 1
 61 39 l 1
 61 37 l 1
 63 37 l 1
 63 39 l 1
63 35 m 1
 61 35 l 1
 61 33 l 1
 63 33 l 1
 63 35 l 1
63 31 m 1
 61 31 l 1
 61 29 l 1
 63 29 l 1
 63 31 l 1
49 27 m 1
 47 27 l 1
 47 25 l 1
 49 25 l 1
 49 27 l 1
63 27 m 1
 61 27 l 1
 61 25 l 1
 63 25 l 1
 63 27 l 1
69 1 m 1
 68 1 l 1
 68 0 l 1
 67 0 l 1
 67 -2 l 1
 68 -2 l 1
 68 -1 l 1
 69 -1 l 1
 69 1 l 1
70 -1 m 1
 69 -1 l 1
 69 -2 l 1
 70 -2 l 1
 70 -1 l 1
EndSplineSet
EndChar

StartChar: custom_1_1_0_6_0
Encoding: 23328 23328 3360
Width: 70
Flags: H
LayerCount: 2
Fore
SplineSet
6 -1 m 1
 4 -1 l 1
 4 -2 l 1
 6 -2 l 1
 6 -1 l 1
31 43 m 1
 29 43 l 1
 29 41 l 1
 31 41 l 1
 31 43 l 1
31 39 m 1
 29 39 l 1
 29 37 l 1
 31 37 l 1
 31 39 l 1
31 35 m 1
 29 35 l 1
 29 33 l 1
 31 33 l 1
 31 35 l 1
36 37 m 1
 34 37 l 1
 34 35 l 1
 36 35 l 1
 36 37 l 1
31 31 m 1
 29 31 l 1
 29 29 l 1
 31 29 l 1
 31 31 l 1
36 33 m 1
 34 33 l 1
 34 31 l 1
 36 31 l 1
 36 33 l 1
31 27 m 1
 29 27 l 1
 29 25 l 1
 31 25 l 1
 31 27 l 1
49 43 m 1
 47 43 l 1
 47 41 l 1
 49 41 l 1
 49 43 l 1
49 39 m 1
 47 39 l 1
 47 37 l 1
 49 37 l 1
 49 39 l 1
49 35 m 1
 47 35 l 1
 47 33 l 1
 49 33 l 1
 49 35 l 1
49 31 m 1
 47 31 l 1
 47 29 l 1
 49 29 l 1
 49 31 l 1
63 43 m 1
 61 43 l 1
 61 41 l 1
 63 41 l 1
 63 43 l 1
63 39 m 1
 61 39 l 1
 61 37 l 1
 63 37 l 1
 63 39 l 1
63 35 m 1
 61 35 l 1
 61 33 l 1
 63 33 l 1
 63 35 l 1
63 31 m 1
 61 31 l 1
 61 29 l 1
 63 29 l 1
 63 31 l 1
49 27 m 1
 47 27 l 1
 47 25 l 1
 49 25 l 1
 49 27 l 1
63 27 m 1
 61 27 l 1
 61 25 l 1
 63 25 l 1
 63 27 l 1
69 1 m 1
 67 1 l 1
 67 -2 l 1
 68 -2 l 1
 68 0 l 1
 69 0 l 1
 69 1 l 1
70 0 m 1
 69 0 l 1
 69 -1 l 1
 70 -1 l 1
 70 0 l 1
EndSplineSet
EndChar

StartChar: custom_1_1_0_6_1
Encoding: 23329 23329 3361
Width: 70
Flags: H
LayerCount: 2
Fore
SplineSet
7 -1 m 1
 4 -1 l 1
 4 -2 l 1
 7 -2 l 1
 7 -1 l 1
31 43 m 1
 29 43 l 1
 29 41 l 1
 31 41 l 1
 31 43 l 1
31 39 m 1
 29 39 l 1
 29 37 l 1
 31 37 l 1
 31 39 l 1
31 35 m 1
 29 35 l 1
 29 33 l 1
 31 33 l 1
 31 35 l 1
36 37 m 1
 34 37 l 1
 34 35 l 1
 36 35 l 1
 36 37 l 1
31 31 m 1
 29 31 l 1
 29 29 l 1
 31 29 l 1
 31 31 l 1
36 33 m 1
 34 33 l 1
 34 31 l 1
 36 31 l 1
 36 33 l 1
31 27 m 1
 29 27 l 1
 29 25 l 1
 31 25 l 1
 31 27 l 1
49 43 m 1
 47 43 l 1
 47 41 l 1
 49 41 l 1
 49 43 l 1
49 39 m 1
 47 39 l 1
 47 37 l 1
 49 37 l 1
 49 39 l 1
49 35 m 1
 47 35 l 1
 47 33 l 1
 49 33 l 1
 49 35 l 1
49 31 m 1
 47 31 l 1
 47 29 l 1
 49 29 l 1
 49 31 l 1
63 43 m 1
 61 43 l 1
 61 41 l 1
 63 41 l 1
 63 43 l 1
63 39 m 1
 61 39 l 1
 61 37 l 1
 63 37 l 1
 63 39 l 1
63 35 m 1
 61 35 l 1
 61 33 l 1
 63 33 l 1
 63 35 l 1
63 31 m 1
 61 31 l 1
 61 29 l 1
 63 29 l 1
 63 31 l 1
49 27 m 1
 47 27 l 1
 47 25 l 1
 49 25 l 1
 49 27 l 1
63 27 m 1
 61 27 l 1
 61 25 l 1
 63 25 l 1
 63 27 l 1
67 0 m 1
 66 0 l 1
 66 -1 l 1
 68 -1 l 1
 68 0 l 1
 69 0 l 1
 69 1 l 1
 67 1 l 1
 67 0 l 1
69 -1 m 1
 68 -1 l 1
 68 -2 l 1
 69 -2 l 1
 69 -1 l 1
EndSplineSet
EndChar

StartChar: custom_1_1_0_6_2
Encoding: 23330 23330 3362
Width: 70
Flags: H
LayerCount: 2
Fore
SplineSet
31 43 m 1
 29 43 l 1
 29 41 l 1
 31 41 l 1
 31 43 l 1
31 39 m 1
 29 39 l 1
 29 37 l 1
 31 37 l 1
 31 39 l 1
31 35 m 1
 29 35 l 1
 29 33 l 1
 31 33 l 1
 31 35 l 1
36 37 m 1
 34 37 l 1
 34 35 l 1
 36 35 l 1
 36 37 l 1
31 31 m 1
 29 31 l 1
 29 29 l 1
 31 29 l 1
 31 31 l 1
36 33 m 1
 34 33 l 1
 34 31 l 1
 36 31 l 1
 36 33 l 1
31 27 m 1
 29 27 l 1
 29 25 l 1
 31 25 l 1
 31 27 l 1
49 43 m 1
 47 43 l 1
 47 41 l 1
 49 41 l 1
 49 43 l 1
49 39 m 1
 47 39 l 1
 47 37 l 1
 49 37 l 1
 49 39 l 1
49 35 m 1
 47 35 l 1
 47 33 l 1
 49 33 l 1
 49 35 l 1
49 31 m 1
 47 31 l 1
 47 29 l 1
 49 29 l 1
 49 31 l 1
63 43 m 1
 61 43 l 1
 61 41 l 1
 63 41 l 1
 63 43 l 1
63 39 m 1
 61 39 l 1
 61 37 l 1
 63 37 l 1
 63 39 l 1
63 35 m 1
 61 35 l 1
 61 33 l 1
 63 33 l 1
 63 35 l 1
63 31 m 1
 61 31 l 1
 61 29 l 1
 63 29 l 1
 63 31 l 1
49 27 m 1
 47 27 l 1
 47 25 l 1
 49 25 l 1
 49 27 l 1
63 27 m 1
 61 27 l 1
 61 25 l 1
 63 25 l 1
 63 27 l 1
6 0 m 1
 5 0 l 1
 5 -2 l 1
 7 -2 l 1
 7 -1 l 1
 6 -1 l 1
 6 0 l 1
69 1 m 1
 66 1 l 1
 66 -1 l 1
 67 -1 l 1
 67 0 l 1
 69 0 l 1
 69 1 l 1
68 -1 m 1
 67 -1 l 1
 67 -2 l 1
 68 -2 l 1
 68 -1 l 1
EndSplineSet
EndChar

StartChar: custom_1_1_0_6_3
Encoding: 23331 23331 3363
Width: 70
Flags: H
LayerCount: 2
Fore
SplineSet
5 -1 m 1
 4 -1 l 1
 4 -2 l 1
 5 -2 l 1
 5 -1 l 1
31 43 m 1
 29 43 l 1
 29 41 l 1
 31 41 l 1
 31 43 l 1
31 39 m 1
 29 39 l 1
 29 37 l 1
 31 37 l 1
 31 39 l 1
31 35 m 1
 29 35 l 1
 29 33 l 1
 31 33 l 1
 31 35 l 1
36 37 m 1
 34 37 l 1
 34 35 l 1
 36 35 l 1
 36 37 l 1
31 31 m 1
 29 31 l 1
 29 29 l 1
 31 29 l 1
 31 31 l 1
36 33 m 1
 34 33 l 1
 34 31 l 1
 36 31 l 1
 36 33 l 1
31 27 m 1
 29 27 l 1
 29 25 l 1
 31 25 l 1
 31 27 l 1
49 43 m 1
 47 43 l 1
 47 41 l 1
 49 41 l 1
 49 43 l 1
49 39 m 1
 47 39 l 1
 47 37 l 1
 49 37 l 1
 49 39 l 1
49 35 m 1
 47 35 l 1
 47 33 l 1
 49 33 l 1
 49 35 l 1
49 31 m 1
 47 31 l 1
 47 29 l 1
 49 29 l 1
 49 31 l 1
63 43 m 1
 61 43 l 1
 61 41 l 1
 63 41 l 1
 63 43 l 1
63 39 m 1
 61 39 l 1
 61 37 l 1
 63 37 l 1
 63 39 l 1
63 35 m 1
 61 35 l 1
 61 33 l 1
 63 33 l 1
 63 35 l 1
63 31 m 1
 61 31 l 1
 61 29 l 1
 63 29 l 1
 63 31 l 1
49 27 m 1
 47 27 l 1
 47 25 l 1
 49 25 l 1
 49 27 l 1
63 27 m 1
 61 27 l 1
 61 25 l 1
 63 25 l 1
 63 27 l 1
7 0 m 1
 5 0 l 1
 5 -1 l 1
 6 -1 l 1
 6 -2 l 1
 7 -2 l 1
 7 0 l 1
68 2 m 1
 67 2 l 1
 67 1 l 1
 66 1 l 1
 66 -1 l 1
 67 -1 l 1
 67 0 l 1
 68 0 l 1
 68 2 l 1
69 0 m 1
 68 0 l 1
 68 -1 l 1
 69 -1 l 1
 69 0 l 1
EndSplineSet
EndChar

StartChar: custom_1_1_0_6_4
Encoding: 23332 23332 3364
Width: 70
Flags: H
LayerCount: 2
Fore
SplineSet
31 43 m 1
 29 43 l 1
 29 41 l 1
 31 41 l 1
 31 43 l 1
31 39 m 1
 29 39 l 1
 29 37 l 1
 31 37 l 1
 31 39 l 1
31 35 m 1
 29 35 l 1
 29 33 l 1
 31 33 l 1
 31 35 l 1
36 37 m 1
 34 37 l 1
 34 35 l 1
 36 35 l 1
 36 37 l 1
31 31 m 1
 29 31 l 1
 29 29 l 1
 31 29 l 1
 31 31 l 1
36 33 m 1
 34 33 l 1
 34 31 l 1
 36 31 l 1
 36 33 l 1
31 27 m 1
 29 27 l 1
 29 25 l 1
 31 25 l 1
 31 27 l 1
49 43 m 1
 47 43 l 1
 47 41 l 1
 49 41 l 1
 49 43 l 1
49 39 m 1
 47 39 l 1
 47 37 l 1
 49 37 l 1
 49 39 l 1
49 35 m 1
 47 35 l 1
 47 33 l 1
 49 33 l 1
 49 35 l 1
49 31 m 1
 47 31 l 1
 47 29 l 1
 49 29 l 1
 49 31 l 1
63 43 m 1
 61 43 l 1
 61 41 l 1
 63 41 l 1
 63 43 l 1
63 39 m 1
 61 39 l 1
 61 37 l 1
 63 37 l 1
 63 39 l 1
63 35 m 1
 61 35 l 1
 61 33 l 1
 63 33 l 1
 63 35 l 1
63 31 m 1
 61 31 l 1
 61 29 l 1
 63 29 l 1
 63 31 l 1
49 27 m 1
 47 27 l 1
 47 25 l 1
 49 25 l 1
 49 27 l 1
63 27 m 1
 61 27 l 1
 61 25 l 1
 63 25 l 1
 63 27 l 1
7 0 m 1
 5 0 l 1
 5 -1 l 1
 6 -1 l 1
 6 -2 l 1
 8 -2 l 1
 8 -1 l 1
 7 -1 l 1
 7 0 l 1
68 2 m 1
 66 2 l 1
 66 -1 l 1
 67 -1 l 1
 67 1 l 1
 68 1 l 1
 68 2 l 1
69 1 m 1
 68 1 l 1
 68 0 l 1
 69 0 l 1
 69 1 l 1
EndSplineSet
EndChar

StartChar: custom_1_1_0_6_5
Encoding: 23333 23333 3365
Width: 70
Flags: H
LayerCount: 2
Fore
SplineSet
31 43 m 1
 29 43 l 1
 29 41 l 1
 31 41 l 1
 31 43 l 1
31 39 m 1
 29 39 l 1
 29 37 l 1
 31 37 l 1
 31 39 l 1
31 35 m 1
 29 35 l 1
 29 33 l 1
 31 33 l 1
 31 35 l 1
36 37 m 1
 34 37 l 1
 34 35 l 1
 36 35 l 1
 36 37 l 1
31 31 m 1
 29 31 l 1
 29 29 l 1
 31 29 l 1
 31 31 l 1
36 33 m 1
 34 33 l 1
 34 31 l 1
 36 31 l 1
 36 33 l 1
31 27 m 1
 29 27 l 1
 29 25 l 1
 31 25 l 1
 31 27 l 1
49 43 m 1
 47 43 l 1
 47 41 l 1
 49 41 l 1
 49 43 l 1
49 39 m 1
 47 39 l 1
 47 37 l 1
 49 37 l 1
 49 39 l 1
49 35 m 1
 47 35 l 1
 47 33 l 1
 49 33 l 1
 49 35 l 1
49 31 m 1
 47 31 l 1
 47 29 l 1
 49 29 l 1
 49 31 l 1
63 43 m 1
 61 43 l 1
 61 41 l 1
 63 41 l 1
 63 43 l 1
63 39 m 1
 61 39 l 1
 61 37 l 1
 63 37 l 1
 63 39 l 1
63 35 m 1
 61 35 l 1
 61 33 l 1
 63 33 l 1
 63 35 l 1
63 31 m 1
 61 31 l 1
 61 29 l 1
 63 29 l 1
 63 31 l 1
49 27 m 1
 47 27 l 1
 47 25 l 1
 49 25 l 1
 49 27 l 1
63 27 m 1
 61 27 l 1
 61 25 l 1
 63 25 l 1
 63 27 l 1
8 0 m 1
 5 0 l 1
 5 -1 l 1
 7 -1 l 1
 7 -2 l 1
 8 -2 l 1
 8 0 l 1
68 2 m 1
 66 2 l 1
 66 1 l 1
 65 1 l 1
 65 0 l 1
 67 0 l 1
 67 1 l 1
 68 1 l 1
 68 2 l 1
68 0 m 1
 67 0 l 1
 67 -1 l 1
 68 -1 l 1
 68 0 l 1
EndSplineSet
EndChar

StartChar: custom_1_1_0_6_6
Encoding: 23334 23334 3366
Width: 70
Flags: H
LayerCount: 2
Fore
SplineSet
31 43 m 1
 29 43 l 1
 29 41 l 1
 31 41 l 1
 31 43 l 1
31 39 m 1
 29 39 l 1
 29 37 l 1
 31 37 l 1
 31 39 l 1
31 35 m 1
 29 35 l 1
 29 33 l 1
 31 33 l 1
 31 35 l 1
36 37 m 1
 34 37 l 1
 34 35 l 1
 36 35 l 1
 36 37 l 1
31 31 m 1
 29 31 l 1
 29 29 l 1
 31 29 l 1
 31 31 l 1
36 33 m 1
 34 33 l 1
 34 31 l 1
 36 31 l 1
 36 33 l 1
31 27 m 1
 29 27 l 1
 29 25 l 1
 31 25 l 1
 31 27 l 1
49 43 m 1
 47 43 l 1
 47 41 l 1
 49 41 l 1
 49 43 l 1
49 39 m 1
 47 39 l 1
 47 37 l 1
 49 37 l 1
 49 39 l 1
49 35 m 1
 47 35 l 1
 47 33 l 1
 49 33 l 1
 49 35 l 1
49 31 m 1
 47 31 l 1
 47 29 l 1
 49 29 l 1
 49 31 l 1
63 43 m 1
 61 43 l 1
 61 41 l 1
 63 41 l 1
 63 43 l 1
63 39 m 1
 61 39 l 1
 61 37 l 1
 63 37 l 1
 63 39 l 1
63 35 m 1
 61 35 l 1
 61 33 l 1
 63 33 l 1
 63 35 l 1
63 31 m 1
 61 31 l 1
 61 29 l 1
 63 29 l 1
 63 31 l 1
49 27 m 1
 47 27 l 1
 47 25 l 1
 49 25 l 1
 49 27 l 1
63 27 m 1
 61 27 l 1
 61 25 l 1
 63 25 l 1
 63 27 l 1
7 1 m 1
 6 1 l 1
 6 -1 l 1
 7 -1 l 1
 7 -2 l 1
 8 -2 l 1
 8 0 l 1
 7 0 l 1
 7 1 l 1
6 -1 m 1
 5 -1 l 1
 5 -2 l 1
 6 -2 l 1
 6 -1 l 1
68 2 m 1
 65 2 l 1
 65 0 l 1
 66 0 l 1
 66 1 l 1
 68 1 l 1
 68 2 l 1
67 0 m 1
 66 0 l 1
 66 -1 l 1
 67 -1 l 1
 67 0 l 1
EndSplineSet
EndChar

StartChar: custom_1_1_0_6_7
Encoding: 23335 23335 3367
Width: 70
Flags: H
LayerCount: 2
Fore
SplineSet
31 43 m 1
 29 43 l 1
 29 41 l 1
 31 41 l 1
 31 43 l 1
31 39 m 1
 29 39 l 1
 29 37 l 1
 31 37 l 1
 31 39 l 1
31 35 m 1
 29 35 l 1
 29 33 l 1
 31 33 l 1
 31 35 l 1
36 37 m 1
 34 37 l 1
 34 35 l 1
 36 35 l 1
 36 37 l 1
31 31 m 1
 29 31 l 1
 29 29 l 1
 31 29 l 1
 31 31 l 1
36 33 m 1
 34 33 l 1
 34 31 l 1
 36 31 l 1
 36 33 l 1
31 27 m 1
 29 27 l 1
 29 25 l 1
 31 25 l 1
 31 27 l 1
49 43 m 1
 47 43 l 1
 47 41 l 1
 49 41 l 1
 49 43 l 1
49 39 m 1
 47 39 l 1
 47 37 l 1
 49 37 l 1
 49 39 l 1
49 35 m 1
 47 35 l 1
 47 33 l 1
 49 33 l 1
 49 35 l 1
49 31 m 1
 47 31 l 1
 47 29 l 1
 49 29 l 1
 49 31 l 1
63 43 m 1
 61 43 l 1
 61 41 l 1
 63 41 l 1
 63 43 l 1
63 39 m 1
 61 39 l 1
 61 37 l 1
 63 37 l 1
 63 39 l 1
63 35 m 1
 61 35 l 1
 61 33 l 1
 63 33 l 1
 63 35 l 1
63 31 m 1
 61 31 l 1
 61 29 l 1
 63 29 l 1
 63 31 l 1
49 27 m 1
 47 27 l 1
 47 25 l 1
 49 25 l 1
 49 27 l 1
63 27 m 1
 61 27 l 1
 61 25 l 1
 63 25 l 1
 63 27 l 1
8 1 m 1
 6 1 l 1
 6 0 l 1
 7 0 l 1
 7 -2 l 1
 8 -2 l 1
 8 1 l 1
6 0 m 1
 5 0 l 1
 5 -1 l 1
 6 -1 l 1
 6 0 l 1
67 3 m 1
 66 3 l 1
 66 2 l 1
 65 2 l 1
 65 0 l 1
 66 0 l 1
 66 1 l 1
 67 1 l 1
 67 3 l 1
68 1 m 1
 67 1 l 1
 67 0 l 1
 68 0 l 1
 68 1 l 1
EndSplineSet
EndChar

StartChar: custom_1_1_0_6_8
Encoding: 23336 23336 3368
Width: 70
Flags: H
LayerCount: 2
Fore
SplineSet
31 43 m 1
 29 43 l 1
 29 41 l 1
 31 41 l 1
 31 43 l 1
31 39 m 1
 29 39 l 1
 29 37 l 1
 31 37 l 1
 31 39 l 1
31 35 m 1
 29 35 l 1
 29 33 l 1
 31 33 l 1
 31 35 l 1
36 37 m 1
 34 37 l 1
 34 35 l 1
 36 35 l 1
 36 37 l 1
31 31 m 1
 29 31 l 1
 29 29 l 1
 31 29 l 1
 31 31 l 1
36 33 m 1
 34 33 l 1
 34 31 l 1
 36 31 l 1
 36 33 l 1
31 27 m 1
 29 27 l 1
 29 25 l 1
 31 25 l 1
 31 27 l 1
49 43 m 1
 47 43 l 1
 47 41 l 1
 49 41 l 1
 49 43 l 1
49 39 m 1
 47 39 l 1
 47 37 l 1
 49 37 l 1
 49 39 l 1
49 35 m 1
 47 35 l 1
 47 33 l 1
 49 33 l 1
 49 35 l 1
49 31 m 1
 47 31 l 1
 47 29 l 1
 49 29 l 1
 49 31 l 1
63 43 m 1
 61 43 l 1
 61 41 l 1
 63 41 l 1
 63 43 l 1
63 39 m 1
 61 39 l 1
 61 37 l 1
 63 37 l 1
 63 39 l 1
63 35 m 1
 61 35 l 1
 61 33 l 1
 63 33 l 1
 63 35 l 1
63 31 m 1
 61 31 l 1
 61 29 l 1
 63 29 l 1
 63 31 l 1
49 27 m 1
 47 27 l 1
 47 25 l 1
 49 25 l 1
 49 27 l 1
63 27 m 1
 61 27 l 1
 61 25 l 1
 63 25 l 1
 63 27 l 1
8 1 m 1
 6 1 l 1
 6 0 l 1
 7 0 l 1
 7 -1 l 1
 9 -1 l 1
 9 0 l 1
 8 0 l 1
 8 1 l 1
7 -1 m 1
 6 -1 l 1
 6 -2 l 1
 7 -2 l 1
 7 -1 l 1
67 3 m 1
 65 3 l 1
 65 0 l 1
 66 0 l 1
 66 2 l 1
 67 2 l 1
 67 3 l 1
68 2 m 1
 67 2 l 1
 67 1 l 1
 68 1 l 1
 68 2 l 1
EndSplineSet
EndChar

StartChar: custom_1_1_0_6_9
Encoding: 23337 23337 3369
Width: 70
Flags: H
LayerCount: 2
Fore
SplineSet
31 43 m 1
 29 43 l 1
 29 41 l 1
 31 41 l 1
 31 43 l 1
31 39 m 1
 29 39 l 1
 29 37 l 1
 31 37 l 1
 31 39 l 1
31 35 m 1
 29 35 l 1
 29 33 l 1
 31 33 l 1
 31 35 l 1
36 37 m 1
 34 37 l 1
 34 35 l 1
 36 35 l 1
 36 37 l 1
31 31 m 1
 29 31 l 1
 29 29 l 1
 31 29 l 1
 31 31 l 1
36 33 m 1
 34 33 l 1
 34 31 l 1
 36 31 l 1
 36 33 l 1
31 27 m 1
 29 27 l 1
 29 25 l 1
 31 25 l 1
 31 27 l 1
49 43 m 1
 47 43 l 1
 47 41 l 1
 49 41 l 1
 49 43 l 1
49 39 m 1
 47 39 l 1
 47 37 l 1
 49 37 l 1
 49 39 l 1
49 35 m 1
 47 35 l 1
 47 33 l 1
 49 33 l 1
 49 35 l 1
49 31 m 1
 47 31 l 1
 47 29 l 1
 49 29 l 1
 49 31 l 1
63 43 m 1
 61 43 l 1
 61 41 l 1
 63 41 l 1
 63 43 l 1
63 39 m 1
 61 39 l 1
 61 37 l 1
 63 37 l 1
 63 39 l 1
63 35 m 1
 61 35 l 1
 61 33 l 1
 63 33 l 1
 63 35 l 1
63 31 m 1
 61 31 l 1
 61 29 l 1
 63 29 l 1
 63 31 l 1
49 27 m 1
 47 27 l 1
 47 25 l 1
 49 25 l 1
 49 27 l 1
63 27 m 1
 61 27 l 1
 61 25 l 1
 63 25 l 1
 63 27 l 1
9 1 m 1
 6 1 l 1
 6 0 l 1
 8 0 l 1
 8 -1 l 1
 9 -1 l 1
 9 1 l 1
8 -1 m 1
 7 -1 l 1
 7 -2 l 1
 8 -2 l 1
 8 -1 l 1
65 2 m 1
 64 2 l 1
 64 1 l 1
 66 1 l 1
 66 2 l 1
 67 2 l 1
 67 3 l 1
 65 3 l 1
 65 2 l 1
67 1 m 1
 66 1 l 1
 66 0 l 1
 67 0 l 1
 67 1 l 1
EndSplineSet
EndChar

StartChar: custom_1_1_0_7_0
Encoding: 23338 23338 3370
Width: 70
Flags: H
LayerCount: 2
Fore
SplineSet
31 43 m 1
 29 43 l 1
 29 41 l 1
 31 41 l 1
 31 43 l 1
31 39 m 1
 29 39 l 1
 29 37 l 1
 31 37 l 1
 31 39 l 1
31 35 m 1
 29 35 l 1
 29 33 l 1
 31 33 l 1
 31 35 l 1
36 37 m 1
 34 37 l 1
 34 35 l 1
 36 35 l 1
 36 37 l 1
31 31 m 1
 29 31 l 1
 29 29 l 1
 31 29 l 1
 31 31 l 1
36 33 m 1
 34 33 l 1
 34 31 l 1
 36 31 l 1
 36 33 l 1
31 27 m 1
 29 27 l 1
 29 25 l 1
 31 25 l 1
 31 27 l 1
49 43 m 1
 47 43 l 1
 47 41 l 1
 49 41 l 1
 49 43 l 1
49 39 m 1
 47 39 l 1
 47 37 l 1
 49 37 l 1
 49 39 l 1
49 35 m 1
 47 35 l 1
 47 33 l 1
 49 33 l 1
 49 35 l 1
49 31 m 1
 47 31 l 1
 47 29 l 1
 49 29 l 1
 49 31 l 1
63 43 m 1
 61 43 l 1
 61 41 l 1
 63 41 l 1
 63 43 l 1
63 39 m 1
 61 39 l 1
 61 37 l 1
 63 37 l 1
 63 39 l 1
63 35 m 1
 61 35 l 1
 61 33 l 1
 63 33 l 1
 63 35 l 1
63 31 m 1
 61 31 l 1
 61 29 l 1
 63 29 l 1
 63 31 l 1
49 27 m 1
 47 27 l 1
 47 25 l 1
 49 25 l 1
 49 27 l 1
63 27 m 1
 61 27 l 1
 61 25 l 1
 63 25 l 1
 63 27 l 1
8 2 m 1
 7 2 l 1
 7 0 l 1
 8 0 l 1
 8 -1 l 1
 9 -1 l 1
 9 1 l 1
 8 1 l 1
 8 2 l 1
7 0 m 1
 6 0 l 1
 6 -1 l 1
 7 -1 l 1
 7 0 l 1
67 3 m 1
 64 3 l 1
 64 1 l 1
 65 1 l 1
 65 2 l 1
 67 2 l 1
 67 3 l 1
66 1 m 1
 65 1 l 1
 65 0 l 1
 66 0 l 1
 66 1 l 1
EndSplineSet
EndChar

StartChar: custom_1_1_0_7_1
Encoding: 23339 23339 3371
Width: 70
Flags: H
LayerCount: 2
Fore
SplineSet
31 43 m 1
 29 43 l 1
 29 41 l 1
 31 41 l 1
 31 43 l 1
31 39 m 1
 29 39 l 1
 29 37 l 1
 31 37 l 1
 31 39 l 1
31 35 m 1
 29 35 l 1
 29 33 l 1
 31 33 l 1
 31 35 l 1
36 37 m 1
 34 37 l 1
 34 35 l 1
 36 35 l 1
 36 37 l 1
31 31 m 1
 29 31 l 1
 29 29 l 1
 31 29 l 1
 31 31 l 1
36 33 m 1
 34 33 l 1
 34 31 l 1
 36 31 l 1
 36 33 l 1
31 27 m 1
 29 27 l 1
 29 25 l 1
 31 25 l 1
 31 27 l 1
49 43 m 1
 47 43 l 1
 47 41 l 1
 49 41 l 1
 49 43 l 1
49 39 m 1
 47 39 l 1
 47 37 l 1
 49 37 l 1
 49 39 l 1
49 35 m 1
 47 35 l 1
 47 33 l 1
 49 33 l 1
 49 35 l 1
49 31 m 1
 47 31 l 1
 47 29 l 1
 49 29 l 1
 49 31 l 1
63 43 m 1
 61 43 l 1
 61 41 l 1
 63 41 l 1
 63 43 l 1
63 39 m 1
 61 39 l 1
 61 37 l 1
 63 37 l 1
 63 39 l 1
63 35 m 1
 61 35 l 1
 61 33 l 1
 63 33 l 1
 63 35 l 1
63 31 m 1
 61 31 l 1
 61 29 l 1
 63 29 l 1
 63 31 l 1
49 27 m 1
 47 27 l 1
 47 25 l 1
 49 25 l 1
 49 27 l 1
63 27 m 1
 61 27 l 1
 61 25 l 1
 63 25 l 1
 63 27 l 1
9 2 m 1
 7 2 l 1
 7 1 l 1
 8 1 l 1
 8 -1 l 1
 9 -1 l 1
 9 2 l 1
7 1 m 1
 6 1 l 1
 6 0 l 1
 7 0 l 1
 7 1 l 1
65 3 m 1
 64 3 l 1
 64 1 l 1
 65 1 l 1
 65 2 l 1
 66 2 l 1
 66 4 l 1
 65 4 l 1
 65 3 l 1
67 2 m 1
 66 2 l 1
 66 1 l 1
 67 1 l 1
 67 2 l 1
EndSplineSet
EndChar

StartChar: custom_1_1_0_7_2
Encoding: 23340 23340 3372
Width: 70
Flags: H
LayerCount: 2
Fore
SplineSet
31 43 m 1
 29 43 l 1
 29 41 l 1
 31 41 l 1
 31 43 l 1
31 39 m 1
 29 39 l 1
 29 37 l 1
 31 37 l 1
 31 39 l 1
31 35 m 1
 29 35 l 1
 29 33 l 1
 31 33 l 1
 31 35 l 1
36 37 m 1
 34 37 l 1
 34 35 l 1
 36 35 l 1
 36 37 l 1
31 31 m 1
 29 31 l 1
 29 29 l 1
 31 29 l 1
 31 31 l 1
36 33 m 1
 34 33 l 1
 34 31 l 1
 36 31 l 1
 36 33 l 1
31 27 m 1
 29 27 l 1
 29 25 l 1
 31 25 l 1
 31 27 l 1
49 43 m 1
 47 43 l 1
 47 41 l 1
 49 41 l 1
 49 43 l 1
49 39 m 1
 47 39 l 1
 47 37 l 1
 49 37 l 1
 49 39 l 1
49 35 m 1
 47 35 l 1
 47 33 l 1
 49 33 l 1
 49 35 l 1
49 31 m 1
 47 31 l 1
 47 29 l 1
 49 29 l 1
 49 31 l 1
63 43 m 1
 61 43 l 1
 61 41 l 1
 63 41 l 1
 63 43 l 1
63 39 m 1
 61 39 l 1
 61 37 l 1
 63 37 l 1
 63 39 l 1
63 35 m 1
 61 35 l 1
 61 33 l 1
 63 33 l 1
 63 35 l 1
63 31 m 1
 61 31 l 1
 61 29 l 1
 63 29 l 1
 63 31 l 1
49 27 m 1
 47 27 l 1
 47 25 l 1
 49 25 l 1
 49 27 l 1
63 27 m 1
 61 27 l 1
 61 25 l 1
 63 25 l 1
 63 27 l 1
9 2 m 1
 7 2 l 1
 7 1 l 1
 8 1 l 1
 8 0 l 1
 10 0 l 1
 10 1 l 1
 9 1 l 1
 9 2 l 1
8 0 m 1
 7 0 l 1
 7 -1 l 1
 8 -1 l 1
 8 0 l 1
66 4 m 1
 64 4 l 1
 64 1 l 1
 65 1 l 1
 65 3 l 1
 66 3 l 1
 66 4 l 1
67 3 m 1
 66 3 l 1
 66 2 l 1
 67 2 l 1
 67 3 l 1
EndSplineSet
EndChar

StartChar: custom_1_1_0_7_3
Encoding: 23341 23341 3373
Width: 70
Flags: H
LayerCount: 2
Fore
SplineSet
31 43 m 1
 29 43 l 1
 29 41 l 1
 31 41 l 1
 31 43 l 1
31 39 m 1
 29 39 l 1
 29 37 l 1
 31 37 l 1
 31 39 l 1
31 35 m 1
 29 35 l 1
 29 33 l 1
 31 33 l 1
 31 35 l 1
36 37 m 1
 34 37 l 1
 34 35 l 1
 36 35 l 1
 36 37 l 1
31 31 m 1
 29 31 l 1
 29 29 l 1
 31 29 l 1
 31 31 l 1
36 33 m 1
 34 33 l 1
 34 31 l 1
 36 31 l 1
 36 33 l 1
31 27 m 1
 29 27 l 1
 29 25 l 1
 31 25 l 1
 31 27 l 1
49 43 m 1
 47 43 l 1
 47 41 l 1
 49 41 l 1
 49 43 l 1
49 39 m 1
 47 39 l 1
 47 37 l 1
 49 37 l 1
 49 39 l 1
49 35 m 1
 47 35 l 1
 47 33 l 1
 49 33 l 1
 49 35 l 1
49 31 m 1
 47 31 l 1
 47 29 l 1
 49 29 l 1
 49 31 l 1
63 43 m 1
 61 43 l 1
 61 41 l 1
 63 41 l 1
 63 43 l 1
63 39 m 1
 61 39 l 1
 61 37 l 1
 63 37 l 1
 63 39 l 1
63 35 m 1
 61 35 l 1
 61 33 l 1
 63 33 l 1
 63 35 l 1
63 31 m 1
 61 31 l 1
 61 29 l 1
 63 29 l 1
 63 31 l 1
49 27 m 1
 47 27 l 1
 47 25 l 1
 49 25 l 1
 49 27 l 1
63 27 m 1
 61 27 l 1
 61 25 l 1
 63 25 l 1
 63 27 l 1
10 2 m 1
 7 2 l 1
 7 1 l 1
 9 1 l 1
 9 0 l 1
 10 0 l 1
 10 2 l 1
9 0 m 1
 8 0 l 1
 8 -1 l 1
 9 -1 l 1
 9 0 l 1
66 4 m 1
 64 4 l 1
 64 3 l 1
 63 3 l 1
 63 2 l 1
 65 2 l 1
 65 3 l 1
 66 3 l 1
 66 4 l 1
66 2 m 1
 65 2 l 1
 65 1 l 1
 66 1 l 1
 66 2 l 1
EndSplineSet
EndChar

StartChar: custom_1_1_0_7_4
Encoding: 23342 23342 3374
Width: 70
Flags: H
LayerCount: 2
Fore
SplineSet
31 43 m 1
 29 43 l 1
 29 41 l 1
 31 41 l 1
 31 43 l 1
31 39 m 1
 29 39 l 1
 29 37 l 1
 31 37 l 1
 31 39 l 1
31 35 m 1
 29 35 l 1
 29 33 l 1
 31 33 l 1
 31 35 l 1
36 37 m 1
 34 37 l 1
 34 35 l 1
 36 35 l 1
 36 37 l 1
31 31 m 1
 29 31 l 1
 29 29 l 1
 31 29 l 1
 31 31 l 1
36 33 m 1
 34 33 l 1
 34 31 l 1
 36 31 l 1
 36 33 l 1
31 27 m 1
 29 27 l 1
 29 25 l 1
 31 25 l 1
 31 27 l 1
49 43 m 1
 47 43 l 1
 47 41 l 1
 49 41 l 1
 49 43 l 1
49 39 m 1
 47 39 l 1
 47 37 l 1
 49 37 l 1
 49 39 l 1
49 35 m 1
 47 35 l 1
 47 33 l 1
 49 33 l 1
 49 35 l 1
49 31 m 1
 47 31 l 1
 47 29 l 1
 49 29 l 1
 49 31 l 1
63 43 m 1
 61 43 l 1
 61 41 l 1
 63 41 l 1
 63 43 l 1
63 39 m 1
 61 39 l 1
 61 37 l 1
 63 37 l 1
 63 39 l 1
63 35 m 1
 61 35 l 1
 61 33 l 1
 63 33 l 1
 63 35 l 1
63 31 m 1
 61 31 l 1
 61 29 l 1
 63 29 l 1
 63 31 l 1
49 27 m 1
 47 27 l 1
 47 25 l 1
 49 25 l 1
 49 27 l 1
63 27 m 1
 61 27 l 1
 61 25 l 1
 63 25 l 1
 63 27 l 1
9 3 m 1
 8 3 l 1
 8 1 l 1
 9 1 l 1
 9 0 l 1
 10 0 l 1
 10 2 l 1
 9 2 l 1
 9 3 l 1
8 1 m 1
 7 1 l 1
 7 0 l 1
 8 0 l 1
 8 1 l 1
66 4 m 1
 63 4 l 1
 63 2 l 1
 64 2 l 1
 64 3 l 1
 66 3 l 1
 66 4 l 1
65 2 m 1
 64 2 l 1
 64 1 l 1
 65 1 l 1
 65 2 l 1
EndSplineSet
EndChar

StartChar: custom_1_1_0_7_5
Encoding: 23343 23343 3375
Width: 70
Flags: H
LayerCount: 2
Fore
SplineSet
31 43 m 1
 29 43 l 1
 29 41 l 1
 31 41 l 1
 31 43 l 1
31 39 m 1
 29 39 l 1
 29 37 l 1
 31 37 l 1
 31 39 l 1
31 35 m 1
 29 35 l 1
 29 33 l 1
 31 33 l 1
 31 35 l 1
36 37 m 1
 34 37 l 1
 34 35 l 1
 36 35 l 1
 36 37 l 1
31 31 m 1
 29 31 l 1
 29 29 l 1
 31 29 l 1
 31 31 l 1
36 33 m 1
 34 33 l 1
 34 31 l 1
 36 31 l 1
 36 33 l 1
31 27 m 1
 29 27 l 1
 29 25 l 1
 31 25 l 1
 31 27 l 1
49 43 m 1
 47 43 l 1
 47 41 l 1
 49 41 l 1
 49 43 l 1
49 39 m 1
 47 39 l 1
 47 37 l 1
 49 37 l 1
 49 39 l 1
49 35 m 1
 47 35 l 1
 47 33 l 1
 49 33 l 1
 49 35 l 1
49 31 m 1
 47 31 l 1
 47 29 l 1
 49 29 l 1
 49 31 l 1
63 43 m 1
 61 43 l 1
 61 41 l 1
 63 41 l 1
 63 43 l 1
63 39 m 1
 61 39 l 1
 61 37 l 1
 63 37 l 1
 63 39 l 1
63 35 m 1
 61 35 l 1
 61 33 l 1
 63 33 l 1
 63 35 l 1
63 31 m 1
 61 31 l 1
 61 29 l 1
 63 29 l 1
 63 31 l 1
49 27 m 1
 47 27 l 1
 47 25 l 1
 49 25 l 1
 49 27 l 1
63 27 m 1
 61 27 l 1
 61 25 l 1
 63 25 l 1
 63 27 l 1
10 3 m 1
 8 3 l 1
 8 2 l 1
 9 2 l 1
 9 0 l 1
 10 0 l 1
 10 3 l 1
8 2 m 1
 7 2 l 1
 7 1 l 1
 8 1 l 1
 8 2 l 1
65 5 m 1
 64 5 l 1
 64 4 l 1
 63 4 l 1
 63 2 l 1
 64 2 l 1
 64 3 l 1
 65 3 l 1
 65 5 l 1
66 3 m 1
 65 3 l 1
 65 2 l 1
 66 2 l 1
 66 3 l 1
EndSplineSet
EndChar

StartChar: custom_1_1_0_7_6
Encoding: 23344 23344 3376
Width: 70
Flags: H
LayerCount: 2
Fore
SplineSet
31 43 m 1
 29 43 l 1
 29 41 l 1
 31 41 l 1
 31 43 l 1
31 39 m 1
 29 39 l 1
 29 37 l 1
 31 37 l 1
 31 39 l 1
31 35 m 1
 29 35 l 1
 29 33 l 1
 31 33 l 1
 31 35 l 1
36 37 m 1
 34 37 l 1
 34 35 l 1
 36 35 l 1
 36 37 l 1
31 31 m 1
 29 31 l 1
 29 29 l 1
 31 29 l 1
 31 31 l 1
36 33 m 1
 34 33 l 1
 34 31 l 1
 36 31 l 1
 36 33 l 1
31 27 m 1
 29 27 l 1
 29 25 l 1
 31 25 l 1
 31 27 l 1
49 43 m 1
 47 43 l 1
 47 41 l 1
 49 41 l 1
 49 43 l 1
49 39 m 1
 47 39 l 1
 47 37 l 1
 49 37 l 1
 49 39 l 1
49 35 m 1
 47 35 l 1
 47 33 l 1
 49 33 l 1
 49 35 l 1
49 31 m 1
 47 31 l 1
 47 29 l 1
 49 29 l 1
 49 31 l 1
63 43 m 1
 61 43 l 1
 61 41 l 1
 63 41 l 1
 63 43 l 1
63 39 m 1
 61 39 l 1
 61 37 l 1
 63 37 l 1
 63 39 l 1
63 35 m 1
 61 35 l 1
 61 33 l 1
 63 33 l 1
 63 35 l 1
63 31 m 1
 61 31 l 1
 61 29 l 1
 63 29 l 1
 63 31 l 1
49 27 m 1
 47 27 l 1
 47 25 l 1
 49 25 l 1
 49 27 l 1
63 27 m 1
 61 27 l 1
 61 25 l 1
 63 25 l 1
 63 27 l 1
10 3 m 1
 8 3 l 1
 8 2 l 1
 9 2 l 1
 9 1 l 1
 11 1 l 1
 11 2 l 1
 10 2 l 1
 10 3 l 1
9 1 m 1
 8 1 l 1
 8 0 l 1
 9 0 l 1
 9 1 l 1
65 5 m 1
 63 5 l 1
 63 2 l 1
 64 2 l 1
 64 4 l 1
 65 4 l 1
 65 5 l 1
66 4 m 1
 65 4 l 1
 65 3 l 1
 66 3 l 1
 66 4 l 1
EndSplineSet
EndChar

StartChar: custom_1_1_0_7_7
Encoding: 23345 23345 3377
Width: 70
Flags: H
LayerCount: 2
Fore
SplineSet
31 43 m 1
 29 43 l 1
 29 41 l 1
 31 41 l 1
 31 43 l 1
31 39 m 1
 29 39 l 1
 29 37 l 1
 31 37 l 1
 31 39 l 1
31 35 m 1
 29 35 l 1
 29 33 l 1
 31 33 l 1
 31 35 l 1
36 37 m 1
 34 37 l 1
 34 35 l 1
 36 35 l 1
 36 37 l 1
31 31 m 1
 29 31 l 1
 29 29 l 1
 31 29 l 1
 31 31 l 1
36 33 m 1
 34 33 l 1
 34 31 l 1
 36 31 l 1
 36 33 l 1
31 27 m 1
 29 27 l 1
 29 25 l 1
 31 25 l 1
 31 27 l 1
49 43 m 1
 47 43 l 1
 47 41 l 1
 49 41 l 1
 49 43 l 1
49 39 m 1
 47 39 l 1
 47 37 l 1
 49 37 l 1
 49 39 l 1
49 35 m 1
 47 35 l 1
 47 33 l 1
 49 33 l 1
 49 35 l 1
49 31 m 1
 47 31 l 1
 47 29 l 1
 49 29 l 1
 49 31 l 1
63 43 m 1
 61 43 l 1
 61 41 l 1
 63 41 l 1
 63 43 l 1
63 39 m 1
 61 39 l 1
 61 37 l 1
 63 37 l 1
 63 39 l 1
63 35 m 1
 61 35 l 1
 61 33 l 1
 63 33 l 1
 63 35 l 1
63 31 m 1
 61 31 l 1
 61 29 l 1
 63 29 l 1
 63 31 l 1
49 27 m 1
 47 27 l 1
 47 25 l 1
 49 25 l 1
 49 27 l 1
63 27 m 1
 61 27 l 1
 61 25 l 1
 63 25 l 1
 63 27 l 1
11 3 m 1
 8 3 l 1
 8 2 l 1
 10 2 l 1
 10 1 l 1
 11 1 l 1
 11 3 l 1
10 1 m 1
 9 1 l 1
 9 0 l 1
 10 0 l 1
 10 1 l 1
63 4 m 1
 62 4 l 1
 62 3 l 1
 64 3 l 1
 64 4 l 1
 65 4 l 1
 65 5 l 1
 63 5 l 1
 63 4 l 1
65 3 m 1
 64 3 l 1
 64 2 l 1
 65 2 l 1
 65 3 l 1
EndSplineSet
EndChar

StartChar: custom_1_1_0_7_8
Encoding: 23346 23346 3378
Width: 70
Flags: H
LayerCount: 2
Fore
SplineSet
31 43 m 1
 29 43 l 1
 29 41 l 1
 31 41 l 1
 31 43 l 1
31 39 m 1
 29 39 l 1
 29 37 l 1
 31 37 l 1
 31 39 l 1
31 35 m 1
 29 35 l 1
 29 33 l 1
 31 33 l 1
 31 35 l 1
36 37 m 1
 34 37 l 1
 34 35 l 1
 36 35 l 1
 36 37 l 1
31 31 m 1
 29 31 l 1
 29 29 l 1
 31 29 l 1
 31 31 l 1
36 33 m 1
 34 33 l 1
 34 31 l 1
 36 31 l 1
 36 33 l 1
31 27 m 1
 29 27 l 1
 29 25 l 1
 31 25 l 1
 31 27 l 1
49 43 m 1
 47 43 l 1
 47 41 l 1
 49 41 l 1
 49 43 l 1
49 39 m 1
 47 39 l 1
 47 37 l 1
 49 37 l 1
 49 39 l 1
49 35 m 1
 47 35 l 1
 47 33 l 1
 49 33 l 1
 49 35 l 1
49 31 m 1
 47 31 l 1
 47 29 l 1
 49 29 l 1
 49 31 l 1
63 43 m 1
 61 43 l 1
 61 41 l 1
 63 41 l 1
 63 43 l 1
63 39 m 1
 61 39 l 1
 61 37 l 1
 63 37 l 1
 63 39 l 1
63 35 m 1
 61 35 l 1
 61 33 l 1
 63 33 l 1
 63 35 l 1
63 31 m 1
 61 31 l 1
 61 29 l 1
 63 29 l 1
 63 31 l 1
49 27 m 1
 47 27 l 1
 47 25 l 1
 49 25 l 1
 49 27 l 1
63 27 m 1
 61 27 l 1
 61 25 l 1
 63 25 l 1
 63 27 l 1
9 2 m 1
 8 2 l 1
 8 1 l 1
 9 1 l 1
 9 2 l 1
10 4 m 1
 9 4 l 1
 9 2 l 1
 10 2 l 1
 10 1 l 1
 11 1 l 1
 11 3 l 1
 10 3 l 1
 10 4 l 1
65 5 m 1
 62 5 l 1
 62 3 l 1
 63 3 l 1
 63 4 l 1
 65 4 l 1
 65 5 l 1
64 3 m 1
 63 3 l 1
 63 2 l 1
 64 2 l 1
 64 3 l 1
EndSplineSet
EndChar

StartChar: custom_1_1_0_7_9
Encoding: 23347 23347 3379
Width: 70
Flags: H
LayerCount: 2
Fore
SplineSet
31 43 m 1
 29 43 l 1
 29 41 l 1
 31 41 l 1
 31 43 l 1
31 39 m 1
 29 39 l 1
 29 37 l 1
 31 37 l 1
 31 39 l 1
31 35 m 1
 29 35 l 1
 29 33 l 1
 31 33 l 1
 31 35 l 1
36 37 m 1
 34 37 l 1
 34 35 l 1
 36 35 l 1
 36 37 l 1
31 31 m 1
 29 31 l 1
 29 29 l 1
 31 29 l 1
 31 31 l 1
36 33 m 1
 34 33 l 1
 34 31 l 1
 36 31 l 1
 36 33 l 1
31 27 m 1
 29 27 l 1
 29 25 l 1
 31 25 l 1
 31 27 l 1
49 43 m 1
 47 43 l 1
 47 41 l 1
 49 41 l 1
 49 43 l 1
49 39 m 1
 47 39 l 1
 47 37 l 1
 49 37 l 1
 49 39 l 1
49 35 m 1
 47 35 l 1
 47 33 l 1
 49 33 l 1
 49 35 l 1
49 31 m 1
 47 31 l 1
 47 29 l 1
 49 29 l 1
 49 31 l 1
63 43 m 1
 61 43 l 1
 61 41 l 1
 63 41 l 1
 63 43 l 1
63 39 m 1
 61 39 l 1
 61 37 l 1
 63 37 l 1
 63 39 l 1
63 35 m 1
 61 35 l 1
 61 33 l 1
 63 33 l 1
 63 35 l 1
63 31 m 1
 61 31 l 1
 61 29 l 1
 63 29 l 1
 63 31 l 1
49 27 m 1
 47 27 l 1
 47 25 l 1
 49 25 l 1
 49 27 l 1
63 27 m 1
 61 27 l 1
 61 25 l 1
 63 25 l 1
 63 27 l 1
9 3 m 1
 8 3 l 1
 8 2 l 1
 9 2 l 1
 9 3 l 1
11 4 m 1
 9 4 l 1
 9 3 l 1
 10 3 l 1
 10 1 l 1
 11 1 l 1
 11 4 l 1
64 6 m 1
 63 6 l 1
 63 5 l 1
 62 5 l 1
 62 3 l 1
 63 3 l 1
 63 4 l 1
 64 4 l 1
 64 6 l 1
65 4 m 1
 64 4 l 1
 64 3 l 1
 65 3 l 1
 65 4 l 1
EndSplineSet
EndChar

StartChar: custom_1_1_0_8_0
Encoding: 23348 23348 3380
Width: 70
Flags: H
LayerCount: 2
Fore
SplineSet
31 43 m 1
 29 43 l 1
 29 41 l 1
 31 41 l 1
 31 43 l 1
31 39 m 1
 29 39 l 1
 29 37 l 1
 31 37 l 1
 31 39 l 1
31 35 m 1
 29 35 l 1
 29 33 l 1
 31 33 l 1
 31 35 l 1
36 37 m 1
 34 37 l 1
 34 35 l 1
 36 35 l 1
 36 37 l 1
31 31 m 1
 29 31 l 1
 29 29 l 1
 31 29 l 1
 31 31 l 1
36 33 m 1
 34 33 l 1
 34 31 l 1
 36 31 l 1
 36 33 l 1
31 27 m 1
 29 27 l 1
 29 25 l 1
 31 25 l 1
 31 27 l 1
49 43 m 1
 47 43 l 1
 47 41 l 1
 49 41 l 1
 49 43 l 1
49 39 m 1
 47 39 l 1
 47 37 l 1
 49 37 l 1
 49 39 l 1
49 35 m 1
 47 35 l 1
 47 33 l 1
 49 33 l 1
 49 35 l 1
49 31 m 1
 47 31 l 1
 47 29 l 1
 49 29 l 1
 49 31 l 1
63 43 m 1
 61 43 l 1
 61 41 l 1
 63 41 l 1
 63 43 l 1
63 39 m 1
 61 39 l 1
 61 37 l 1
 63 37 l 1
 63 39 l 1
63 35 m 1
 61 35 l 1
 61 33 l 1
 63 33 l 1
 63 35 l 1
63 31 m 1
 61 31 l 1
 61 29 l 1
 63 29 l 1
 63 31 l 1
49 27 m 1
 47 27 l 1
 47 25 l 1
 49 25 l 1
 49 27 l 1
63 27 m 1
 61 27 l 1
 61 25 l 1
 63 25 l 1
 63 27 l 1
11 4 m 1
 9 4 l 1
 9 3 l 1
 10 3 l 1
 10 2 l 1
 12 2 l 1
 12 3 l 1
 11 3 l 1
 11 4 l 1
10 2 m 1
 9 2 l 1
 9 1 l 1
 10 1 l 1
 10 2 l 1
64 6 m 1
 62 6 l 1
 62 3 l 1
 63 3 l 1
 63 5 l 1
 64 5 l 1
 64 6 l 1
65 5 m 1
 64 5 l 1
 64 4 l 1
 65 4 l 1
 65 5 l 1
EndSplineSet
EndChar

StartChar: custom_1_1_0_8_1
Encoding: 23349 23349 3381
Width: 70
Flags: H
LayerCount: 2
Fore
SplineSet
31 43 m 1
 29 43 l 1
 29 41 l 1
 31 41 l 1
 31 43 l 1
31 39 m 1
 29 39 l 1
 29 37 l 1
 31 37 l 1
 31 39 l 1
31 35 m 1
 29 35 l 1
 29 33 l 1
 31 33 l 1
 31 35 l 1
36 37 m 1
 34 37 l 1
 34 35 l 1
 36 35 l 1
 36 37 l 1
31 31 m 1
 29 31 l 1
 29 29 l 1
 31 29 l 1
 31 31 l 1
36 33 m 1
 34 33 l 1
 34 31 l 1
 36 31 l 1
 36 33 l 1
31 27 m 1
 29 27 l 1
 29 25 l 1
 31 25 l 1
 31 27 l 1
49 43 m 1
 47 43 l 1
 47 41 l 1
 49 41 l 1
 49 43 l 1
49 39 m 1
 47 39 l 1
 47 37 l 1
 49 37 l 1
 49 39 l 1
49 35 m 1
 47 35 l 1
 47 33 l 1
 49 33 l 1
 49 35 l 1
49 31 m 1
 47 31 l 1
 47 29 l 1
 49 29 l 1
 49 31 l 1
63 43 m 1
 61 43 l 1
 61 41 l 1
 63 41 l 1
 63 43 l 1
63 39 m 1
 61 39 l 1
 61 37 l 1
 63 37 l 1
 63 39 l 1
63 35 m 1
 61 35 l 1
 61 33 l 1
 63 33 l 1
 63 35 l 1
63 31 m 1
 61 31 l 1
 61 29 l 1
 63 29 l 1
 63 31 l 1
49 27 m 1
 47 27 l 1
 47 25 l 1
 49 25 l 1
 49 27 l 1
63 27 m 1
 61 27 l 1
 61 25 l 1
 63 25 l 1
 63 27 l 1
12 4 m 1
 9 4 l 1
 9 3 l 1
 11 3 l 1
 11 2 l 1
 12 2 l 1
 12 4 l 1
11 2 m 1
 10 2 l 1
 10 1 l 1
 11 1 l 1
 11 2 l 1
64 6 m 1
 62 6 l 1
 62 5 l 1
 61 5 l 1
 61 4 l 1
 63 4 l 1
 63 5 l 1
 64 5 l 1
 64 6 l 1
64 4 m 1
 63 4 l 1
 63 3 l 1
 64 3 l 1
 64 4 l 1
EndSplineSet
EndChar

StartChar: custom_1_1_0_8_2
Encoding: 23350 23350 3382
Width: 70
Flags: H
LayerCount: 2
Fore
SplineSet
31 43 m 1
 29 43 l 1
 29 41 l 1
 31 41 l 1
 31 43 l 1
31 39 m 1
 29 39 l 1
 29 37 l 1
 31 37 l 1
 31 39 l 1
31 35 m 1
 29 35 l 1
 29 33 l 1
 31 33 l 1
 31 35 l 1
36 37 m 1
 34 37 l 1
 34 35 l 1
 36 35 l 1
 36 37 l 1
31 31 m 1
 29 31 l 1
 29 29 l 1
 31 29 l 1
 31 31 l 1
36 33 m 1
 34 33 l 1
 34 31 l 1
 36 31 l 1
 36 33 l 1
31 27 m 1
 29 27 l 1
 29 25 l 1
 31 25 l 1
 31 27 l 1
49 43 m 1
 47 43 l 1
 47 41 l 1
 49 41 l 1
 49 43 l 1
49 39 m 1
 47 39 l 1
 47 37 l 1
 49 37 l 1
 49 39 l 1
49 35 m 1
 47 35 l 1
 47 33 l 1
 49 33 l 1
 49 35 l 1
49 31 m 1
 47 31 l 1
 47 29 l 1
 49 29 l 1
 49 31 l 1
63 43 m 1
 61 43 l 1
 61 41 l 1
 63 41 l 1
 63 43 l 1
63 39 m 1
 61 39 l 1
 61 37 l 1
 63 37 l 1
 63 39 l 1
63 35 m 1
 61 35 l 1
 61 33 l 1
 63 33 l 1
 63 35 l 1
63 31 m 1
 61 31 l 1
 61 29 l 1
 63 29 l 1
 63 31 l 1
49 27 m 1
 47 27 l 1
 47 25 l 1
 49 25 l 1
 49 27 l 1
63 27 m 1
 61 27 l 1
 61 25 l 1
 63 25 l 1
 63 27 l 1
11 5 m 1
 10 5 l 1
 10 3 l 1
 11 3 l 1
 11 2 l 1
 12 2 l 1
 12 4 l 1
 11 4 l 1
 11 5 l 1
10 3 m 1
 9 3 l 1
 9 2 l 1
 10 2 l 1
 10 3 l 1
64 6 m 1
 61 6 l 1
 61 4 l 1
 62 4 l 1
 62 5 l 1
 64 5 l 1
 64 6 l 1
63 4 m 1
 62 4 l 1
 62 3 l 1
 63 3 l 1
 63 4 l 1
EndSplineSet
EndChar

StartChar: custom_1_1_0_8_3
Encoding: 23351 23351 3383
Width: 70
Flags: H
LayerCount: 2
Fore
SplineSet
31 43 m 1
 29 43 l 1
 29 41 l 1
 31 41 l 1
 31 43 l 1
31 39 m 1
 29 39 l 1
 29 37 l 1
 31 37 l 1
 31 39 l 1
31 35 m 1
 29 35 l 1
 29 33 l 1
 31 33 l 1
 31 35 l 1
36 37 m 1
 34 37 l 1
 34 35 l 1
 36 35 l 1
 36 37 l 1
31 31 m 1
 29 31 l 1
 29 29 l 1
 31 29 l 1
 31 31 l 1
36 33 m 1
 34 33 l 1
 34 31 l 1
 36 31 l 1
 36 33 l 1
31 27 m 1
 29 27 l 1
 29 25 l 1
 31 25 l 1
 31 27 l 1
49 43 m 1
 47 43 l 1
 47 41 l 1
 49 41 l 1
 49 43 l 1
49 39 m 1
 47 39 l 1
 47 37 l 1
 49 37 l 1
 49 39 l 1
49 35 m 1
 47 35 l 1
 47 33 l 1
 49 33 l 1
 49 35 l 1
49 31 m 1
 47 31 l 1
 47 29 l 1
 49 29 l 1
 49 31 l 1
63 43 m 1
 61 43 l 1
 61 41 l 1
 63 41 l 1
 63 43 l 1
63 39 m 1
 61 39 l 1
 61 37 l 1
 63 37 l 1
 63 39 l 1
63 35 m 1
 61 35 l 1
 61 33 l 1
 63 33 l 1
 63 35 l 1
63 31 m 1
 61 31 l 1
 61 29 l 1
 63 29 l 1
 63 31 l 1
49 27 m 1
 47 27 l 1
 47 25 l 1
 49 25 l 1
 49 27 l 1
63 27 m 1
 61 27 l 1
 61 25 l 1
 63 25 l 1
 63 27 l 1
12 5 m 1
 10 5 l 1
 10 4 l 1
 11 4 l 1
 11 2 l 1
 12 2 l 1
 12 5 l 1
10 4 m 1
 9 4 l 1
 9 3 l 1
 10 3 l 1
 10 4 l 1
63 7 m 1
 62 7 l 1
 62 6 l 1
 61 6 l 1
 61 4 l 1
 62 4 l 1
 62 5 l 1
 63 5 l 1
 63 7 l 1
64 5 m 1
 63 5 l 1
 63 4 l 1
 64 4 l 1
 64 5 l 1
EndSplineSet
EndChar

StartChar: custom_1_1_0_8_4
Encoding: 23352 23352 3384
Width: 70
Flags: H
LayerCount: 2
Fore
SplineSet
31 43 m 1
 29 43 l 1
 29 41 l 1
 31 41 l 1
 31 43 l 1
31 39 m 1
 29 39 l 1
 29 37 l 1
 31 37 l 1
 31 39 l 1
31 35 m 1
 29 35 l 1
 29 33 l 1
 31 33 l 1
 31 35 l 1
36 37 m 1
 34 37 l 1
 34 35 l 1
 36 35 l 1
 36 37 l 1
31 31 m 1
 29 31 l 1
 29 29 l 1
 31 29 l 1
 31 31 l 1
36 33 m 1
 34 33 l 1
 34 31 l 1
 36 31 l 1
 36 33 l 1
31 27 m 1
 29 27 l 1
 29 25 l 1
 31 25 l 1
 31 27 l 1
49 43 m 1
 47 43 l 1
 47 41 l 1
 49 41 l 1
 49 43 l 1
49 39 m 1
 47 39 l 1
 47 37 l 1
 49 37 l 1
 49 39 l 1
49 35 m 1
 47 35 l 1
 47 33 l 1
 49 33 l 1
 49 35 l 1
49 31 m 1
 47 31 l 1
 47 29 l 1
 49 29 l 1
 49 31 l 1
63 43 m 1
 61 43 l 1
 61 41 l 1
 63 41 l 1
 63 43 l 1
63 39 m 1
 61 39 l 1
 61 37 l 1
 63 37 l 1
 63 39 l 1
63 35 m 1
 61 35 l 1
 61 33 l 1
 63 33 l 1
 63 35 l 1
63 31 m 1
 61 31 l 1
 61 29 l 1
 63 29 l 1
 63 31 l 1
49 27 m 1
 47 27 l 1
 47 25 l 1
 49 25 l 1
 49 27 l 1
63 27 m 1
 61 27 l 1
 61 25 l 1
 63 25 l 1
 63 27 l 1
12 5 m 1
 10 5 l 1
 10 4 l 1
 11 4 l 1
 11 3 l 1
 13 3 l 1
 13 4 l 1
 12 4 l 1
 12 5 l 1
11 3 m 1
 10 3 l 1
 10 2 l 1
 11 2 l 1
 11 3 l 1
63 7 m 1
 61 7 l 1
 61 4 l 1
 62 4 l 1
 62 6 l 1
 63 6 l 1
 63 7 l 1
64 6 m 1
 63 6 l 1
 63 5 l 1
 64 5 l 1
 64 6 l 1
EndSplineSet
EndChar

StartChar: custom_1_1_0_8_5
Encoding: 23353 23353 3385
Width: 70
Flags: H
LayerCount: 2
Fore
SplineSet
31 43 m 1
 29 43 l 1
 29 41 l 1
 31 41 l 1
 31 43 l 1
31 39 m 1
 29 39 l 1
 29 37 l 1
 31 37 l 1
 31 39 l 1
31 35 m 1
 29 35 l 1
 29 33 l 1
 31 33 l 1
 31 35 l 1
36 37 m 1
 34 37 l 1
 34 35 l 1
 36 35 l 1
 36 37 l 1
31 31 m 1
 29 31 l 1
 29 29 l 1
 31 29 l 1
 31 31 l 1
36 33 m 1
 34 33 l 1
 34 31 l 1
 36 31 l 1
 36 33 l 1
31 27 m 1
 29 27 l 1
 29 25 l 1
 31 25 l 1
 31 27 l 1
49 43 m 1
 47 43 l 1
 47 41 l 1
 49 41 l 1
 49 43 l 1
49 39 m 1
 47 39 l 1
 47 37 l 1
 49 37 l 1
 49 39 l 1
49 35 m 1
 47 35 l 1
 47 33 l 1
 49 33 l 1
 49 35 l 1
49 31 m 1
 47 31 l 1
 47 29 l 1
 49 29 l 1
 49 31 l 1
63 43 m 1
 61 43 l 1
 61 41 l 1
 63 41 l 1
 63 43 l 1
63 39 m 1
 61 39 l 1
 61 37 l 1
 63 37 l 1
 63 39 l 1
63 35 m 1
 61 35 l 1
 61 33 l 1
 63 33 l 1
 63 35 l 1
63 31 m 1
 61 31 l 1
 61 29 l 1
 63 29 l 1
 63 31 l 1
49 27 m 1
 47 27 l 1
 47 25 l 1
 49 25 l 1
 49 27 l 1
63 27 m 1
 61 27 l 1
 61 25 l 1
 63 25 l 1
 63 27 l 1
13 5 m 1
 10 5 l 1
 10 4 l 1
 12 4 l 1
 12 3 l 1
 13 3 l 1
 13 5 l 1
12 3 m 1
 11 3 l 1
 11 2 l 1
 12 2 l 1
 12 3 l 1
61 6 m 1
 60 6 l 1
 60 5 l 1
 62 5 l 1
 62 6 l 1
 63 6 l 1
 63 7 l 1
 61 7 l 1
 61 6 l 1
63 5 m 1
 62 5 l 1
 62 4 l 1
 63 4 l 1
 63 5 l 1
EndSplineSet
EndChar

StartChar: custom_1_1_0_8_6
Encoding: 23354 23354 3386
Width: 70
Flags: H
LayerCount: 2
Fore
SplineSet
31 43 m 1
 29 43 l 1
 29 41 l 1
 31 41 l 1
 31 43 l 1
31 39 m 1
 29 39 l 1
 29 37 l 1
 31 37 l 1
 31 39 l 1
31 35 m 1
 29 35 l 1
 29 33 l 1
 31 33 l 1
 31 35 l 1
36 37 m 1
 34 37 l 1
 34 35 l 1
 36 35 l 1
 36 37 l 1
31 31 m 1
 29 31 l 1
 29 29 l 1
 31 29 l 1
 31 31 l 1
36 33 m 1
 34 33 l 1
 34 31 l 1
 36 31 l 1
 36 33 l 1
31 27 m 1
 29 27 l 1
 29 25 l 1
 31 25 l 1
 31 27 l 1
49 43 m 1
 47 43 l 1
 47 41 l 1
 49 41 l 1
 49 43 l 1
49 39 m 1
 47 39 l 1
 47 37 l 1
 49 37 l 1
 49 39 l 1
49 35 m 1
 47 35 l 1
 47 33 l 1
 49 33 l 1
 49 35 l 1
49 31 m 1
 47 31 l 1
 47 29 l 1
 49 29 l 1
 49 31 l 1
63 43 m 1
 61 43 l 1
 61 41 l 1
 63 41 l 1
 63 43 l 1
63 39 m 1
 61 39 l 1
 61 37 l 1
 63 37 l 1
 63 39 l 1
63 35 m 1
 61 35 l 1
 61 33 l 1
 63 33 l 1
 63 35 l 1
63 31 m 1
 61 31 l 1
 61 29 l 1
 63 29 l 1
 63 31 l 1
49 27 m 1
 47 27 l 1
 47 25 l 1
 49 25 l 1
 49 27 l 1
63 27 m 1
 61 27 l 1
 61 25 l 1
 63 25 l 1
 63 27 l 1
12 6 m 1
 11 6 l 1
 11 4 l 1
 12 4 l 1
 12 3 l 1
 13 3 l 1
 13 5 l 1
 12 5 l 1
 12 6 l 1
11 4 m 1
 10 4 l 1
 10 3 l 1
 11 3 l 1
 11 4 l 1
63 7 m 1
 60 7 l 1
 60 5 l 1
 61 5 l 1
 61 6 l 1
 63 6 l 1
 63 7 l 1
62 5 m 1
 61 5 l 1
 61 4 l 1
 62 4 l 1
 62 5 l 1
EndSplineSet
EndChar

StartChar: custom_1_1_0_8_7
Encoding: 23355 23355 3387
Width: 70
Flags: H
LayerCount: 2
Fore
SplineSet
31 43 m 1
 29 43 l 1
 29 41 l 1
 31 41 l 1
 31 43 l 1
31 39 m 1
 29 39 l 1
 29 37 l 1
 31 37 l 1
 31 39 l 1
31 35 m 1
 29 35 l 1
 29 33 l 1
 31 33 l 1
 31 35 l 1
36 37 m 1
 34 37 l 1
 34 35 l 1
 36 35 l 1
 36 37 l 1
31 31 m 1
 29 31 l 1
 29 29 l 1
 31 29 l 1
 31 31 l 1
36 33 m 1
 34 33 l 1
 34 31 l 1
 36 31 l 1
 36 33 l 1
31 27 m 1
 29 27 l 1
 29 25 l 1
 31 25 l 1
 31 27 l 1
49 43 m 1
 47 43 l 1
 47 41 l 1
 49 41 l 1
 49 43 l 1
49 39 m 1
 47 39 l 1
 47 37 l 1
 49 37 l 1
 49 39 l 1
49 35 m 1
 47 35 l 1
 47 33 l 1
 49 33 l 1
 49 35 l 1
49 31 m 1
 47 31 l 1
 47 29 l 1
 49 29 l 1
 49 31 l 1
63 43 m 1
 61 43 l 1
 61 41 l 1
 63 41 l 1
 63 43 l 1
63 39 m 1
 61 39 l 1
 61 37 l 1
 63 37 l 1
 63 39 l 1
63 35 m 1
 61 35 l 1
 61 33 l 1
 63 33 l 1
 63 35 l 1
63 31 m 1
 61 31 l 1
 61 29 l 1
 63 29 l 1
 63 31 l 1
49 27 m 1
 47 27 l 1
 47 25 l 1
 49 25 l 1
 49 27 l 1
63 27 m 1
 61 27 l 1
 61 25 l 1
 63 25 l 1
 63 27 l 1
13 6 m 1
 11 6 l 1
 11 5 l 1
 12 5 l 1
 12 3 l 1
 13 3 l 1
 13 6 l 1
11 5 m 1
 10 5 l 1
 10 4 l 1
 11 4 l 1
 11 5 l 1
61 7 m 1
 60 7 l 1
 60 5 l 1
 61 5 l 1
 61 6 l 1
 62 6 l 1
 62 8 l 1
 61 8 l 1
 61 7 l 1
63 6 m 1
 62 6 l 1
 62 5 l 1
 63 5 l 1
 63 6 l 1
EndSplineSet
EndChar

StartChar: custom_1_1_0_8_8
Encoding: 23356 23356 3388
Width: 70
Flags: H
LayerCount: 2
Fore
SplineSet
31 43 m 1
 29 43 l 1
 29 41 l 1
 31 41 l 1
 31 43 l 1
31 39 m 1
 29 39 l 1
 29 37 l 1
 31 37 l 1
 31 39 l 1
31 35 m 1
 29 35 l 1
 29 33 l 1
 31 33 l 1
 31 35 l 1
36 37 m 1
 34 37 l 1
 34 35 l 1
 36 35 l 1
 36 37 l 1
31 31 m 1
 29 31 l 1
 29 29 l 1
 31 29 l 1
 31 31 l 1
36 33 m 1
 34 33 l 1
 34 31 l 1
 36 31 l 1
 36 33 l 1
31 27 m 1
 29 27 l 1
 29 25 l 1
 31 25 l 1
 31 27 l 1
49 43 m 1
 47 43 l 1
 47 41 l 1
 49 41 l 1
 49 43 l 1
49 39 m 1
 47 39 l 1
 47 37 l 1
 49 37 l 1
 49 39 l 1
49 35 m 1
 47 35 l 1
 47 33 l 1
 49 33 l 1
 49 35 l 1
49 31 m 1
 47 31 l 1
 47 29 l 1
 49 29 l 1
 49 31 l 1
63 43 m 1
 61 43 l 1
 61 41 l 1
 63 41 l 1
 63 43 l 1
63 39 m 1
 61 39 l 1
 61 37 l 1
 63 37 l 1
 63 39 l 1
63 35 m 1
 61 35 l 1
 61 33 l 1
 63 33 l 1
 63 35 l 1
63 31 m 1
 61 31 l 1
 61 29 l 1
 63 29 l 1
 63 31 l 1
49 27 m 1
 47 27 l 1
 47 25 l 1
 49 25 l 1
 49 27 l 1
63 27 m 1
 61 27 l 1
 61 25 l 1
 63 25 l 1
 63 27 l 1
13 6 m 1
 11 6 l 1
 11 5 l 1
 12 5 l 1
 12 4 l 1
 14 4 l 1
 14 5 l 1
 13 5 l 1
 13 6 l 1
12 4 m 1
 11 4 l 1
 11 3 l 1
 12 3 l 1
 12 4 l 1
62 8 m 1
 60 8 l 1
 60 5 l 1
 61 5 l 1
 61 7 l 1
 62 7 l 1
 62 8 l 1
63 7 m 1
 62 7 l 1
 62 6 l 1
 63 6 l 1
 63 7 l 1
EndSplineSet
EndChar

StartChar: custom_1_1_0_8_9
Encoding: 23357 23357 3389
Width: 70
Flags: H
LayerCount: 2
Fore
SplineSet
31 43 m 1
 29 43 l 1
 29 41 l 1
 31 41 l 1
 31 43 l 1
31 39 m 1
 29 39 l 1
 29 37 l 1
 31 37 l 1
 31 39 l 1
31 35 m 1
 29 35 l 1
 29 33 l 1
 31 33 l 1
 31 35 l 1
36 37 m 1
 34 37 l 1
 34 35 l 1
 36 35 l 1
 36 37 l 1
31 31 m 1
 29 31 l 1
 29 29 l 1
 31 29 l 1
 31 31 l 1
36 33 m 1
 34 33 l 1
 34 31 l 1
 36 31 l 1
 36 33 l 1
31 27 m 1
 29 27 l 1
 29 25 l 1
 31 25 l 1
 31 27 l 1
49 43 m 1
 47 43 l 1
 47 41 l 1
 49 41 l 1
 49 43 l 1
49 39 m 1
 47 39 l 1
 47 37 l 1
 49 37 l 1
 49 39 l 1
49 35 m 1
 47 35 l 1
 47 33 l 1
 49 33 l 1
 49 35 l 1
49 31 m 1
 47 31 l 1
 47 29 l 1
 49 29 l 1
 49 31 l 1
63 43 m 1
 61 43 l 1
 61 41 l 1
 63 41 l 1
 63 43 l 1
63 39 m 1
 61 39 l 1
 61 37 l 1
 63 37 l 1
 63 39 l 1
63 35 m 1
 61 35 l 1
 61 33 l 1
 63 33 l 1
 63 35 l 1
63 31 m 1
 61 31 l 1
 61 29 l 1
 63 29 l 1
 63 31 l 1
49 27 m 1
 47 27 l 1
 47 25 l 1
 49 25 l 1
 49 27 l 1
63 27 m 1
 61 27 l 1
 61 25 l 1
 63 25 l 1
 63 27 l 1
14 6 m 1
 11 6 l 1
 11 5 l 1
 13 5 l 1
 13 4 l 1
 14 4 l 1
 14 6 l 1
13 4 m 1
 12 4 l 1
 12 3 l 1
 13 3 l 1
 13 4 l 1
62 8 m 1
 60 8 l 1
 60 7 l 1
 59 7 l 1
 59 6 l 1
 61 6 l 1
 61 7 l 1
 62 7 l 1
 62 8 l 1
62 6 m 1
 61 6 l 1
 61 5 l 1
 62 5 l 1
 62 6 l 1
EndSplineSet
EndChar

StartChar: custom_1_1_0_9_0
Encoding: 23358 23358 3390
Width: 70
Flags: H
LayerCount: 2
Fore
SplineSet
31 43 m 1
 29 43 l 1
 29 41 l 1
 31 41 l 1
 31 43 l 1
31 39 m 1
 29 39 l 1
 29 37 l 1
 31 37 l 1
 31 39 l 1
31 35 m 1
 29 35 l 1
 29 33 l 1
 31 33 l 1
 31 35 l 1
36 37 m 1
 34 37 l 1
 34 35 l 1
 36 35 l 1
 36 37 l 1
31 31 m 1
 29 31 l 1
 29 29 l 1
 31 29 l 1
 31 31 l 1
36 33 m 1
 34 33 l 1
 34 31 l 1
 36 31 l 1
 36 33 l 1
31 27 m 1
 29 27 l 1
 29 25 l 1
 31 25 l 1
 31 27 l 1
49 43 m 1
 47 43 l 1
 47 41 l 1
 49 41 l 1
 49 43 l 1
49 39 m 1
 47 39 l 1
 47 37 l 1
 49 37 l 1
 49 39 l 1
49 35 m 1
 47 35 l 1
 47 33 l 1
 49 33 l 1
 49 35 l 1
49 31 m 1
 47 31 l 1
 47 29 l 1
 49 29 l 1
 49 31 l 1
63 43 m 1
 61 43 l 1
 61 41 l 1
 63 41 l 1
 63 43 l 1
63 39 m 1
 61 39 l 1
 61 37 l 1
 63 37 l 1
 63 39 l 1
63 35 m 1
 61 35 l 1
 61 33 l 1
 63 33 l 1
 63 35 l 1
63 31 m 1
 61 31 l 1
 61 29 l 1
 63 29 l 1
 63 31 l 1
49 27 m 1
 47 27 l 1
 47 25 l 1
 49 25 l 1
 49 27 l 1
63 27 m 1
 61 27 l 1
 61 25 l 1
 63 25 l 1
 63 27 l 1
13 7 m 1
 12 7 l 1
 12 5 l 1
 13 5 l 1
 13 4 l 1
 14 4 l 1
 14 6 l 1
 13 6 l 1
 13 7 l 1
12 5 m 1
 11 5 l 1
 11 4 l 1
 12 4 l 1
 12 5 l 1
62 8 m 1
 59 8 l 1
 59 6 l 1
 60 6 l 1
 60 7 l 1
 62 7 l 1
 62 8 l 1
61 6 m 1
 60 6 l 1
 60 5 l 1
 61 5 l 1
 61 6 l 1
EndSplineSet
EndChar

StartChar: custom_1_1_0_9_1
Encoding: 23359 23359 3391
Width: 70
Flags: H
LayerCount: 2
Fore
SplineSet
31 43 m 1
 29 43 l 1
 29 41 l 1
 31 41 l 1
 31 43 l 1
31 39 m 1
 29 39 l 1
 29 37 l 1
 31 37 l 1
 31 39 l 1
31 35 m 1
 29 35 l 1
 29 33 l 1
 31 33 l 1
 31 35 l 1
36 37 m 1
 34 37 l 1
 34 35 l 1
 36 35 l 1
 36 37 l 1
31 31 m 1
 29 31 l 1
 29 29 l 1
 31 29 l 1
 31 31 l 1
36 33 m 1
 34 33 l 1
 34 31 l 1
 36 31 l 1
 36 33 l 1
31 27 m 1
 29 27 l 1
 29 25 l 1
 31 25 l 1
 31 27 l 1
49 43 m 1
 47 43 l 1
 47 41 l 1
 49 41 l 1
 49 43 l 1
49 39 m 1
 47 39 l 1
 47 37 l 1
 49 37 l 1
 49 39 l 1
49 35 m 1
 47 35 l 1
 47 33 l 1
 49 33 l 1
 49 35 l 1
49 31 m 1
 47 31 l 1
 47 29 l 1
 49 29 l 1
 49 31 l 1
63 43 m 1
 61 43 l 1
 61 41 l 1
 63 41 l 1
 63 43 l 1
63 39 m 1
 61 39 l 1
 61 37 l 1
 63 37 l 1
 63 39 l 1
63 35 m 1
 61 35 l 1
 61 33 l 1
 63 33 l 1
 63 35 l 1
63 31 m 1
 61 31 l 1
 61 29 l 1
 63 29 l 1
 63 31 l 1
49 27 m 1
 47 27 l 1
 47 25 l 1
 49 25 l 1
 49 27 l 1
63 27 m 1
 61 27 l 1
 61 25 l 1
 63 25 l 1
 63 27 l 1
14 7 m 1
 12 7 l 1
 12 6 l 1
 13 6 l 1
 13 4 l 1
 14 4 l 1
 14 7 l 1
12 6 m 1
 11 6 l 1
 11 5 l 1
 12 5 l 1
 12 6 l 1
61 9 m 1
 60 9 l 1
 60 8 l 1
 59 8 l 1
 59 6 l 1
 60 6 l 1
 60 7 l 1
 61 7 l 1
 61 9 l 1
62 7 m 1
 61 7 l 1
 61 6 l 1
 62 6 l 1
 62 7 l 1
EndSplineSet
EndChar

StartChar: custom_1_1_0_9_2
Encoding: 23360 23360 3392
Width: 70
Flags: H
LayerCount: 2
Fore
SplineSet
31 43 m 1
 29 43 l 1
 29 41 l 1
 31 41 l 1
 31 43 l 1
31 39 m 1
 29 39 l 1
 29 37 l 1
 31 37 l 1
 31 39 l 1
31 35 m 1
 29 35 l 1
 29 33 l 1
 31 33 l 1
 31 35 l 1
36 37 m 1
 34 37 l 1
 34 35 l 1
 36 35 l 1
 36 37 l 1
31 31 m 1
 29 31 l 1
 29 29 l 1
 31 29 l 1
 31 31 l 1
36 33 m 1
 34 33 l 1
 34 31 l 1
 36 31 l 1
 36 33 l 1
31 27 m 1
 29 27 l 1
 29 25 l 1
 31 25 l 1
 31 27 l 1
49 43 m 1
 47 43 l 1
 47 41 l 1
 49 41 l 1
 49 43 l 1
49 39 m 1
 47 39 l 1
 47 37 l 1
 49 37 l 1
 49 39 l 1
49 35 m 1
 47 35 l 1
 47 33 l 1
 49 33 l 1
 49 35 l 1
49 31 m 1
 47 31 l 1
 47 29 l 1
 49 29 l 1
 49 31 l 1
63 43 m 1
 61 43 l 1
 61 41 l 1
 63 41 l 1
 63 43 l 1
63 39 m 1
 61 39 l 1
 61 37 l 1
 63 37 l 1
 63 39 l 1
63 35 m 1
 61 35 l 1
 61 33 l 1
 63 33 l 1
 63 35 l 1
63 31 m 1
 61 31 l 1
 61 29 l 1
 63 29 l 1
 63 31 l 1
49 27 m 1
 47 27 l 1
 47 25 l 1
 49 25 l 1
 49 27 l 1
63 27 m 1
 61 27 l 1
 61 25 l 1
 63 25 l 1
 63 27 l 1
14 7 m 1
 12 7 l 1
 12 6 l 1
 13 6 l 1
 13 5 l 1
 15 5 l 1
 15 6 l 1
 14 6 l 1
 14 7 l 1
13 5 m 1
 12 5 l 1
 12 4 l 1
 13 4 l 1
 13 5 l 1
61 9 m 1
 59 9 l 1
 59 6 l 1
 60 6 l 1
 60 8 l 1
 61 8 l 1
 61 9 l 1
62 8 m 1
 61 8 l 1
 61 7 l 1
 62 7 l 1
 62 8 l 1
EndSplineSet
EndChar

StartChar: custom_1_1_0_9_3
Encoding: 23361 23361 3393
Width: 70
Flags: H
LayerCount: 2
Fore
SplineSet
31 43 m 1
 29 43 l 1
 29 41 l 1
 31 41 l 1
 31 43 l 1
31 39 m 1
 29 39 l 1
 29 37 l 1
 31 37 l 1
 31 39 l 1
31 35 m 1
 29 35 l 1
 29 33 l 1
 31 33 l 1
 31 35 l 1
36 37 m 1
 34 37 l 1
 34 35 l 1
 36 35 l 1
 36 37 l 1
31 31 m 1
 29 31 l 1
 29 29 l 1
 31 29 l 1
 31 31 l 1
36 33 m 1
 34 33 l 1
 34 31 l 1
 36 31 l 1
 36 33 l 1
31 27 m 1
 29 27 l 1
 29 25 l 1
 31 25 l 1
 31 27 l 1
49 43 m 1
 47 43 l 1
 47 41 l 1
 49 41 l 1
 49 43 l 1
49 39 m 1
 47 39 l 1
 47 37 l 1
 49 37 l 1
 49 39 l 1
49 35 m 1
 47 35 l 1
 47 33 l 1
 49 33 l 1
 49 35 l 1
49 31 m 1
 47 31 l 1
 47 29 l 1
 49 29 l 1
 49 31 l 1
63 43 m 1
 61 43 l 1
 61 41 l 1
 63 41 l 1
 63 43 l 1
63 39 m 1
 61 39 l 1
 61 37 l 1
 63 37 l 1
 63 39 l 1
63 35 m 1
 61 35 l 1
 61 33 l 1
 63 33 l 1
 63 35 l 1
63 31 m 1
 61 31 l 1
 61 29 l 1
 63 29 l 1
 63 31 l 1
49 27 m 1
 47 27 l 1
 47 25 l 1
 49 25 l 1
 49 27 l 1
63 27 m 1
 61 27 l 1
 61 25 l 1
 63 25 l 1
 63 27 l 1
15 7 m 1
 12 7 l 1
 12 6 l 1
 14 6 l 1
 14 5 l 1
 15 5 l 1
 15 7 l 1
14 5 m 1
 13 5 l 1
 13 4 l 1
 14 4 l 1
 14 5 l 1
59 8 m 1
 58 8 l 1
 58 7 l 1
 60 7 l 1
 60 8 l 1
 61 8 l 1
 61 9 l 1
 59 9 l 1
 59 8 l 1
61 7 m 1
 60 7 l 1
 60 6 l 1
 61 6 l 1
 61 7 l 1
EndSplineSet
EndChar

StartChar: custom_1_1_0_9_4
Encoding: 23362 23362 3394
Width: 70
Flags: H
LayerCount: 2
Fore
SplineSet
31 43 m 1
 29 43 l 1
 29 41 l 1
 31 41 l 1
 31 43 l 1
31 39 m 1
 29 39 l 1
 29 37 l 1
 31 37 l 1
 31 39 l 1
31 35 m 1
 29 35 l 1
 29 33 l 1
 31 33 l 1
 31 35 l 1
36 37 m 1
 34 37 l 1
 34 35 l 1
 36 35 l 1
 36 37 l 1
31 31 m 1
 29 31 l 1
 29 29 l 1
 31 29 l 1
 31 31 l 1
36 33 m 1
 34 33 l 1
 34 31 l 1
 36 31 l 1
 36 33 l 1
31 27 m 1
 29 27 l 1
 29 25 l 1
 31 25 l 1
 31 27 l 1
49 43 m 1
 47 43 l 1
 47 41 l 1
 49 41 l 1
 49 43 l 1
49 39 m 1
 47 39 l 1
 47 37 l 1
 49 37 l 1
 49 39 l 1
49 35 m 1
 47 35 l 1
 47 33 l 1
 49 33 l 1
 49 35 l 1
49 31 m 1
 47 31 l 1
 47 29 l 1
 49 29 l 1
 49 31 l 1
63 43 m 1
 61 43 l 1
 61 41 l 1
 63 41 l 1
 63 43 l 1
63 39 m 1
 61 39 l 1
 61 37 l 1
 63 37 l 1
 63 39 l 1
63 35 m 1
 61 35 l 1
 61 33 l 1
 63 33 l 1
 63 35 l 1
63 31 m 1
 61 31 l 1
 61 29 l 1
 63 29 l 1
 63 31 l 1
49 27 m 1
 47 27 l 1
 47 25 l 1
 49 25 l 1
 49 27 l 1
63 27 m 1
 61 27 l 1
 61 25 l 1
 63 25 l 1
 63 27 l 1
13 6 m 1
 12 6 l 1
 12 5 l 1
 13 5 l 1
 13 6 l 1
14 8 m 1
 13 8 l 1
 13 6 l 1
 14 6 l 1
 14 5 l 1
 15 5 l 1
 15 7 l 1
 14 7 l 1
 14 8 l 1
61 9 m 1
 58 9 l 1
 58 7 l 1
 59 7 l 1
 59 8 l 1
 61 8 l 1
 61 9 l 1
60 7 m 1
 59 7 l 1
 59 6 l 1
 60 6 l 1
 60 7 l 1
EndSplineSet
EndChar

StartChar: custom_1_1_0_9_5
Encoding: 23363 23363 3395
Width: 70
Flags: H
LayerCount: 2
Fore
SplineSet
31 43 m 1
 29 43 l 1
 29 41 l 1
 31 41 l 1
 31 43 l 1
31 39 m 1
 29 39 l 1
 29 37 l 1
 31 37 l 1
 31 39 l 1
31 35 m 1
 29 35 l 1
 29 33 l 1
 31 33 l 1
 31 35 l 1
36 37 m 1
 34 37 l 1
 34 35 l 1
 36 35 l 1
 36 37 l 1
31 31 m 1
 29 31 l 1
 29 29 l 1
 31 29 l 1
 31 31 l 1
36 33 m 1
 34 33 l 1
 34 31 l 1
 36 31 l 1
 36 33 l 1
31 27 m 1
 29 27 l 1
 29 25 l 1
 31 25 l 1
 31 27 l 1
49 43 m 1
 47 43 l 1
 47 41 l 1
 49 41 l 1
 49 43 l 1
49 39 m 1
 47 39 l 1
 47 37 l 1
 49 37 l 1
 49 39 l 1
49 35 m 1
 47 35 l 1
 47 33 l 1
 49 33 l 1
 49 35 l 1
49 31 m 1
 47 31 l 1
 47 29 l 1
 49 29 l 1
 49 31 l 1
63 43 m 1
 61 43 l 1
 61 41 l 1
 63 41 l 1
 63 43 l 1
63 39 m 1
 61 39 l 1
 61 37 l 1
 63 37 l 1
 63 39 l 1
63 35 m 1
 61 35 l 1
 61 33 l 1
 63 33 l 1
 63 35 l 1
63 31 m 1
 61 31 l 1
 61 29 l 1
 63 29 l 1
 63 31 l 1
49 27 m 1
 47 27 l 1
 47 25 l 1
 49 25 l 1
 49 27 l 1
63 27 m 1
 61 27 l 1
 61 25 l 1
 63 25 l 1
 63 27 l 1
13 7 m 1
 12 7 l 1
 12 6 l 1
 13 6 l 1
 13 7 l 1
15 8 m 1
 13 8 l 1
 13 7 l 1
 14 7 l 1
 14 5 l 1
 15 5 l 1
 15 8 l 1
60 10 m 1
 59 10 l 1
 59 9 l 1
 58 9 l 1
 58 7 l 1
 59 7 l 1
 59 8 l 1
 60 8 l 1
 60 10 l 1
61 8 m 1
 60 8 l 1
 60 7 l 1
 61 7 l 1
 61 8 l 1
EndSplineSet
EndChar

StartChar: custom_1_1_0_9_6
Encoding: 23364 23364 3396
Width: 70
Flags: H
LayerCount: 2
Fore
SplineSet
31 43 m 1
 29 43 l 1
 29 41 l 1
 31 41 l 1
 31 43 l 1
31 39 m 1
 29 39 l 1
 29 37 l 1
 31 37 l 1
 31 39 l 1
31 35 m 1
 29 35 l 1
 29 33 l 1
 31 33 l 1
 31 35 l 1
36 37 m 1
 34 37 l 1
 34 35 l 1
 36 35 l 1
 36 37 l 1
31 31 m 1
 29 31 l 1
 29 29 l 1
 31 29 l 1
 31 31 l 1
36 33 m 1
 34 33 l 1
 34 31 l 1
 36 31 l 1
 36 33 l 1
31 27 m 1
 29 27 l 1
 29 25 l 1
 31 25 l 1
 31 27 l 1
49 43 m 1
 47 43 l 1
 47 41 l 1
 49 41 l 1
 49 43 l 1
49 39 m 1
 47 39 l 1
 47 37 l 1
 49 37 l 1
 49 39 l 1
49 35 m 1
 47 35 l 1
 47 33 l 1
 49 33 l 1
 49 35 l 1
49 31 m 1
 47 31 l 1
 47 29 l 1
 49 29 l 1
 49 31 l 1
63 43 m 1
 61 43 l 1
 61 41 l 1
 63 41 l 1
 63 43 l 1
63 39 m 1
 61 39 l 1
 61 37 l 1
 63 37 l 1
 63 39 l 1
63 35 m 1
 61 35 l 1
 61 33 l 1
 63 33 l 1
 63 35 l 1
63 31 m 1
 61 31 l 1
 61 29 l 1
 63 29 l 1
 63 31 l 1
49 27 m 1
 47 27 l 1
 47 25 l 1
 49 25 l 1
 49 27 l 1
63 27 m 1
 61 27 l 1
 61 25 l 1
 63 25 l 1
 63 27 l 1
15 8 m 1
 13 8 l 1
 13 7 l 1
 14 7 l 1
 14 6 l 1
 16 6 l 1
 16 7 l 1
 15 7 l 1
 15 8 l 1
14 6 m 1
 13 6 l 1
 13 5 l 1
 14 5 l 1
 14 6 l 1
60 10 m 1
 58 10 l 1
 58 7 l 1
 59 7 l 1
 59 9 l 1
 60 9 l 1
 60 10 l 1
61 9 m 1
 60 9 l 1
 60 8 l 1
 61 8 l 1
 61 9 l 1
EndSplineSet
EndChar

StartChar: custom_1_1_0_9_7
Encoding: 23365 23365 3397
Width: 70
Flags: H
LayerCount: 2
Fore
SplineSet
31 43 m 1
 29 43 l 1
 29 41 l 1
 31 41 l 1
 31 43 l 1
31 39 m 1
 29 39 l 1
 29 37 l 1
 31 37 l 1
 31 39 l 1
31 35 m 1
 29 35 l 1
 29 33 l 1
 31 33 l 1
 31 35 l 1
36 37 m 1
 34 37 l 1
 34 35 l 1
 36 35 l 1
 36 37 l 1
31 31 m 1
 29 31 l 1
 29 29 l 1
 31 29 l 1
 31 31 l 1
36 33 m 1
 34 33 l 1
 34 31 l 1
 36 31 l 1
 36 33 l 1
31 27 m 1
 29 27 l 1
 29 25 l 1
 31 25 l 1
 31 27 l 1
49 43 m 1
 47 43 l 1
 47 41 l 1
 49 41 l 1
 49 43 l 1
49 39 m 1
 47 39 l 1
 47 37 l 1
 49 37 l 1
 49 39 l 1
49 35 m 1
 47 35 l 1
 47 33 l 1
 49 33 l 1
 49 35 l 1
49 31 m 1
 47 31 l 1
 47 29 l 1
 49 29 l 1
 49 31 l 1
63 43 m 1
 61 43 l 1
 61 41 l 1
 63 41 l 1
 63 43 l 1
63 39 m 1
 61 39 l 1
 61 37 l 1
 63 37 l 1
 63 39 l 1
63 35 m 1
 61 35 l 1
 61 33 l 1
 63 33 l 1
 63 35 l 1
63 31 m 1
 61 31 l 1
 61 29 l 1
 63 29 l 1
 63 31 l 1
49 27 m 1
 47 27 l 1
 47 25 l 1
 49 25 l 1
 49 27 l 1
63 27 m 1
 61 27 l 1
 61 25 l 1
 63 25 l 1
 63 27 l 1
16 8 m 1
 13 8 l 1
 13 7 l 1
 15 7 l 1
 15 6 l 1
 16 6 l 1
 16 8 l 1
15 6 m 1
 14 6 l 1
 14 5 l 1
 15 5 l 1
 15 6 l 1
60 10 m 1
 58 10 l 1
 58 9 l 1
 57 9 l 1
 57 8 l 1
 59 8 l 1
 59 9 l 1
 60 9 l 1
 60 10 l 1
60 8 m 1
 59 8 l 1
 59 7 l 1
 60 7 l 1
 60 8 l 1
EndSplineSet
EndChar

StartChar: custom_1_1_0_9_8
Encoding: 23366 23366 3398
Width: 70
Flags: H
LayerCount: 2
Fore
SplineSet
31 43 m 1
 29 43 l 1
 29 41 l 1
 31 41 l 1
 31 43 l 1
31 39 m 1
 29 39 l 1
 29 37 l 1
 31 37 l 1
 31 39 l 1
31 35 m 1
 29 35 l 1
 29 33 l 1
 31 33 l 1
 31 35 l 1
36 37 m 1
 34 37 l 1
 34 35 l 1
 36 35 l 1
 36 37 l 1
31 31 m 1
 29 31 l 1
 29 29 l 1
 31 29 l 1
 31 31 l 1
36 33 m 1
 34 33 l 1
 34 31 l 1
 36 31 l 1
 36 33 l 1
31 27 m 1
 29 27 l 1
 29 25 l 1
 31 25 l 1
 31 27 l 1
49 43 m 1
 47 43 l 1
 47 41 l 1
 49 41 l 1
 49 43 l 1
49 39 m 1
 47 39 l 1
 47 37 l 1
 49 37 l 1
 49 39 l 1
49 35 m 1
 47 35 l 1
 47 33 l 1
 49 33 l 1
 49 35 l 1
49 31 m 1
 47 31 l 1
 47 29 l 1
 49 29 l 1
 49 31 l 1
63 43 m 1
 61 43 l 1
 61 41 l 1
 63 41 l 1
 63 43 l 1
63 39 m 1
 61 39 l 1
 61 37 l 1
 63 37 l 1
 63 39 l 1
63 35 m 1
 61 35 l 1
 61 33 l 1
 63 33 l 1
 63 35 l 1
63 31 m 1
 61 31 l 1
 61 29 l 1
 63 29 l 1
 63 31 l 1
49 27 m 1
 47 27 l 1
 47 25 l 1
 49 25 l 1
 49 27 l 1
63 27 m 1
 61 27 l 1
 61 25 l 1
 63 25 l 1
 63 27 l 1
15 9 m 1
 14 9 l 1
 14 7 l 1
 15 7 l 1
 15 6 l 1
 16 6 l 1
 16 8 l 1
 15 8 l 1
 15 9 l 1
14 7 m 1
 13 7 l 1
 13 6 l 1
 14 6 l 1
 14 7 l 1
60 10 m 1
 57 10 l 1
 57 8 l 1
 58 8 l 1
 58 9 l 1
 60 9 l 1
 60 10 l 1
59 8 m 1
 58 8 l 1
 58 7 l 1
 59 7 l 1
 59 8 l 1
EndSplineSet
EndChar

StartChar: custom_1_1_0_9_9
Encoding: 23367 23367 3399
Width: 70
Flags: H
LayerCount: 2
Fore
SplineSet
31 43 m 1
 29 43 l 1
 29 41 l 1
 31 41 l 1
 31 43 l 1
31 39 m 1
 29 39 l 1
 29 37 l 1
 31 37 l 1
 31 39 l 1
31 35 m 1
 29 35 l 1
 29 33 l 1
 31 33 l 1
 31 35 l 1
36 37 m 1
 34 37 l 1
 34 35 l 1
 36 35 l 1
 36 37 l 1
31 31 m 1
 29 31 l 1
 29 29 l 1
 31 29 l 1
 31 31 l 1
36 33 m 1
 34 33 l 1
 34 31 l 1
 36 31 l 1
 36 33 l 1
31 27 m 1
 29 27 l 1
 29 25 l 1
 31 25 l 1
 31 27 l 1
49 43 m 1
 47 43 l 1
 47 41 l 1
 49 41 l 1
 49 43 l 1
49 39 m 1
 47 39 l 1
 47 37 l 1
 49 37 l 1
 49 39 l 1
49 35 m 1
 47 35 l 1
 47 33 l 1
 49 33 l 1
 49 35 l 1
49 31 m 1
 47 31 l 1
 47 29 l 1
 49 29 l 1
 49 31 l 1
63 43 m 1
 61 43 l 1
 61 41 l 1
 63 41 l 1
 63 43 l 1
63 39 m 1
 61 39 l 1
 61 37 l 1
 63 37 l 1
 63 39 l 1
63 35 m 1
 61 35 l 1
 61 33 l 1
 63 33 l 1
 63 35 l 1
63 31 m 1
 61 31 l 1
 61 29 l 1
 63 29 l 1
 63 31 l 1
49 27 m 1
 47 27 l 1
 47 25 l 1
 49 25 l 1
 49 27 l 1
63 27 m 1
 61 27 l 1
 61 25 l 1
 63 25 l 1
 63 27 l 1
16 9 m 1
 14 9 l 1
 14 8 l 1
 15 8 l 1
 15 6 l 1
 16 6 l 1
 16 9 l 1
14 8 m 1
 13 8 l 1
 13 7 l 1
 14 7 l 1
 14 8 l 1
59 11 m 1
 58 11 l 1
 58 10 l 1
 57 10 l 1
 57 8 l 1
 58 8 l 1
 58 9 l 1
 59 9 l 1
 59 11 l 1
60 9 m 1
 59 9 l 1
 59 8 l 1
 60 8 l 1
 60 9 l 1
EndSplineSet
EndChar

StartChar: custom_1_1_1_0_0
Encoding: 23368 23368 3400
Width: 70
Flags: H
LayerCount: 2
Fore
SplineSet
31 43 m 1
 29 43 l 1
 29 41 l 1
 31 41 l 1
 31 43 l 1
31 39 m 1
 29 39 l 1
 29 37 l 1
 31 37 l 1
 31 39 l 1
31 35 m 1
 29 35 l 1
 29 33 l 1
 31 33 l 1
 31 35 l 1
36 37 m 1
 34 37 l 1
 34 35 l 1
 36 35 l 1
 36 37 l 1
31 31 m 1
 29 31 l 1
 29 29 l 1
 31 29 l 1
 31 31 l 1
36 33 m 1
 34 33 l 1
 34 31 l 1
 36 31 l 1
 36 33 l 1
31 27 m 1
 29 27 l 1
 29 25 l 1
 31 25 l 1
 31 27 l 1
49 43 m 1
 47 43 l 1
 47 41 l 1
 49 41 l 1
 49 43 l 1
49 39 m 1
 47 39 l 1
 47 37 l 1
 49 37 l 1
 49 39 l 1
49 35 m 1
 47 35 l 1
 47 33 l 1
 49 33 l 1
 49 35 l 1
49 31 m 1
 47 31 l 1
 47 29 l 1
 49 29 l 1
 49 31 l 1
63 43 m 1
 61 43 l 1
 61 41 l 1
 63 41 l 1
 63 43 l 1
63 39 m 1
 61 39 l 1
 61 37 l 1
 63 37 l 1
 63 39 l 1
63 35 m 1
 61 35 l 1
 61 33 l 1
 63 33 l 1
 63 35 l 1
63 31 m 1
 61 31 l 1
 61 29 l 1
 63 29 l 1
 63 31 l 1
49 27 m 1
 47 27 l 1
 47 25 l 1
 49 25 l 1
 49 27 l 1
63 27 m 1
 61 27 l 1
 61 25 l 1
 63 25 l 1
 63 27 l 1
16 9 m 1
 14 9 l 1
 14 8 l 1
 15 8 l 1
 15 7 l 1
 17 7 l 1
 17 8 l 1
 16 8 l 1
 16 9 l 1
15 7 m 1
 14 7 l 1
 14 6 l 1
 15 6 l 1
 15 7 l 1
59 11 m 1
 57 11 l 1
 57 8 l 1
 58 8 l 1
 58 10 l 1
 59 10 l 1
 59 11 l 1
60 10 m 1
 59 10 l 1
 59 9 l 1
 60 9 l 1
 60 10 l 1
EndSplineSet
EndChar

StartChar: custom_1_1_1_0_1
Encoding: 23369 23369 3401
Width: 70
Flags: H
LayerCount: 2
Fore
SplineSet
31 43 m 1
 29 43 l 1
 29 41 l 1
 31 41 l 1
 31 43 l 1
31 39 m 1
 29 39 l 1
 29 37 l 1
 31 37 l 1
 31 39 l 1
31 35 m 1
 29 35 l 1
 29 33 l 1
 31 33 l 1
 31 35 l 1
36 37 m 1
 34 37 l 1
 34 35 l 1
 36 35 l 1
 36 37 l 1
31 31 m 1
 29 31 l 1
 29 29 l 1
 31 29 l 1
 31 31 l 1
36 33 m 1
 34 33 l 1
 34 31 l 1
 36 31 l 1
 36 33 l 1
31 27 m 1
 29 27 l 1
 29 25 l 1
 31 25 l 1
 31 27 l 1
49 43 m 1
 47 43 l 1
 47 41 l 1
 49 41 l 1
 49 43 l 1
49 39 m 1
 47 39 l 1
 47 37 l 1
 49 37 l 1
 49 39 l 1
49 35 m 1
 47 35 l 1
 47 33 l 1
 49 33 l 1
 49 35 l 1
49 31 m 1
 47 31 l 1
 47 29 l 1
 49 29 l 1
 49 31 l 1
63 43 m 1
 61 43 l 1
 61 41 l 1
 63 41 l 1
 63 43 l 1
63 39 m 1
 61 39 l 1
 61 37 l 1
 63 37 l 1
 63 39 l 1
63 35 m 1
 61 35 l 1
 61 33 l 1
 63 33 l 1
 63 35 l 1
63 31 m 1
 61 31 l 1
 61 29 l 1
 63 29 l 1
 63 31 l 1
49 27 m 1
 47 27 l 1
 47 25 l 1
 49 25 l 1
 49 27 l 1
63 27 m 1
 61 27 l 1
 61 25 l 1
 63 25 l 1
 63 27 l 1
17 9 m 1
 14 9 l 1
 14 8 l 1
 16 8 l 1
 16 7 l 1
 17 7 l 1
 17 9 l 1
16 7 m 1
 15 7 l 1
 15 6 l 1
 16 6 l 1
 16 7 l 1
57 10 m 1
 56 10 l 1
 56 9 l 1
 58 9 l 1
 58 10 l 1
 59 10 l 1
 59 11 l 1
 57 11 l 1
 57 10 l 1
59 9 m 1
 58 9 l 1
 58 8 l 1
 59 8 l 1
 59 9 l 1
EndSplineSet
EndChar

StartChar: custom_1_1_1_0_2
Encoding: 23370 23370 3402
Width: 70
Flags: H
LayerCount: 2
Fore
SplineSet
31 43 m 1
 29 43 l 1
 29 41 l 1
 31 41 l 1
 31 43 l 1
31 39 m 1
 29 39 l 1
 29 37 l 1
 31 37 l 1
 31 39 l 1
31 35 m 1
 29 35 l 1
 29 33 l 1
 31 33 l 1
 31 35 l 1
36 37 m 1
 34 37 l 1
 34 35 l 1
 36 35 l 1
 36 37 l 1
31 31 m 1
 29 31 l 1
 29 29 l 1
 31 29 l 1
 31 31 l 1
36 33 m 1
 34 33 l 1
 34 31 l 1
 36 31 l 1
 36 33 l 1
31 27 m 1
 29 27 l 1
 29 25 l 1
 31 25 l 1
 31 27 l 1
49 43 m 1
 47 43 l 1
 47 41 l 1
 49 41 l 1
 49 43 l 1
49 39 m 1
 47 39 l 1
 47 37 l 1
 49 37 l 1
 49 39 l 1
49 35 m 1
 47 35 l 1
 47 33 l 1
 49 33 l 1
 49 35 l 1
49 31 m 1
 47 31 l 1
 47 29 l 1
 49 29 l 1
 49 31 l 1
63 43 m 1
 61 43 l 1
 61 41 l 1
 63 41 l 1
 63 43 l 1
63 39 m 1
 61 39 l 1
 61 37 l 1
 63 37 l 1
 63 39 l 1
63 35 m 1
 61 35 l 1
 61 33 l 1
 63 33 l 1
 63 35 l 1
63 31 m 1
 61 31 l 1
 61 29 l 1
 63 29 l 1
 63 31 l 1
49 27 m 1
 47 27 l 1
 47 25 l 1
 49 25 l 1
 49 27 l 1
63 27 m 1
 61 27 l 1
 61 25 l 1
 63 25 l 1
 63 27 l 1
16 10 m 1
 15 10 l 1
 15 8 l 1
 16 8 l 1
 16 7 l 1
 17 7 l 1
 17 9 l 1
 16 9 l 1
 16 10 l 1
15 8 m 1
 14 8 l 1
 14 7 l 1
 15 7 l 1
 15 8 l 1
59 11 m 1
 56 11 l 1
 56 9 l 1
 57 9 l 1
 57 10 l 1
 59 10 l 1
 59 11 l 1
58 9 m 1
 57 9 l 1
 57 8 l 1
 58 8 l 1
 58 9 l 1
EndSplineSet
EndChar

StartChar: custom_1_1_1_0_3
Encoding: 23371 23371 3403
Width: 70
Flags: H
LayerCount: 2
Fore
SplineSet
31 43 m 1
 29 43 l 1
 29 41 l 1
 31 41 l 1
 31 43 l 1
31 39 m 1
 29 39 l 1
 29 37 l 1
 31 37 l 1
 31 39 l 1
31 35 m 1
 29 35 l 1
 29 33 l 1
 31 33 l 1
 31 35 l 1
36 37 m 1
 34 37 l 1
 34 35 l 1
 36 35 l 1
 36 37 l 1
31 31 m 1
 29 31 l 1
 29 29 l 1
 31 29 l 1
 31 31 l 1
36 33 m 1
 34 33 l 1
 34 31 l 1
 36 31 l 1
 36 33 l 1
31 27 m 1
 29 27 l 1
 29 25 l 1
 31 25 l 1
 31 27 l 1
49 43 m 1
 47 43 l 1
 47 41 l 1
 49 41 l 1
 49 43 l 1
49 39 m 1
 47 39 l 1
 47 37 l 1
 49 37 l 1
 49 39 l 1
49 35 m 1
 47 35 l 1
 47 33 l 1
 49 33 l 1
 49 35 l 1
49 31 m 1
 47 31 l 1
 47 29 l 1
 49 29 l 1
 49 31 l 1
63 43 m 1
 61 43 l 1
 61 41 l 1
 63 41 l 1
 63 43 l 1
63 39 m 1
 61 39 l 1
 61 37 l 1
 63 37 l 1
 63 39 l 1
63 35 m 1
 61 35 l 1
 61 33 l 1
 63 33 l 1
 63 35 l 1
63 31 m 1
 61 31 l 1
 61 29 l 1
 63 29 l 1
 63 31 l 1
49 27 m 1
 47 27 l 1
 47 25 l 1
 49 25 l 1
 49 27 l 1
63 27 m 1
 61 27 l 1
 61 25 l 1
 63 25 l 1
 63 27 l 1
17 10 m 1
 15 10 l 1
 15 9 l 1
 16 9 l 1
 16 7 l 1
 17 7 l 1
 17 10 l 1
15 9 m 1
 14 9 l 1
 14 8 l 1
 15 8 l 1
 15 9 l 1
57 11 m 1
 56 11 l 1
 56 9 l 1
 57 9 l 1
 57 10 l 1
 58 10 l 1
 58 12 l 1
 57 12 l 1
 57 11 l 1
59 10 m 1
 58 10 l 1
 58 9 l 1
 59 9 l 1
 59 10 l 1
EndSplineSet
EndChar

StartChar: custom_1_1_1_0_4
Encoding: 23372 23372 3404
Width: 70
Flags: H
LayerCount: 2
Fore
SplineSet
31 43 m 1
 29 43 l 1
 29 41 l 1
 31 41 l 1
 31 43 l 1
31 39 m 1
 29 39 l 1
 29 37 l 1
 31 37 l 1
 31 39 l 1
31 35 m 1
 29 35 l 1
 29 33 l 1
 31 33 l 1
 31 35 l 1
36 37 m 1
 34 37 l 1
 34 35 l 1
 36 35 l 1
 36 37 l 1
31 31 m 1
 29 31 l 1
 29 29 l 1
 31 29 l 1
 31 31 l 1
36 33 m 1
 34 33 l 1
 34 31 l 1
 36 31 l 1
 36 33 l 1
31 27 m 1
 29 27 l 1
 29 25 l 1
 31 25 l 1
 31 27 l 1
49 43 m 1
 47 43 l 1
 47 41 l 1
 49 41 l 1
 49 43 l 1
49 39 m 1
 47 39 l 1
 47 37 l 1
 49 37 l 1
 49 39 l 1
49 35 m 1
 47 35 l 1
 47 33 l 1
 49 33 l 1
 49 35 l 1
49 31 m 1
 47 31 l 1
 47 29 l 1
 49 29 l 1
 49 31 l 1
63 43 m 1
 61 43 l 1
 61 41 l 1
 63 41 l 1
 63 43 l 1
63 39 m 1
 61 39 l 1
 61 37 l 1
 63 37 l 1
 63 39 l 1
63 35 m 1
 61 35 l 1
 61 33 l 1
 63 33 l 1
 63 35 l 1
63 31 m 1
 61 31 l 1
 61 29 l 1
 63 29 l 1
 63 31 l 1
49 27 m 1
 47 27 l 1
 47 25 l 1
 49 25 l 1
 49 27 l 1
63 27 m 1
 61 27 l 1
 61 25 l 1
 63 25 l 1
 63 27 l 1
17 10 m 1
 15 10 l 1
 15 9 l 1
 16 9 l 1
 16 8 l 1
 18 8 l 1
 18 9 l 1
 17 9 l 1
 17 10 l 1
16 8 m 1
 15 8 l 1
 15 7 l 1
 16 7 l 1
 16 8 l 1
58 12 m 1
 56 12 l 1
 56 9 l 1
 57 9 l 1
 57 11 l 1
 58 11 l 1
 58 12 l 1
59 11 m 1
 58 11 l 1
 58 10 l 1
 59 10 l 1
 59 11 l 1
EndSplineSet
EndChar

StartChar: custom_1_1_1_0_5
Encoding: 23373 23373 3405
Width: 70
Flags: H
LayerCount: 2
Fore
SplineSet
31 43 m 1
 29 43 l 1
 29 41 l 1
 31 41 l 1
 31 43 l 1
31 39 m 1
 29 39 l 1
 29 37 l 1
 31 37 l 1
 31 39 l 1
31 35 m 1
 29 35 l 1
 29 33 l 1
 31 33 l 1
 31 35 l 1
36 37 m 1
 34 37 l 1
 34 35 l 1
 36 35 l 1
 36 37 l 1
31 31 m 1
 29 31 l 1
 29 29 l 1
 31 29 l 1
 31 31 l 1
36 33 m 1
 34 33 l 1
 34 31 l 1
 36 31 l 1
 36 33 l 1
31 27 m 1
 29 27 l 1
 29 25 l 1
 31 25 l 1
 31 27 l 1
49 43 m 1
 47 43 l 1
 47 41 l 1
 49 41 l 1
 49 43 l 1
49 39 m 1
 47 39 l 1
 47 37 l 1
 49 37 l 1
 49 39 l 1
49 35 m 1
 47 35 l 1
 47 33 l 1
 49 33 l 1
 49 35 l 1
49 31 m 1
 47 31 l 1
 47 29 l 1
 49 29 l 1
 49 31 l 1
63 43 m 1
 61 43 l 1
 61 41 l 1
 63 41 l 1
 63 43 l 1
63 39 m 1
 61 39 l 1
 61 37 l 1
 63 37 l 1
 63 39 l 1
63 35 m 1
 61 35 l 1
 61 33 l 1
 63 33 l 1
 63 35 l 1
63 31 m 1
 61 31 l 1
 61 29 l 1
 63 29 l 1
 63 31 l 1
49 27 m 1
 47 27 l 1
 47 25 l 1
 49 25 l 1
 49 27 l 1
63 27 m 1
 61 27 l 1
 61 25 l 1
 63 25 l 1
 63 27 l 1
18 10 m 1
 15 10 l 1
 15 9 l 1
 17 9 l 1
 17 8 l 1
 18 8 l 1
 18 10 l 1
17 8 m 1
 16 8 l 1
 16 7 l 1
 17 7 l 1
 17 8 l 1
58 12 m 1
 56 12 l 1
 56 11 l 1
 55 11 l 1
 55 10 l 1
 57 10 l 1
 57 11 l 1
 58 11 l 1
 58 12 l 1
58 10 m 1
 57 10 l 1
 57 9 l 1
 58 9 l 1
 58 10 l 1
EndSplineSet
EndChar

StartChar: custom_1_1_1_0_6
Encoding: 23374 23374 3406
Width: 70
Flags: H
LayerCount: 2
Fore
SplineSet
31 43 m 1
 29 43 l 1
 29 41 l 1
 31 41 l 1
 31 43 l 1
31 39 m 1
 29 39 l 1
 29 37 l 1
 31 37 l 1
 31 39 l 1
31 35 m 1
 29 35 l 1
 29 33 l 1
 31 33 l 1
 31 35 l 1
36 37 m 1
 34 37 l 1
 34 35 l 1
 36 35 l 1
 36 37 l 1
31 31 m 1
 29 31 l 1
 29 29 l 1
 31 29 l 1
 31 31 l 1
36 33 m 1
 34 33 l 1
 34 31 l 1
 36 31 l 1
 36 33 l 1
31 27 m 1
 29 27 l 1
 29 25 l 1
 31 25 l 1
 31 27 l 1
49 43 m 1
 47 43 l 1
 47 41 l 1
 49 41 l 1
 49 43 l 1
49 39 m 1
 47 39 l 1
 47 37 l 1
 49 37 l 1
 49 39 l 1
49 35 m 1
 47 35 l 1
 47 33 l 1
 49 33 l 1
 49 35 l 1
49 31 m 1
 47 31 l 1
 47 29 l 1
 49 29 l 1
 49 31 l 1
63 43 m 1
 61 43 l 1
 61 41 l 1
 63 41 l 1
 63 43 l 1
63 39 m 1
 61 39 l 1
 61 37 l 1
 63 37 l 1
 63 39 l 1
63 35 m 1
 61 35 l 1
 61 33 l 1
 63 33 l 1
 63 35 l 1
63 31 m 1
 61 31 l 1
 61 29 l 1
 63 29 l 1
 63 31 l 1
49 27 m 1
 47 27 l 1
 47 25 l 1
 49 25 l 1
 49 27 l 1
63 27 m 1
 61 27 l 1
 61 25 l 1
 63 25 l 1
 63 27 l 1
17 11 m 1
 16 11 l 1
 16 9 l 1
 17 9 l 1
 17 8 l 1
 18 8 l 1
 18 10 l 1
 17 10 l 1
 17 11 l 1
16 9 m 1
 15 9 l 1
 15 8 l 1
 16 8 l 1
 16 9 l 1
58 12 m 1
 55 12 l 1
 55 10 l 1
 56 10 l 1
 56 11 l 1
 58 11 l 1
 58 12 l 1
57 10 m 1
 56 10 l 1
 56 9 l 1
 57 9 l 1
 57 10 l 1
EndSplineSet
EndChar

StartChar: custom_1_1_1_0_7
Encoding: 23375 23375 3407
Width: 70
Flags: H
LayerCount: 2
Fore
SplineSet
31 43 m 1
 29 43 l 1
 29 41 l 1
 31 41 l 1
 31 43 l 1
31 39 m 1
 29 39 l 1
 29 37 l 1
 31 37 l 1
 31 39 l 1
31 35 m 1
 29 35 l 1
 29 33 l 1
 31 33 l 1
 31 35 l 1
36 37 m 1
 34 37 l 1
 34 35 l 1
 36 35 l 1
 36 37 l 1
31 31 m 1
 29 31 l 1
 29 29 l 1
 31 29 l 1
 31 31 l 1
36 33 m 1
 34 33 l 1
 34 31 l 1
 36 31 l 1
 36 33 l 1
31 27 m 1
 29 27 l 1
 29 25 l 1
 31 25 l 1
 31 27 l 1
49 43 m 1
 47 43 l 1
 47 41 l 1
 49 41 l 1
 49 43 l 1
49 39 m 1
 47 39 l 1
 47 37 l 1
 49 37 l 1
 49 39 l 1
49 35 m 1
 47 35 l 1
 47 33 l 1
 49 33 l 1
 49 35 l 1
49 31 m 1
 47 31 l 1
 47 29 l 1
 49 29 l 1
 49 31 l 1
63 43 m 1
 61 43 l 1
 61 41 l 1
 63 41 l 1
 63 43 l 1
63 39 m 1
 61 39 l 1
 61 37 l 1
 63 37 l 1
 63 39 l 1
63 35 m 1
 61 35 l 1
 61 33 l 1
 63 33 l 1
 63 35 l 1
63 31 m 1
 61 31 l 1
 61 29 l 1
 63 29 l 1
 63 31 l 1
49 27 m 1
 47 27 l 1
 47 25 l 1
 49 25 l 1
 49 27 l 1
63 27 m 1
 61 27 l 1
 61 25 l 1
 63 25 l 1
 63 27 l 1
18 11 m 1
 16 11 l 1
 16 10 l 1
 17 10 l 1
 17 8 l 1
 18 8 l 1
 18 11 l 1
16 10 m 1
 15 10 l 1
 15 9 l 1
 16 9 l 1
 16 10 l 1
57 13 m 1
 56 13 l 1
 56 12 l 1
 55 12 l 1
 55 10 l 1
 56 10 l 1
 56 11 l 1
 57 11 l 1
 57 13 l 1
58 11 m 1
 57 11 l 1
 57 10 l 1
 58 10 l 1
 58 11 l 1
EndSplineSet
EndChar

StartChar: custom_1_1_1_0_8
Encoding: 23376 23376 3408
Width: 70
Flags: H
LayerCount: 2
Fore
SplineSet
31 43 m 1
 29 43 l 1
 29 41 l 1
 31 41 l 1
 31 43 l 1
31 39 m 1
 29 39 l 1
 29 37 l 1
 31 37 l 1
 31 39 l 1
31 35 m 1
 29 35 l 1
 29 33 l 1
 31 33 l 1
 31 35 l 1
36 37 m 1
 34 37 l 1
 34 35 l 1
 36 35 l 1
 36 37 l 1
31 31 m 1
 29 31 l 1
 29 29 l 1
 31 29 l 1
 31 31 l 1
36 33 m 1
 34 33 l 1
 34 31 l 1
 36 31 l 1
 36 33 l 1
31 27 m 1
 29 27 l 1
 29 25 l 1
 31 25 l 1
 31 27 l 1
49 43 m 1
 47 43 l 1
 47 41 l 1
 49 41 l 1
 49 43 l 1
49 39 m 1
 47 39 l 1
 47 37 l 1
 49 37 l 1
 49 39 l 1
49 35 m 1
 47 35 l 1
 47 33 l 1
 49 33 l 1
 49 35 l 1
49 31 m 1
 47 31 l 1
 47 29 l 1
 49 29 l 1
 49 31 l 1
63 43 m 1
 61 43 l 1
 61 41 l 1
 63 41 l 1
 63 43 l 1
63 39 m 1
 61 39 l 1
 61 37 l 1
 63 37 l 1
 63 39 l 1
63 35 m 1
 61 35 l 1
 61 33 l 1
 63 33 l 1
 63 35 l 1
63 31 m 1
 61 31 l 1
 61 29 l 1
 63 29 l 1
 63 31 l 1
49 27 m 1
 47 27 l 1
 47 25 l 1
 49 25 l 1
 49 27 l 1
63 27 m 1
 61 27 l 1
 61 25 l 1
 63 25 l 1
 63 27 l 1
18 11 m 1
 16 11 l 1
 16 10 l 1
 17 10 l 1
 17 9 l 1
 19 9 l 1
 19 10 l 1
 18 10 l 1
 18 11 l 1
17 9 m 1
 16 9 l 1
 16 8 l 1
 17 8 l 1
 17 9 l 1
57 13 m 1
 55 13 l 1
 55 10 l 1
 56 10 l 1
 56 12 l 1
 57 12 l 1
 57 13 l 1
58 12 m 1
 57 12 l 1
 57 11 l 1
 58 11 l 1
 58 12 l 1
EndSplineSet
EndChar

StartChar: custom_1_1_1_0_9
Encoding: 23377 23377 3409
Width: 70
Flags: H
LayerCount: 2
Fore
SplineSet
31 43 m 1
 29 43 l 1
 29 41 l 1
 31 41 l 1
 31 43 l 1
31 39 m 1
 29 39 l 1
 29 37 l 1
 31 37 l 1
 31 39 l 1
31 35 m 1
 29 35 l 1
 29 33 l 1
 31 33 l 1
 31 35 l 1
36 37 m 1
 34 37 l 1
 34 35 l 1
 36 35 l 1
 36 37 l 1
31 31 m 1
 29 31 l 1
 29 29 l 1
 31 29 l 1
 31 31 l 1
36 33 m 1
 34 33 l 1
 34 31 l 1
 36 31 l 1
 36 33 l 1
31 27 m 1
 29 27 l 1
 29 25 l 1
 31 25 l 1
 31 27 l 1
49 43 m 1
 47 43 l 1
 47 41 l 1
 49 41 l 1
 49 43 l 1
49 39 m 1
 47 39 l 1
 47 37 l 1
 49 37 l 1
 49 39 l 1
49 35 m 1
 47 35 l 1
 47 33 l 1
 49 33 l 1
 49 35 l 1
49 31 m 1
 47 31 l 1
 47 29 l 1
 49 29 l 1
 49 31 l 1
63 43 m 1
 61 43 l 1
 61 41 l 1
 63 41 l 1
 63 43 l 1
63 39 m 1
 61 39 l 1
 61 37 l 1
 63 37 l 1
 63 39 l 1
63 35 m 1
 61 35 l 1
 61 33 l 1
 63 33 l 1
 63 35 l 1
63 31 m 1
 61 31 l 1
 61 29 l 1
 63 29 l 1
 63 31 l 1
49 27 m 1
 47 27 l 1
 47 25 l 1
 49 25 l 1
 49 27 l 1
63 27 m 1
 61 27 l 1
 61 25 l 1
 63 25 l 1
 63 27 l 1
19 11 m 1
 16 11 l 1
 16 10 l 1
 18 10 l 1
 18 9 l 1
 19 9 l 1
 19 11 l 1
18 9 m 1
 17 9 l 1
 17 8 l 1
 18 8 l 1
 18 9 l 1
55 12 m 1
 54 12 l 1
 54 11 l 1
 56 11 l 1
 56 12 l 1
 57 12 l 1
 57 13 l 1
 55 13 l 1
 55 12 l 1
57 11 m 1
 56 11 l 1
 56 10 l 1
 57 10 l 1
 57 11 l 1
EndSplineSet
EndChar

StartChar: custom_1_1_1_1_0
Encoding: 23378 23378 3410
Width: 70
Flags: H
LayerCount: 2
Fore
SplineSet
31 43 m 1
 29 43 l 1
 29 41 l 1
 31 41 l 1
 31 43 l 1
31 39 m 1
 29 39 l 1
 29 37 l 1
 31 37 l 1
 31 39 l 1
31 35 m 1
 29 35 l 1
 29 33 l 1
 31 33 l 1
 31 35 l 1
36 37 m 1
 34 37 l 1
 34 35 l 1
 36 35 l 1
 36 37 l 1
31 31 m 1
 29 31 l 1
 29 29 l 1
 31 29 l 1
 31 31 l 1
36 33 m 1
 34 33 l 1
 34 31 l 1
 36 31 l 1
 36 33 l 1
31 27 m 1
 29 27 l 1
 29 25 l 1
 31 25 l 1
 31 27 l 1
49 43 m 1
 47 43 l 1
 47 41 l 1
 49 41 l 1
 49 43 l 1
49 39 m 1
 47 39 l 1
 47 37 l 1
 49 37 l 1
 49 39 l 1
49 35 m 1
 47 35 l 1
 47 33 l 1
 49 33 l 1
 49 35 l 1
49 31 m 1
 47 31 l 1
 47 29 l 1
 49 29 l 1
 49 31 l 1
63 43 m 1
 61 43 l 1
 61 41 l 1
 63 41 l 1
 63 43 l 1
63 39 m 1
 61 39 l 1
 61 37 l 1
 63 37 l 1
 63 39 l 1
63 35 m 1
 61 35 l 1
 61 33 l 1
 63 33 l 1
 63 35 l 1
63 31 m 1
 61 31 l 1
 61 29 l 1
 63 29 l 1
 63 31 l 1
49 27 m 1
 47 27 l 1
 47 25 l 1
 49 25 l 1
 49 27 l 1
63 27 m 1
 61 27 l 1
 61 25 l 1
 63 25 l 1
 63 27 l 1
17 10 m 1
 16 10 l 1
 16 9 l 1
 17 9 l 1
 17 10 l 1
18 12 m 1
 17 12 l 1
 17 10 l 1
 18 10 l 1
 18 9 l 1
 19 9 l 1
 19 11 l 1
 18 11 l 1
 18 12 l 1
57 13 m 1
 54 13 l 1
 54 11 l 1
 55 11 l 1
 55 12 l 1
 57 12 l 1
 57 13 l 1
56 11 m 1
 55 11 l 1
 55 10 l 1
 56 10 l 1
 56 11 l 1
EndSplineSet
EndChar

StartChar: custom_1_1_1_1_1
Encoding: 23379 23379 3411
Width: 70
Flags: H
LayerCount: 2
Fore
SplineSet
31 43 m 1
 29 43 l 1
 29 41 l 1
 31 41 l 1
 31 43 l 1
31 39 m 1
 29 39 l 1
 29 37 l 1
 31 37 l 1
 31 39 l 1
31 35 m 1
 29 35 l 1
 29 33 l 1
 31 33 l 1
 31 35 l 1
36 37 m 1
 34 37 l 1
 34 35 l 1
 36 35 l 1
 36 37 l 1
31 31 m 1
 29 31 l 1
 29 29 l 1
 31 29 l 1
 31 31 l 1
36 33 m 1
 34 33 l 1
 34 31 l 1
 36 31 l 1
 36 33 l 1
31 27 m 1
 29 27 l 1
 29 25 l 1
 31 25 l 1
 31 27 l 1
49 43 m 1
 47 43 l 1
 47 41 l 1
 49 41 l 1
 49 43 l 1
49 39 m 1
 47 39 l 1
 47 37 l 1
 49 37 l 1
 49 39 l 1
49 35 m 1
 47 35 l 1
 47 33 l 1
 49 33 l 1
 49 35 l 1
49 31 m 1
 47 31 l 1
 47 29 l 1
 49 29 l 1
 49 31 l 1
63 43 m 1
 61 43 l 1
 61 41 l 1
 63 41 l 1
 63 43 l 1
63 39 m 1
 61 39 l 1
 61 37 l 1
 63 37 l 1
 63 39 l 1
63 35 m 1
 61 35 l 1
 61 33 l 1
 63 33 l 1
 63 35 l 1
63 31 m 1
 61 31 l 1
 61 29 l 1
 63 29 l 1
 63 31 l 1
49 27 m 1
 47 27 l 1
 47 25 l 1
 49 25 l 1
 49 27 l 1
63 27 m 1
 61 27 l 1
 61 25 l 1
 63 25 l 1
 63 27 l 1
56 14 m 1
 55 14 l 1
 55 13 l 1
 54 13 l 1
 54 11 l 1
 55 11 l 1
 55 12 l 1
 56 12 l 1
 56 14 l 1
17 11 m 1
 16 11 l 1
 16 10 l 1
 17 10 l 1
 17 11 l 1
19 12 m 1
 17 12 l 1
 17 11 l 1
 18 11 l 1
 18 9 l 1
 19 9 l 1
 19 12 l 1
57 12 m 1
 56 12 l 1
 56 11 l 1
 57 11 l 1
 57 12 l 1
EndSplineSet
EndChar

StartChar: custom_1_1_1_1_2
Encoding: 23380 23380 3412
Width: 70
Flags: H
LayerCount: 2
Fore
SplineSet
31 43 m 1
 29 43 l 1
 29 41 l 1
 31 41 l 1
 31 43 l 1
31 39 m 1
 29 39 l 1
 29 37 l 1
 31 37 l 1
 31 39 l 1
31 35 m 1
 29 35 l 1
 29 33 l 1
 31 33 l 1
 31 35 l 1
36 37 m 1
 34 37 l 1
 34 35 l 1
 36 35 l 1
 36 37 l 1
31 31 m 1
 29 31 l 1
 29 29 l 1
 31 29 l 1
 31 31 l 1
36 33 m 1
 34 33 l 1
 34 31 l 1
 36 31 l 1
 36 33 l 1
31 27 m 1
 29 27 l 1
 29 25 l 1
 31 25 l 1
 31 27 l 1
49 43 m 1
 47 43 l 1
 47 41 l 1
 49 41 l 1
 49 43 l 1
49 39 m 1
 47 39 l 1
 47 37 l 1
 49 37 l 1
 49 39 l 1
49 35 m 1
 47 35 l 1
 47 33 l 1
 49 33 l 1
 49 35 l 1
49 31 m 1
 47 31 l 1
 47 29 l 1
 49 29 l 1
 49 31 l 1
63 43 m 1
 61 43 l 1
 61 41 l 1
 63 41 l 1
 63 43 l 1
63 39 m 1
 61 39 l 1
 61 37 l 1
 63 37 l 1
 63 39 l 1
63 35 m 1
 61 35 l 1
 61 33 l 1
 63 33 l 1
 63 35 l 1
63 31 m 1
 61 31 l 1
 61 29 l 1
 63 29 l 1
 63 31 l 1
49 27 m 1
 47 27 l 1
 47 25 l 1
 49 25 l 1
 49 27 l 1
63 27 m 1
 61 27 l 1
 61 25 l 1
 63 25 l 1
 63 27 l 1
56 14 m 1
 54 14 l 1
 54 11 l 1
 55 11 l 1
 55 13 l 1
 56 13 l 1
 56 14 l 1
19 12 m 1
 17 12 l 1
 17 11 l 1
 18 11 l 1
 18 10 l 1
 20 10 l 1
 20 11 l 1
 19 11 l 1
 19 12 l 1
18 10 m 1
 17 10 l 1
 17 9 l 1
 18 9 l 1
 18 10 l 1
57 13 m 1
 56 13 l 1
 56 12 l 1
 57 12 l 1
 57 13 l 1
EndSplineSet
EndChar

StartChar: custom_1_1_1_1_3
Encoding: 23381 23381 3413
Width: 70
Flags: H
LayerCount: 2
Fore
SplineSet
31 43 m 1
 29 43 l 1
 29 41 l 1
 31 41 l 1
 31 43 l 1
31 39 m 1
 29 39 l 1
 29 37 l 1
 31 37 l 1
 31 39 l 1
31 35 m 1
 29 35 l 1
 29 33 l 1
 31 33 l 1
 31 35 l 1
36 37 m 1
 34 37 l 1
 34 35 l 1
 36 35 l 1
 36 37 l 1
31 31 m 1
 29 31 l 1
 29 29 l 1
 31 29 l 1
 31 31 l 1
36 33 m 1
 34 33 l 1
 34 31 l 1
 36 31 l 1
 36 33 l 1
31 27 m 1
 29 27 l 1
 29 25 l 1
 31 25 l 1
 31 27 l 1
49 43 m 1
 47 43 l 1
 47 41 l 1
 49 41 l 1
 49 43 l 1
49 39 m 1
 47 39 l 1
 47 37 l 1
 49 37 l 1
 49 39 l 1
49 35 m 1
 47 35 l 1
 47 33 l 1
 49 33 l 1
 49 35 l 1
49 31 m 1
 47 31 l 1
 47 29 l 1
 49 29 l 1
 49 31 l 1
63 43 m 1
 61 43 l 1
 61 41 l 1
 63 41 l 1
 63 43 l 1
63 39 m 1
 61 39 l 1
 61 37 l 1
 63 37 l 1
 63 39 l 1
63 35 m 1
 61 35 l 1
 61 33 l 1
 63 33 l 1
 63 35 l 1
63 31 m 1
 61 31 l 1
 61 29 l 1
 63 29 l 1
 63 31 l 1
49 27 m 1
 47 27 l 1
 47 25 l 1
 49 25 l 1
 49 27 l 1
63 27 m 1
 61 27 l 1
 61 25 l 1
 63 25 l 1
 63 27 l 1
56 14 m 1
 54 14 l 1
 54 13 l 1
 53 13 l 1
 53 12 l 1
 55 12 l 1
 55 13 l 1
 56 13 l 1
 56 14 l 1
20 12 m 1
 17 12 l 1
 17 11 l 1
 19 11 l 1
 19 10 l 1
 20 10 l 1
 20 12 l 1
19 10 m 1
 18 10 l 1
 18 9 l 1
 19 9 l 1
 19 10 l 1
56 12 m 1
 55 12 l 1
 55 11 l 1
 56 11 l 1
 56 12 l 1
EndSplineSet
EndChar

StartChar: custom_1_1_1_1_4
Encoding: 23382 23382 3414
Width: 70
Flags: H
LayerCount: 2
Fore
SplineSet
31 43 m 1
 29 43 l 1
 29 41 l 1
 31 41 l 1
 31 43 l 1
31 39 m 1
 29 39 l 1
 29 37 l 1
 31 37 l 1
 31 39 l 1
31 35 m 1
 29 35 l 1
 29 33 l 1
 31 33 l 1
 31 35 l 1
36 37 m 1
 34 37 l 1
 34 35 l 1
 36 35 l 1
 36 37 l 1
31 31 m 1
 29 31 l 1
 29 29 l 1
 31 29 l 1
 31 31 l 1
36 33 m 1
 34 33 l 1
 34 31 l 1
 36 31 l 1
 36 33 l 1
31 27 m 1
 29 27 l 1
 29 25 l 1
 31 25 l 1
 31 27 l 1
49 43 m 1
 47 43 l 1
 47 41 l 1
 49 41 l 1
 49 43 l 1
49 39 m 1
 47 39 l 1
 47 37 l 1
 49 37 l 1
 49 39 l 1
49 35 m 1
 47 35 l 1
 47 33 l 1
 49 33 l 1
 49 35 l 1
49 31 m 1
 47 31 l 1
 47 29 l 1
 49 29 l 1
 49 31 l 1
63 43 m 1
 61 43 l 1
 61 41 l 1
 63 41 l 1
 63 43 l 1
63 39 m 1
 61 39 l 1
 61 37 l 1
 63 37 l 1
 63 39 l 1
63 35 m 1
 61 35 l 1
 61 33 l 1
 63 33 l 1
 63 35 l 1
63 31 m 1
 61 31 l 1
 61 29 l 1
 63 29 l 1
 63 31 l 1
49 27 m 1
 47 27 l 1
 47 25 l 1
 49 25 l 1
 49 27 l 1
63 27 m 1
 61 27 l 1
 61 25 l 1
 63 25 l 1
 63 27 l 1
56 14 m 1
 53 14 l 1
 53 12 l 1
 54 12 l 1
 54 13 l 1
 56 13 l 1
 56 14 l 1
19 13 m 1
 18 13 l 1
 18 11 l 1
 19 11 l 1
 19 10 l 1
 20 10 l 1
 20 12 l 1
 19 12 l 1
 19 13 l 1
18 11 m 1
 17 11 l 1
 17 10 l 1
 18 10 l 1
 18 11 l 1
55 12 m 1
 54 12 l 1
 54 11 l 1
 55 11 l 1
 55 12 l 1
EndSplineSet
EndChar

StartChar: custom_1_1_1_1_5
Encoding: 23383 23383 3415
Width: 70
Flags: H
LayerCount: 2
Fore
SplineSet
31 43 m 1
 29 43 l 1
 29 41 l 1
 31 41 l 1
 31 43 l 1
31 39 m 1
 29 39 l 1
 29 37 l 1
 31 37 l 1
 31 39 l 1
31 35 m 1
 29 35 l 1
 29 33 l 1
 31 33 l 1
 31 35 l 1
36 37 m 1
 34 37 l 1
 34 35 l 1
 36 35 l 1
 36 37 l 1
31 31 m 1
 29 31 l 1
 29 29 l 1
 31 29 l 1
 31 31 l 1
36 33 m 1
 34 33 l 1
 34 31 l 1
 36 31 l 1
 36 33 l 1
31 27 m 1
 29 27 l 1
 29 25 l 1
 31 25 l 1
 31 27 l 1
49 43 m 1
 47 43 l 1
 47 41 l 1
 49 41 l 1
 49 43 l 1
49 39 m 1
 47 39 l 1
 47 37 l 1
 49 37 l 1
 49 39 l 1
49 35 m 1
 47 35 l 1
 47 33 l 1
 49 33 l 1
 49 35 l 1
49 31 m 1
 47 31 l 1
 47 29 l 1
 49 29 l 1
 49 31 l 1
63 43 m 1
 61 43 l 1
 61 41 l 1
 63 41 l 1
 63 43 l 1
63 39 m 1
 61 39 l 1
 61 37 l 1
 63 37 l 1
 63 39 l 1
63 35 m 1
 61 35 l 1
 61 33 l 1
 63 33 l 1
 63 35 l 1
63 31 m 1
 61 31 l 1
 61 29 l 1
 63 29 l 1
 63 31 l 1
49 27 m 1
 47 27 l 1
 47 25 l 1
 49 25 l 1
 49 27 l 1
63 27 m 1
 61 27 l 1
 61 25 l 1
 63 25 l 1
 63 27 l 1
55 15 m 1
 54 15 l 1
 54 14 l 1
 53 14 l 1
 53 12 l 1
 54 12 l 1
 54 13 l 1
 55 13 l 1
 55 15 l 1
20 13 m 1
 18 13 l 1
 18 12 l 1
 19 12 l 1
 19 10 l 1
 20 10 l 1
 20 13 l 1
18 12 m 1
 17 12 l 1
 17 11 l 1
 18 11 l 1
 18 12 l 1
56 13 m 1
 55 13 l 1
 55 12 l 1
 56 12 l 1
 56 13 l 1
EndSplineSet
EndChar

StartChar: custom_1_1_1_1_6
Encoding: 23384 23384 3416
Width: 70
Flags: H
LayerCount: 2
Fore
SplineSet
31 43 m 1
 29 43 l 1
 29 41 l 1
 31 41 l 1
 31 43 l 1
31 39 m 1
 29 39 l 1
 29 37 l 1
 31 37 l 1
 31 39 l 1
31 35 m 1
 29 35 l 1
 29 33 l 1
 31 33 l 1
 31 35 l 1
36 37 m 1
 34 37 l 1
 34 35 l 1
 36 35 l 1
 36 37 l 1
31 31 m 1
 29 31 l 1
 29 29 l 1
 31 29 l 1
 31 31 l 1
36 33 m 1
 34 33 l 1
 34 31 l 1
 36 31 l 1
 36 33 l 1
31 27 m 1
 29 27 l 1
 29 25 l 1
 31 25 l 1
 31 27 l 1
49 43 m 1
 47 43 l 1
 47 41 l 1
 49 41 l 1
 49 43 l 1
49 39 m 1
 47 39 l 1
 47 37 l 1
 49 37 l 1
 49 39 l 1
49 35 m 1
 47 35 l 1
 47 33 l 1
 49 33 l 1
 49 35 l 1
49 31 m 1
 47 31 l 1
 47 29 l 1
 49 29 l 1
 49 31 l 1
63 43 m 1
 61 43 l 1
 61 41 l 1
 63 41 l 1
 63 43 l 1
63 39 m 1
 61 39 l 1
 61 37 l 1
 63 37 l 1
 63 39 l 1
63 35 m 1
 61 35 l 1
 61 33 l 1
 63 33 l 1
 63 35 l 1
63 31 m 1
 61 31 l 1
 61 29 l 1
 63 29 l 1
 63 31 l 1
49 27 m 1
 47 27 l 1
 47 25 l 1
 49 25 l 1
 49 27 l 1
63 27 m 1
 61 27 l 1
 61 25 l 1
 63 25 l 1
 63 27 l 1
55 15 m 1
 53 15 l 1
 53 12 l 1
 54 12 l 1
 54 14 l 1
 55 14 l 1
 55 15 l 1
56 14 m 1
 55 14 l 1
 55 13 l 1
 56 13 l 1
 56 14 l 1
20 13 m 1
 18 13 l 1
 18 12 l 1
 19 12 l 1
 19 11 l 1
 21 11 l 1
 21 12 l 1
 20 12 l 1
 20 13 l 1
19 11 m 1
 18 11 l 1
 18 10 l 1
 19 10 l 1
 19 11 l 1
EndSplineSet
EndChar

StartChar: custom_1_1_1_1_7
Encoding: 23385 23385 3417
Width: 70
Flags: H
LayerCount: 2
Fore
SplineSet
31 43 m 1
 29 43 l 1
 29 41 l 1
 31 41 l 1
 31 43 l 1
31 39 m 1
 29 39 l 1
 29 37 l 1
 31 37 l 1
 31 39 l 1
31 35 m 1
 29 35 l 1
 29 33 l 1
 31 33 l 1
 31 35 l 1
36 37 m 1
 34 37 l 1
 34 35 l 1
 36 35 l 1
 36 37 l 1
31 31 m 1
 29 31 l 1
 29 29 l 1
 31 29 l 1
 31 31 l 1
36 33 m 1
 34 33 l 1
 34 31 l 1
 36 31 l 1
 36 33 l 1
31 27 m 1
 29 27 l 1
 29 25 l 1
 31 25 l 1
 31 27 l 1
49 43 m 1
 47 43 l 1
 47 41 l 1
 49 41 l 1
 49 43 l 1
49 39 m 1
 47 39 l 1
 47 37 l 1
 49 37 l 1
 49 39 l 1
49 35 m 1
 47 35 l 1
 47 33 l 1
 49 33 l 1
 49 35 l 1
49 31 m 1
 47 31 l 1
 47 29 l 1
 49 29 l 1
 49 31 l 1
63 43 m 1
 61 43 l 1
 61 41 l 1
 63 41 l 1
 63 43 l 1
63 39 m 1
 61 39 l 1
 61 37 l 1
 63 37 l 1
 63 39 l 1
63 35 m 1
 61 35 l 1
 61 33 l 1
 63 33 l 1
 63 35 l 1
63 31 m 1
 61 31 l 1
 61 29 l 1
 63 29 l 1
 63 31 l 1
49 27 m 1
 47 27 l 1
 47 25 l 1
 49 25 l 1
 49 27 l 1
53 14 m 1
 52 14 l 1
 52 13 l 1
 54 13 l 1
 54 14 l 1
 55 14 l 1
 55 15 l 1
 53 15 l 1
 53 14 l 1
63 27 m 1
 61 27 l 1
 61 25 l 1
 63 25 l 1
 63 27 l 1
21 13 m 1
 18 13 l 1
 18 12 l 1
 20 12 l 1
 20 11 l 1
 21 11 l 1
 21 13 l 1
20 11 m 1
 19 11 l 1
 19 10 l 1
 20 10 l 1
 20 11 l 1
55 13 m 1
 54 13 l 1
 54 12 l 1
 55 12 l 1
 55 13 l 1
EndSplineSet
EndChar

StartChar: custom_1_1_1_1_8
Encoding: 23386 23386 3418
Width: 70
Flags: H
LayerCount: 2
Fore
SplineSet
31 43 m 1
 29 43 l 1
 29 41 l 1
 31 41 l 1
 31 43 l 1
31 39 m 1
 29 39 l 1
 29 37 l 1
 31 37 l 1
 31 39 l 1
31 35 m 1
 29 35 l 1
 29 33 l 1
 31 33 l 1
 31 35 l 1
36 37 m 1
 34 37 l 1
 34 35 l 1
 36 35 l 1
 36 37 l 1
31 31 m 1
 29 31 l 1
 29 29 l 1
 31 29 l 1
 31 31 l 1
36 33 m 1
 34 33 l 1
 34 31 l 1
 36 31 l 1
 36 33 l 1
20 14 m 1
 19 14 l 1
 19 12 l 1
 20 12 l 1
 20 11 l 1
 21 11 l 1
 21 13 l 1
 20 13 l 1
 20 14 l 1
31 27 m 1
 29 27 l 1
 29 25 l 1
 31 25 l 1
 31 27 l 1
49 43 m 1
 47 43 l 1
 47 41 l 1
 49 41 l 1
 49 43 l 1
49 39 m 1
 47 39 l 1
 47 37 l 1
 49 37 l 1
 49 39 l 1
49 35 m 1
 47 35 l 1
 47 33 l 1
 49 33 l 1
 49 35 l 1
49 31 m 1
 47 31 l 1
 47 29 l 1
 49 29 l 1
 49 31 l 1
63 43 m 1
 61 43 l 1
 61 41 l 1
 63 41 l 1
 63 43 l 1
63 39 m 1
 61 39 l 1
 61 37 l 1
 63 37 l 1
 63 39 l 1
63 35 m 1
 61 35 l 1
 61 33 l 1
 63 33 l 1
 63 35 l 1
63 31 m 1
 61 31 l 1
 61 29 l 1
 63 29 l 1
 63 31 l 1
49 27 m 1
 47 27 l 1
 47 25 l 1
 49 25 l 1
 49 27 l 1
55 15 m 1
 52 15 l 1
 52 13 l 1
 53 13 l 1
 53 14 l 1
 55 14 l 1
 55 15 l 1
63 27 m 1
 61 27 l 1
 61 25 l 1
 63 25 l 1
 63 27 l 1
19 12 m 1
 18 12 l 1
 18 11 l 1
 19 11 l 1
 19 12 l 1
54 13 m 1
 53 13 l 1
 53 12 l 1
 54 12 l 1
 54 13 l 1
EndSplineSet
EndChar

StartChar: custom_1_1_1_1_9
Encoding: 23387 23387 3419
Width: 70
Flags: H
LayerCount: 2
Fore
SplineSet
31 43 m 1
 29 43 l 1
 29 41 l 1
 31 41 l 1
 31 43 l 1
31 39 m 1
 29 39 l 1
 29 37 l 1
 31 37 l 1
 31 39 l 1
31 35 m 1
 29 35 l 1
 29 33 l 1
 31 33 l 1
 31 35 l 1
36 37 m 1
 34 37 l 1
 34 35 l 1
 36 35 l 1
 36 37 l 1
31 31 m 1
 29 31 l 1
 29 29 l 1
 31 29 l 1
 31 31 l 1
36 33 m 1
 34 33 l 1
 34 31 l 1
 36 31 l 1
 36 33 l 1
21 14 m 1
 19 14 l 1
 19 13 l 1
 20 13 l 1
 20 11 l 1
 21 11 l 1
 21 14 l 1
31 27 m 1
 29 27 l 1
 29 25 l 1
 31 25 l 1
 31 27 l 1
49 43 m 1
 47 43 l 1
 47 41 l 1
 49 41 l 1
 49 43 l 1
49 39 m 1
 47 39 l 1
 47 37 l 1
 49 37 l 1
 49 39 l 1
49 35 m 1
 47 35 l 1
 47 33 l 1
 49 33 l 1
 49 35 l 1
49 31 m 1
 47 31 l 1
 47 29 l 1
 49 29 l 1
 49 31 l 1
63 43 m 1
 61 43 l 1
 61 41 l 1
 63 41 l 1
 63 43 l 1
63 39 m 1
 61 39 l 1
 61 37 l 1
 63 37 l 1
 63 39 l 1
63 35 m 1
 61 35 l 1
 61 33 l 1
 63 33 l 1
 63 35 l 1
63 31 m 1
 61 31 l 1
 61 29 l 1
 63 29 l 1
 63 31 l 1
49 27 m 1
 47 27 l 1
 47 25 l 1
 49 25 l 1
 49 27 l 1
53 15 m 1
 52 15 l 1
 52 13 l 1
 53 13 l 1
 53 14 l 1
 54 14 l 1
 54 16 l 1
 53 16 l 1
 53 15 l 1
63 27 m 1
 61 27 l 1
 61 25 l 1
 63 25 l 1
 63 27 l 1
55 14 m 1
 54 14 l 1
 54 13 l 1
 55 13 l 1
 55 14 l 1
19 13 m 1
 18 13 l 1
 18 12 l 1
 19 12 l 1
 19 13 l 1
EndSplineSet
EndChar

StartChar: custom_1_1_1_2_0
Encoding: 23388 23388 3420
Width: 70
Flags: H
LayerCount: 2
Fore
SplineSet
31 43 m 1
 29 43 l 1
 29 41 l 1
 31 41 l 1
 31 43 l 1
31 39 m 1
 29 39 l 1
 29 37 l 1
 31 37 l 1
 31 39 l 1
31 35 m 1
 29 35 l 1
 29 33 l 1
 31 33 l 1
 31 35 l 1
36 37 m 1
 34 37 l 1
 34 35 l 1
 36 35 l 1
 36 37 l 1
31 31 m 1
 29 31 l 1
 29 29 l 1
 31 29 l 1
 31 31 l 1
36 33 m 1
 34 33 l 1
 34 31 l 1
 36 31 l 1
 36 33 l 1
21 14 m 1
 19 14 l 1
 19 13 l 1
 20 13 l 1
 20 12 l 1
 22 12 l 1
 22 13 l 1
 21 13 l 1
 21 14 l 1
31 27 m 1
 29 27 l 1
 29 25 l 1
 31 25 l 1
 31 27 l 1
49 43 m 1
 47 43 l 1
 47 41 l 1
 49 41 l 1
 49 43 l 1
49 39 m 1
 47 39 l 1
 47 37 l 1
 49 37 l 1
 49 39 l 1
49 35 m 1
 47 35 l 1
 47 33 l 1
 49 33 l 1
 49 35 l 1
49 31 m 1
 47 31 l 1
 47 29 l 1
 49 29 l 1
 49 31 l 1
63 43 m 1
 61 43 l 1
 61 41 l 1
 63 41 l 1
 63 43 l 1
63 39 m 1
 61 39 l 1
 61 37 l 1
 63 37 l 1
 63 39 l 1
63 35 m 1
 61 35 l 1
 61 33 l 1
 63 33 l 1
 63 35 l 1
63 31 m 1
 61 31 l 1
 61 29 l 1
 63 29 l 1
 63 31 l 1
49 27 m 1
 47 27 l 1
 47 25 l 1
 49 25 l 1
 49 27 l 1
54 16 m 1
 52 16 l 1
 52 13 l 1
 53 13 l 1
 53 15 l 1
 54 15 l 1
 54 16 l 1
63 27 m 1
 61 27 l 1
 61 25 l 1
 63 25 l 1
 63 27 l 1
55 15 m 1
 54 15 l 1
 54 14 l 1
 55 14 l 1
 55 15 l 1
20 12 m 1
 19 12 l 1
 19 11 l 1
 20 11 l 1
 20 12 l 1
EndSplineSet
EndChar

StartChar: custom_1_1_1_2_1
Encoding: 23389 23389 3421
Width: 70
Flags: H
LayerCount: 2
Fore
SplineSet
31 43 m 1
 29 43 l 1
 29 41 l 1
 31 41 l 1
 31 43 l 1
31 39 m 1
 29 39 l 1
 29 37 l 1
 31 37 l 1
 31 39 l 1
31 35 m 1
 29 35 l 1
 29 33 l 1
 31 33 l 1
 31 35 l 1
36 37 m 1
 34 37 l 1
 34 35 l 1
 36 35 l 1
 36 37 l 1
31 31 m 1
 29 31 l 1
 29 29 l 1
 31 29 l 1
 31 31 l 1
36 33 m 1
 34 33 l 1
 34 31 l 1
 36 31 l 1
 36 33 l 1
22 14 m 1
 19 14 l 1
 19 13 l 1
 21 13 l 1
 21 12 l 1
 22 12 l 1
 22 14 l 1
31 27 m 1
 29 27 l 1
 29 25 l 1
 31 25 l 1
 31 27 l 1
49 43 m 1
 47 43 l 1
 47 41 l 1
 49 41 l 1
 49 43 l 1
49 39 m 1
 47 39 l 1
 47 37 l 1
 49 37 l 1
 49 39 l 1
49 35 m 1
 47 35 l 1
 47 33 l 1
 49 33 l 1
 49 35 l 1
49 31 m 1
 47 31 l 1
 47 29 l 1
 49 29 l 1
 49 31 l 1
63 43 m 1
 61 43 l 1
 61 41 l 1
 63 41 l 1
 63 43 l 1
63 39 m 1
 61 39 l 1
 61 37 l 1
 63 37 l 1
 63 39 l 1
63 35 m 1
 61 35 l 1
 61 33 l 1
 63 33 l 1
 63 35 l 1
63 31 m 1
 61 31 l 1
 61 29 l 1
 63 29 l 1
 63 31 l 1
49 27 m 1
 47 27 l 1
 47 25 l 1
 49 25 l 1
 49 27 l 1
54 16 m 1
 52 16 l 1
 52 15 l 1
 51 15 l 1
 51 14 l 1
 53 14 l 1
 53 15 l 1
 54 15 l 1
 54 16 l 1
63 27 m 1
 61 27 l 1
 61 25 l 1
 63 25 l 1
 63 27 l 1
54 14 m 1
 53 14 l 1
 53 13 l 1
 54 13 l 1
 54 14 l 1
21 12 m 1
 20 12 l 1
 20 11 l 1
 21 11 l 1
 21 12 l 1
EndSplineSet
EndChar

StartChar: custom_1_1_1_2_2
Encoding: 23390 23390 3422
Width: 70
Flags: H
LayerCount: 2
Fore
SplineSet
31 43 m 1
 29 43 l 1
 29 41 l 1
 31 41 l 1
 31 43 l 1
31 39 m 1
 29 39 l 1
 29 37 l 1
 31 37 l 1
 31 39 l 1
31 35 m 1
 29 35 l 1
 29 33 l 1
 31 33 l 1
 31 35 l 1
36 37 m 1
 34 37 l 1
 34 35 l 1
 36 35 l 1
 36 37 l 1
31 31 m 1
 29 31 l 1
 29 29 l 1
 31 29 l 1
 31 31 l 1
36 33 m 1
 34 33 l 1
 34 31 l 1
 36 31 l 1
 36 33 l 1
21 15 m 1
 20 15 l 1
 20 13 l 1
 21 13 l 1
 21 12 l 1
 22 12 l 1
 22 14 l 1
 21 14 l 1
 21 15 l 1
31 27 m 1
 29 27 l 1
 29 25 l 1
 31 25 l 1
 31 27 l 1
49 43 m 1
 47 43 l 1
 47 41 l 1
 49 41 l 1
 49 43 l 1
49 39 m 1
 47 39 l 1
 47 37 l 1
 49 37 l 1
 49 39 l 1
49 35 m 1
 47 35 l 1
 47 33 l 1
 49 33 l 1
 49 35 l 1
49 31 m 1
 47 31 l 1
 47 29 l 1
 49 29 l 1
 49 31 l 1
63 43 m 1
 61 43 l 1
 61 41 l 1
 63 41 l 1
 63 43 l 1
63 39 m 1
 61 39 l 1
 61 37 l 1
 63 37 l 1
 63 39 l 1
63 35 m 1
 61 35 l 1
 61 33 l 1
 63 33 l 1
 63 35 l 1
63 31 m 1
 61 31 l 1
 61 29 l 1
 63 29 l 1
 63 31 l 1
49 27 m 1
 47 27 l 1
 47 25 l 1
 49 25 l 1
 49 27 l 1
54 16 m 1
 51 16 l 1
 51 14 l 1
 52 14 l 1
 52 15 l 1
 54 15 l 1
 54 16 l 1
53 14 m 1
 52 14 l 1
 52 13 l 1
 53 13 l 1
 53 14 l 1
63 27 m 1
 61 27 l 1
 61 25 l 1
 63 25 l 1
 63 27 l 1
20 13 m 1
 19 13 l 1
 19 12 l 1
 20 12 l 1
 20 13 l 1
EndSplineSet
EndChar

StartChar: custom_1_1_1_2_3
Encoding: 23391 23391 3423
Width: 70
Flags: H
LayerCount: 2
Fore
SplineSet
31 43 m 1
 29 43 l 1
 29 41 l 1
 31 41 l 1
 31 43 l 1
31 39 m 1
 29 39 l 1
 29 37 l 1
 31 37 l 1
 31 39 l 1
31 35 m 1
 29 35 l 1
 29 33 l 1
 31 33 l 1
 31 35 l 1
36 37 m 1
 34 37 l 1
 34 35 l 1
 36 35 l 1
 36 37 l 1
31 31 m 1
 29 31 l 1
 29 29 l 1
 31 29 l 1
 31 31 l 1
36 33 m 1
 34 33 l 1
 34 31 l 1
 36 31 l 1
 36 33 l 1
22 15 m 1
 20 15 l 1
 20 14 l 1
 21 14 l 1
 21 12 l 1
 22 12 l 1
 22 15 l 1
20 14 m 1
 19 14 l 1
 19 13 l 1
 20 13 l 1
 20 14 l 1
31 27 m 1
 29 27 l 1
 29 25 l 1
 31 25 l 1
 31 27 l 1
49 43 m 1
 47 43 l 1
 47 41 l 1
 49 41 l 1
 49 43 l 1
49 39 m 1
 47 39 l 1
 47 37 l 1
 49 37 l 1
 49 39 l 1
49 35 m 1
 47 35 l 1
 47 33 l 1
 49 33 l 1
 49 35 l 1
49 31 m 1
 47 31 l 1
 47 29 l 1
 49 29 l 1
 49 31 l 1
63 43 m 1
 61 43 l 1
 61 41 l 1
 63 41 l 1
 63 43 l 1
63 39 m 1
 61 39 l 1
 61 37 l 1
 63 37 l 1
 63 39 l 1
63 35 m 1
 61 35 l 1
 61 33 l 1
 63 33 l 1
 63 35 l 1
63 31 m 1
 61 31 l 1
 61 29 l 1
 63 29 l 1
 63 31 l 1
49 27 m 1
 47 27 l 1
 47 25 l 1
 49 25 l 1
 49 27 l 1
53 17 m 1
 52 17 l 1
 52 16 l 1
 51 16 l 1
 51 14 l 1
 52 14 l 1
 52 15 l 1
 53 15 l 1
 53 17 l 1
63 27 m 1
 61 27 l 1
 61 25 l 1
 63 25 l 1
 63 27 l 1
54 15 m 1
 53 15 l 1
 53 14 l 1
 54 14 l 1
 54 15 l 1
63 -1 m 1
 62 -1 l 1
 62 -2 l 1
 63 -2 l 1
 63 -1 l 1
EndSplineSet
EndChar

StartChar: custom_1_1_1_2_4
Encoding: 23392 23392 3424
Width: 70
Flags: H
LayerCount: 2
Fore
SplineSet
31 43 m 1
 29 43 l 1
 29 41 l 1
 31 41 l 1
 31 43 l 1
31 39 m 1
 29 39 l 1
 29 37 l 1
 31 37 l 1
 31 39 l 1
31 35 m 1
 29 35 l 1
 29 33 l 1
 31 33 l 1
 31 35 l 1
36 37 m 1
 34 37 l 1
 34 35 l 1
 36 35 l 1
 36 37 l 1
31 31 m 1
 29 31 l 1
 29 29 l 1
 31 29 l 1
 31 31 l 1
36 33 m 1
 34 33 l 1
 34 31 l 1
 36 31 l 1
 36 33 l 1
22 15 m 1
 20 15 l 1
 20 14 l 1
 21 14 l 1
 21 13 l 1
 23 13 l 1
 23 14 l 1
 22 14 l 1
 22 15 l 1
31 27 m 1
 29 27 l 1
 29 25 l 1
 31 25 l 1
 31 27 l 1
49 43 m 1
 47 43 l 1
 47 41 l 1
 49 41 l 1
 49 43 l 1
49 39 m 1
 47 39 l 1
 47 37 l 1
 49 37 l 1
 49 39 l 1
49 35 m 1
 47 35 l 1
 47 33 l 1
 49 33 l 1
 49 35 l 1
49 31 m 1
 47 31 l 1
 47 29 l 1
 49 29 l 1
 49 31 l 1
63 43 m 1
 61 43 l 1
 61 41 l 1
 63 41 l 1
 63 43 l 1
63 39 m 1
 61 39 l 1
 61 37 l 1
 63 37 l 1
 63 39 l 1
63 35 m 1
 61 35 l 1
 61 33 l 1
 63 33 l 1
 63 35 l 1
63 31 m 1
 61 31 l 1
 61 29 l 1
 63 29 l 1
 63 31 l 1
49 27 m 1
 47 27 l 1
 47 25 l 1
 49 25 l 1
 49 27 l 1
53 17 m 1
 51 17 l 1
 51 14 l 1
 52 14 l 1
 52 16 l 1
 53 16 l 1
 53 17 l 1
63 27 m 1
 61 27 l 1
 61 25 l 1
 63 25 l 1
 63 27 l 1
54 16 m 1
 53 16 l 1
 53 15 l 1
 54 15 l 1
 54 16 l 1
21 13 m 1
 20 13 l 1
 20 12 l 1
 21 12 l 1
 21 13 l 1
63 -1 m 1
 61 -1 l 1
 61 -2 l 1
 63 -2 l 1
 63 -1 l 1
EndSplineSet
EndChar

StartChar: custom_1_1_1_2_5
Encoding: 23393 23393 3425
Width: 70
Flags: H
LayerCount: 2
Fore
SplineSet
31 43 m 1
 29 43 l 1
 29 41 l 1
 31 41 l 1
 31 43 l 1
31 39 m 1
 29 39 l 1
 29 37 l 1
 31 37 l 1
 31 39 l 1
31 35 m 1
 29 35 l 1
 29 33 l 1
 31 33 l 1
 31 35 l 1
36 37 m 1
 34 37 l 1
 34 35 l 1
 36 35 l 1
 36 37 l 1
31 31 m 1
 29 31 l 1
 29 29 l 1
 31 29 l 1
 31 31 l 1
36 33 m 1
 34 33 l 1
 34 31 l 1
 36 31 l 1
 36 33 l 1
23 15 m 1
 20 15 l 1
 20 14 l 1
 22 14 l 1
 22 13 l 1
 23 13 l 1
 23 15 l 1
31 27 m 1
 29 27 l 1
 29 25 l 1
 31 25 l 1
 31 27 l 1
49 43 m 1
 47 43 l 1
 47 41 l 1
 49 41 l 1
 49 43 l 1
49 39 m 1
 47 39 l 1
 47 37 l 1
 49 37 l 1
 49 39 l 1
49 35 m 1
 47 35 l 1
 47 33 l 1
 49 33 l 1
 49 35 l 1
49 31 m 1
 47 31 l 1
 47 29 l 1
 49 29 l 1
 49 31 l 1
63 43 m 1
 61 43 l 1
 61 41 l 1
 63 41 l 1
 63 43 l 1
63 39 m 1
 61 39 l 1
 61 37 l 1
 63 37 l 1
 63 39 l 1
63 35 m 1
 61 35 l 1
 61 33 l 1
 63 33 l 1
 63 35 l 1
63 31 m 1
 61 31 l 1
 61 29 l 1
 63 29 l 1
 63 31 l 1
49 27 m 1
 47 27 l 1
 47 25 l 1
 49 25 l 1
 49 27 l 1
51 16 m 1
 50 16 l 1
 50 15 l 1
 52 15 l 1
 52 16 l 1
 53 16 l 1
 53 17 l 1
 51 17 l 1
 51 16 l 1
53 15 m 1
 52 15 l 1
 52 14 l 1
 53 14 l 1
 53 15 l 1
63 27 m 1
 61 27 l 1
 61 25 l 1
 63 25 l 1
 63 27 l 1
22 13 m 1
 21 13 l 1
 21 12 l 1
 22 12 l 1
 22 13 l 1
63 -1 m 1
 61 -1 l 1
 61 -2 l 1
 63 -2 l 1
 63 -1 l 1
EndSplineSet
EndChar

StartChar: custom_1_1_1_2_6
Encoding: 23394 23394 3426
Width: 70
Flags: H
LayerCount: 2
Fore
SplineSet
31 43 m 1
 29 43 l 1
 29 41 l 1
 31 41 l 1
 31 43 l 1
31 39 m 1
 29 39 l 1
 29 37 l 1
 31 37 l 1
 31 39 l 1
31 35 m 1
 29 35 l 1
 29 33 l 1
 31 33 l 1
 31 35 l 1
36 37 m 1
 34 37 l 1
 34 35 l 1
 36 35 l 1
 36 37 l 1
31 31 m 1
 29 31 l 1
 29 29 l 1
 31 29 l 1
 31 31 l 1
36 33 m 1
 34 33 l 1
 34 31 l 1
 36 31 l 1
 36 33 l 1
21 14 m 1
 20 14 l 1
 20 13 l 1
 21 13 l 1
 21 14 l 1
31 27 m 1
 29 27 l 1
 29 25 l 1
 31 25 l 1
 31 27 l 1
22 16 m 1
 21 16 l 1
 21 14 l 1
 22 14 l 1
 22 13 l 1
 23 13 l 1
 23 15 l 1
 22 15 l 1
 22 16 l 1
49 43 m 1
 47 43 l 1
 47 41 l 1
 49 41 l 1
 49 43 l 1
49 39 m 1
 47 39 l 1
 47 37 l 1
 49 37 l 1
 49 39 l 1
49 35 m 1
 47 35 l 1
 47 33 l 1
 49 33 l 1
 49 35 l 1
49 31 m 1
 47 31 l 1
 47 29 l 1
 49 29 l 1
 49 31 l 1
63 43 m 1
 61 43 l 1
 61 41 l 1
 63 41 l 1
 63 43 l 1
63 39 m 1
 61 39 l 1
 61 37 l 1
 63 37 l 1
 63 39 l 1
63 35 m 1
 61 35 l 1
 61 33 l 1
 63 33 l 1
 63 35 l 1
63 31 m 1
 61 31 l 1
 61 29 l 1
 63 29 l 1
 63 31 l 1
49 27 m 1
 47 27 l 1
 47 25 l 1
 49 25 l 1
 49 27 l 1
53 17 m 1
 50 17 l 1
 50 15 l 1
 51 15 l 1
 51 16 l 1
 53 16 l 1
 53 17 l 1
52 15 m 1
 51 15 l 1
 51 14 l 1
 52 14 l 1
 52 15 l 1
63 27 m 1
 61 27 l 1
 61 25 l 1
 63 25 l 1
 63 27 l 1
63 -1 m 1
 60 -1 l 1
 60 -2 l 1
 63 -2 l 1
 63 -1 l 1
EndSplineSet
EndChar

StartChar: custom_1_1_1_2_7
Encoding: 23395 23395 3427
Width: 70
Flags: H
LayerCount: 2
Fore
SplineSet
31 43 m 1
 29 43 l 1
 29 41 l 1
 31 41 l 1
 31 43 l 1
31 39 m 1
 29 39 l 1
 29 37 l 1
 31 37 l 1
 31 39 l 1
31 35 m 1
 29 35 l 1
 29 33 l 1
 31 33 l 1
 31 35 l 1
36 37 m 1
 34 37 l 1
 34 35 l 1
 36 35 l 1
 36 37 l 1
31 31 m 1
 29 31 l 1
 29 29 l 1
 31 29 l 1
 31 31 l 1
36 33 m 1
 34 33 l 1
 34 31 l 1
 36 31 l 1
 36 33 l 1
21 15 m 1
 20 15 l 1
 20 14 l 1
 21 14 l 1
 21 15 l 1
31 27 m 1
 29 27 l 1
 29 25 l 1
 31 25 l 1
 31 27 l 1
23 16 m 1
 21 16 l 1
 21 15 l 1
 22 15 l 1
 22 13 l 1
 23 13 l 1
 23 16 l 1
49 43 m 1
 47 43 l 1
 47 41 l 1
 49 41 l 1
 49 43 l 1
49 39 m 1
 47 39 l 1
 47 37 l 1
 49 37 l 1
 49 39 l 1
49 35 m 1
 47 35 l 1
 47 33 l 1
 49 33 l 1
 49 35 l 1
49 31 m 1
 47 31 l 1
 47 29 l 1
 49 29 l 1
 49 31 l 1
63 43 m 1
 61 43 l 1
 61 41 l 1
 63 41 l 1
 63 43 l 1
63 39 m 1
 61 39 l 1
 61 37 l 1
 63 37 l 1
 63 39 l 1
63 35 m 1
 61 35 l 1
 61 33 l 1
 63 33 l 1
 63 35 l 1
63 31 m 1
 61 31 l 1
 61 29 l 1
 63 29 l 1
 63 31 l 1
49 27 m 1
 47 27 l 1
 47 25 l 1
 49 25 l 1
 49 27 l 1
52 18 m 1
 51 18 l 1
 51 17 l 1
 50 17 l 1
 50 15 l 1
 51 15 l 1
 51 16 l 1
 52 16 l 1
 52 18 l 1
53 16 m 1
 52 16 l 1
 52 15 l 1
 53 15 l 1
 53 16 l 1
63 27 m 1
 61 27 l 1
 61 25 l 1
 63 25 l 1
 63 27 l 1
61 -1 m 1
 60 -1 l 1
 60 -2 l 1
 62 -2 l 1
 62 0 l 1
 61 0 l 1
 61 -1 l 1
EndSplineSet
EndChar

StartChar: custom_1_1_1_2_8
Encoding: 23396 23396 3428
Width: 70
Flags: H
LayerCount: 2
Fore
SplineSet
31 43 m 1
 29 43 l 1
 29 41 l 1
 31 41 l 1
 31 43 l 1
31 39 m 1
 29 39 l 1
 29 37 l 1
 31 37 l 1
 31 39 l 1
31 35 m 1
 29 35 l 1
 29 33 l 1
 31 33 l 1
 31 35 l 1
36 37 m 1
 34 37 l 1
 34 35 l 1
 36 35 l 1
 36 37 l 1
31 31 m 1
 29 31 l 1
 29 29 l 1
 31 29 l 1
 31 31 l 1
36 33 m 1
 34 33 l 1
 34 31 l 1
 36 31 l 1
 36 33 l 1
31 27 m 1
 29 27 l 1
 29 25 l 1
 31 25 l 1
 31 27 l 1
23 16 m 1
 21 16 l 1
 21 15 l 1
 22 15 l 1
 22 14 l 1
 24 14 l 1
 24 15 l 1
 23 15 l 1
 23 16 l 1
22 14 m 1
 21 14 l 1
 21 13 l 1
 22 13 l 1
 22 14 l 1
49 43 m 1
 47 43 l 1
 47 41 l 1
 49 41 l 1
 49 43 l 1
49 39 m 1
 47 39 l 1
 47 37 l 1
 49 37 l 1
 49 39 l 1
49 35 m 1
 47 35 l 1
 47 33 l 1
 49 33 l 1
 49 35 l 1
49 31 m 1
 47 31 l 1
 47 29 l 1
 49 29 l 1
 49 31 l 1
63 43 m 1
 61 43 l 1
 61 41 l 1
 63 41 l 1
 63 43 l 1
63 39 m 1
 61 39 l 1
 61 37 l 1
 63 37 l 1
 63 39 l 1
63 35 m 1
 61 35 l 1
 61 33 l 1
 63 33 l 1
 63 35 l 1
63 31 m 1
 61 31 l 1
 61 29 l 1
 63 29 l 1
 63 31 l 1
49 27 m 1
 47 27 l 1
 47 25 l 1
 49 25 l 1
 49 27 l 1
52 18 m 1
 50 18 l 1
 50 15 l 1
 51 15 l 1
 51 17 l 1
 52 17 l 1
 52 18 l 1
53 17 m 1
 52 17 l 1
 52 16 l 1
 53 16 l 1
 53 17 l 1
63 27 m 1
 61 27 l 1
 61 25 l 1
 63 25 l 1
 63 27 l 1
62 0 m 1
 60 0 l 1
 60 -2 l 1
 61 -2 l 1
 61 -1 l 1
 62 -1 l 1
 62 0 l 1
63 -1 m 1
 62 -1 l 1
 62 -2 l 1
 63 -2 l 1
 63 -1 l 1
EndSplineSet
EndChar

StartChar: custom_1_1_1_2_9
Encoding: 23397 23397 3429
Width: 70
Flags: H
LayerCount: 2
Fore
SplineSet
31 43 m 1
 29 43 l 1
 29 41 l 1
 31 41 l 1
 31 43 l 1
31 39 m 1
 29 39 l 1
 29 37 l 1
 31 37 l 1
 31 39 l 1
31 35 m 1
 29 35 l 1
 29 33 l 1
 31 33 l 1
 31 35 l 1
36 37 m 1
 34 37 l 1
 34 35 l 1
 36 35 l 1
 36 37 l 1
31 31 m 1
 29 31 l 1
 29 29 l 1
 31 29 l 1
 31 31 l 1
36 33 m 1
 34 33 l 1
 34 31 l 1
 36 31 l 1
 36 33 l 1
31 27 m 1
 29 27 l 1
 29 25 l 1
 31 25 l 1
 31 27 l 1
24 16 m 1
 21 16 l 1
 21 15 l 1
 23 15 l 1
 23 14 l 1
 24 14 l 1
 24 16 l 1
23 14 m 1
 22 14 l 1
 22 13 l 1
 23 13 l 1
 23 14 l 1
49 43 m 1
 47 43 l 1
 47 41 l 1
 49 41 l 1
 49 43 l 1
49 39 m 1
 47 39 l 1
 47 37 l 1
 49 37 l 1
 49 39 l 1
49 35 m 1
 47 35 l 1
 47 33 l 1
 49 33 l 1
 49 35 l 1
49 31 m 1
 47 31 l 1
 47 29 l 1
 49 29 l 1
 49 31 l 1
63 43 m 1
 61 43 l 1
 61 41 l 1
 63 41 l 1
 63 43 l 1
63 39 m 1
 61 39 l 1
 61 37 l 1
 63 37 l 1
 63 39 l 1
63 35 m 1
 61 35 l 1
 61 33 l 1
 63 33 l 1
 63 35 l 1
63 31 m 1
 61 31 l 1
 61 29 l 1
 63 29 l 1
 63 31 l 1
49 27 m 1
 47 27 l 1
 47 25 l 1
 49 25 l 1
 49 27 l 1
52 18 m 1
 50 18 l 1
 50 17 l 1
 49 17 l 1
 49 16 l 1
 51 16 l 1
 51 17 l 1
 52 17 l 1
 52 18 l 1
52 16 m 1
 51 16 l 1
 51 15 l 1
 52 15 l 1
 52 16 l 1
63 27 m 1
 61 27 l 1
 61 25 l 1
 63 25 l 1
 63 27 l 1
62 0 m 1
 60 0 l 1
 60 -1 l 1
 59 -1 l 1
 59 -2 l 1
 61 -2 l 1
 61 -1 l 1
 62 -1 l 1
 62 0 l 1
EndSplineSet
EndChar

StartChar: custom_1_1_1_3_0
Encoding: 23398 23398 3430
Width: 70
Flags: H
LayerCount: 2
Fore
SplineSet
31 43 m 1
 29 43 l 1
 29 41 l 1
 31 41 l 1
 31 43 l 1
31 39 m 1
 29 39 l 1
 29 37 l 1
 31 37 l 1
 31 39 l 1
31 35 m 1
 29 35 l 1
 29 33 l 1
 31 33 l 1
 31 35 l 1
36 37 m 1
 34 37 l 1
 34 35 l 1
 36 35 l 1
 36 37 l 1
31 31 m 1
 29 31 l 1
 29 29 l 1
 31 29 l 1
 31 31 l 1
36 33 m 1
 34 33 l 1
 34 31 l 1
 36 31 l 1
 36 33 l 1
31 27 m 1
 29 27 l 1
 29 25 l 1
 31 25 l 1
 31 27 l 1
23 17 m 1
 22 17 l 1
 22 15 l 1
 23 15 l 1
 23 14 l 1
 24 14 l 1
 24 16 l 1
 23 16 l 1
 23 17 l 1
22 15 m 1
 21 15 l 1
 21 14 l 1
 22 14 l 1
 22 15 l 1
49 43 m 1
 47 43 l 1
 47 41 l 1
 49 41 l 1
 49 43 l 1
49 39 m 1
 47 39 l 1
 47 37 l 1
 49 37 l 1
 49 39 l 1
49 35 m 1
 47 35 l 1
 47 33 l 1
 49 33 l 1
 49 35 l 1
49 31 m 1
 47 31 l 1
 47 29 l 1
 49 29 l 1
 49 31 l 1
63 43 m 1
 61 43 l 1
 61 41 l 1
 63 41 l 1
 63 43 l 1
63 39 m 1
 61 39 l 1
 61 37 l 1
 63 37 l 1
 63 39 l 1
63 35 m 1
 61 35 l 1
 61 33 l 1
 63 33 l 1
 63 35 l 1
63 31 m 1
 61 31 l 1
 61 29 l 1
 63 29 l 1
 63 31 l 1
49 27 m 1
 47 27 l 1
 47 25 l 1
 49 25 l 1
 49 27 l 1
52 18 m 1
 49 18 l 1
 49 16 l 1
 50 16 l 1
 50 17 l 1
 52 17 l 1
 52 18 l 1
51 16 m 1
 50 16 l 1
 50 15 l 1
 51 15 l 1
 51 16 l 1
63 27 m 1
 61 27 l 1
 61 25 l 1
 63 25 l 1
 63 27 l 1
62 0 m 1
 59 0 l 1
 59 -2 l 1
 60 -2 l 1
 60 -1 l 1
 62 -1 l 1
 62 0 l 1
EndSplineSet
EndChar

StartChar: custom_1_1_1_3_1
Encoding: 23399 23399 3431
Width: 70
Flags: H
LayerCount: 2
Fore
SplineSet
31 43 m 1
 29 43 l 1
 29 41 l 1
 31 41 l 1
 31 43 l 1
31 39 m 1
 29 39 l 1
 29 37 l 1
 31 37 l 1
 31 39 l 1
31 35 m 1
 29 35 l 1
 29 33 l 1
 31 33 l 1
 31 35 l 1
36 37 m 1
 34 37 l 1
 34 35 l 1
 36 35 l 1
 36 37 l 1
31 31 m 1
 29 31 l 1
 29 29 l 1
 31 29 l 1
 31 31 l 1
36 33 m 1
 34 33 l 1
 34 31 l 1
 36 31 l 1
 36 33 l 1
31 27 m 1
 29 27 l 1
 29 25 l 1
 31 25 l 1
 31 27 l 1
24 17 m 1
 22 17 l 1
 22 16 l 1
 23 16 l 1
 23 14 l 1
 24 14 l 1
 24 17 l 1
22 16 m 1
 21 16 l 1
 21 15 l 1
 22 15 l 1
 22 16 l 1
49 43 m 1
 47 43 l 1
 47 41 l 1
 49 41 l 1
 49 43 l 1
49 39 m 1
 47 39 l 1
 47 37 l 1
 49 37 l 1
 49 39 l 1
49 35 m 1
 47 35 l 1
 47 33 l 1
 49 33 l 1
 49 35 l 1
49 31 m 1
 47 31 l 1
 47 29 l 1
 49 29 l 1
 49 31 l 1
63 43 m 1
 61 43 l 1
 61 41 l 1
 63 41 l 1
 63 43 l 1
63 39 m 1
 61 39 l 1
 61 37 l 1
 63 37 l 1
 63 39 l 1
63 35 m 1
 61 35 l 1
 61 33 l 1
 63 33 l 1
 63 35 l 1
63 31 m 1
 61 31 l 1
 61 29 l 1
 63 29 l 1
 63 31 l 1
49 27 m 1
 47 27 l 1
 47 25 l 1
 49 25 l 1
 49 27 l 1
51 19 m 1
 50 19 l 1
 50 18 l 1
 49 18 l 1
 49 16 l 1
 50 16 l 1
 50 17 l 1
 51 17 l 1
 51 19 l 1
52 17 m 1
 51 17 l 1
 51 16 l 1
 52 16 l 1
 52 17 l 1
63 27 m 1
 61 27 l 1
 61 25 l 1
 63 25 l 1
 63 27 l 1
61 1 m 1
 60 1 l 1
 60 0 l 1
 59 0 l 1
 59 -2 l 1
 60 -2 l 1
 60 -1 l 1
 61 -1 l 1
 61 1 l 1
62 -1 m 1
 61 -1 l 1
 61 -2 l 1
 62 -2 l 1
 62 -1 l 1
EndSplineSet
EndChar

StartChar: custom_1_1_1_3_2
Encoding: 23400 23400 3432
Width: 70
Flags: H
LayerCount: 2
Fore
SplineSet
31 43 m 1
 29 43 l 1
 29 41 l 1
 31 41 l 1
 31 43 l 1
31 39 m 1
 29 39 l 1
 29 37 l 1
 31 37 l 1
 31 39 l 1
31 35 m 1
 29 35 l 1
 29 33 l 1
 31 33 l 1
 31 35 l 1
36 37 m 1
 34 37 l 1
 34 35 l 1
 36 35 l 1
 36 37 l 1
31 31 m 1
 29 31 l 1
 29 29 l 1
 31 29 l 1
 31 31 l 1
36 33 m 1
 34 33 l 1
 34 31 l 1
 36 31 l 1
 36 33 l 1
31 27 m 1
 29 27 l 1
 29 25 l 1
 31 25 l 1
 31 27 l 1
24 17 m 1
 22 17 l 1
 22 16 l 1
 23 16 l 1
 23 15 l 1
 25 15 l 1
 25 16 l 1
 24 16 l 1
 24 17 l 1
23 15 m 1
 22 15 l 1
 22 14 l 1
 23 14 l 1
 23 15 l 1
49 43 m 1
 47 43 l 1
 47 41 l 1
 49 41 l 1
 49 43 l 1
49 39 m 1
 47 39 l 1
 47 37 l 1
 49 37 l 1
 49 39 l 1
49 35 m 1
 47 35 l 1
 47 33 l 1
 49 33 l 1
 49 35 l 1
49 31 m 1
 47 31 l 1
 47 29 l 1
 49 29 l 1
 49 31 l 1
63 43 m 1
 61 43 l 1
 61 41 l 1
 63 41 l 1
 63 43 l 1
63 39 m 1
 61 39 l 1
 61 37 l 1
 63 37 l 1
 63 39 l 1
63 35 m 1
 61 35 l 1
 61 33 l 1
 63 33 l 1
 63 35 l 1
63 31 m 1
 61 31 l 1
 61 29 l 1
 63 29 l 1
 63 31 l 1
49 27 m 1
 47 27 l 1
 47 25 l 1
 49 25 l 1
 49 27 l 1
51 19 m 1
 49 19 l 1
 49 16 l 1
 50 16 l 1
 50 18 l 1
 51 18 l 1
 51 19 l 1
52 18 m 1
 51 18 l 1
 51 17 l 1
 52 17 l 1
 52 18 l 1
63 27 m 1
 61 27 l 1
 61 25 l 1
 63 25 l 1
 63 27 l 1
61 1 m 1
 59 1 l 1
 59 -2 l 1
 60 -2 l 1
 60 0 l 1
 61 0 l 1
 61 1 l 1
62 0 m 1
 61 0 l 1
 61 -1 l 1
 62 -1 l 1
 62 0 l 1
EndSplineSet
EndChar

StartChar: custom_1_1_1_3_3
Encoding: 23401 23401 3433
Width: 70
Flags: H
LayerCount: 2
Fore
SplineSet
31 43 m 1
 29 43 l 1
 29 41 l 1
 31 41 l 1
 31 43 l 1
31 39 m 1
 29 39 l 1
 29 37 l 1
 31 37 l 1
 31 39 l 1
31 35 m 1
 29 35 l 1
 29 33 l 1
 31 33 l 1
 31 35 l 1
36 37 m 1
 34 37 l 1
 34 35 l 1
 36 35 l 1
 36 37 l 1
31 31 m 1
 29 31 l 1
 29 29 l 1
 31 29 l 1
 31 31 l 1
36 33 m 1
 34 33 l 1
 34 31 l 1
 36 31 l 1
 36 33 l 1
31 27 m 1
 29 27 l 1
 29 25 l 1
 31 25 l 1
 31 27 l 1
25 17 m 1
 22 17 l 1
 22 16 l 1
 24 16 l 1
 24 15 l 1
 25 15 l 1
 25 17 l 1
24 15 m 1
 23 15 l 1
 23 14 l 1
 24 14 l 1
 24 15 l 1
49 43 m 1
 47 43 l 1
 47 41 l 1
 49 41 l 1
 49 43 l 1
49 39 m 1
 47 39 l 1
 47 37 l 1
 49 37 l 1
 49 39 l 1
49 35 m 1
 47 35 l 1
 47 33 l 1
 49 33 l 1
 49 35 l 1
49 31 m 1
 47 31 l 1
 47 29 l 1
 49 29 l 1
 49 31 l 1
63 43 m 1
 61 43 l 1
 61 41 l 1
 63 41 l 1
 63 43 l 1
63 39 m 1
 61 39 l 1
 61 37 l 1
 63 37 l 1
 63 39 l 1
63 35 m 1
 61 35 l 1
 61 33 l 1
 63 33 l 1
 63 35 l 1
63 31 m 1
 61 31 l 1
 61 29 l 1
 63 29 l 1
 63 31 l 1
49 27 m 1
 47 27 l 1
 47 25 l 1
 49 25 l 1
 49 27 l 1
49 18 m 1
 48 18 l 1
 48 17 l 1
 50 17 l 1
 50 18 l 1
 51 18 l 1
 51 19 l 1
 49 19 l 1
 49 18 l 1
51 17 m 1
 50 17 l 1
 50 16 l 1
 51 16 l 1
 51 17 l 1
63 27 m 1
 61 27 l 1
 61 25 l 1
 63 25 l 1
 63 27 l 1
59 0 m 1
 58 0 l 1
 58 -1 l 1
 60 -1 l 1
 60 0 l 1
 61 0 l 1
 61 1 l 1
 59 1 l 1
 59 0 l 1
61 -1 m 1
 60 -1 l 1
 60 -2 l 1
 61 -2 l 1
 61 -1 l 1
EndSplineSet
EndChar

StartChar: custom_1_1_1_3_4
Encoding: 23402 23402 3434
Width: 70
Flags: H
LayerCount: 2
Fore
SplineSet
31 43 m 1
 29 43 l 1
 29 41 l 1
 31 41 l 1
 31 43 l 1
31 39 m 1
 29 39 l 1
 29 37 l 1
 31 37 l 1
 31 39 l 1
31 35 m 1
 29 35 l 1
 29 33 l 1
 31 33 l 1
 31 35 l 1
36 37 m 1
 34 37 l 1
 34 35 l 1
 36 35 l 1
 36 37 l 1
31 31 m 1
 29 31 l 1
 29 29 l 1
 31 29 l 1
 31 31 l 1
36 33 m 1
 34 33 l 1
 34 31 l 1
 36 31 l 1
 36 33 l 1
31 27 m 1
 29 27 l 1
 29 25 l 1
 31 25 l 1
 31 27 l 1
24 18 m 1
 23 18 l 1
 23 16 l 1
 24 16 l 1
 24 15 l 1
 25 15 l 1
 25 17 l 1
 24 17 l 1
 24 18 l 1
23 16 m 1
 22 16 l 1
 22 15 l 1
 23 15 l 1
 23 16 l 1
49 43 m 1
 47 43 l 1
 47 41 l 1
 49 41 l 1
 49 43 l 1
49 39 m 1
 47 39 l 1
 47 37 l 1
 49 37 l 1
 49 39 l 1
49 35 m 1
 47 35 l 1
 47 33 l 1
 49 33 l 1
 49 35 l 1
49 31 m 1
 47 31 l 1
 47 29 l 1
 49 29 l 1
 49 31 l 1
63 43 m 1
 61 43 l 1
 61 41 l 1
 63 41 l 1
 63 43 l 1
63 39 m 1
 61 39 l 1
 61 37 l 1
 63 37 l 1
 63 39 l 1
63 35 m 1
 61 35 l 1
 61 33 l 1
 63 33 l 1
 63 35 l 1
63 31 m 1
 61 31 l 1
 61 29 l 1
 63 29 l 1
 63 31 l 1
49 27 m 1
 47 27 l 1
 47 25 l 1
 49 25 l 1
 49 27 l 1
51 19 m 1
 48 19 l 1
 48 17 l 1
 49 17 l 1
 49 18 l 1
 51 18 l 1
 51 19 l 1
50 17 m 1
 49 17 l 1
 49 16 l 1
 50 16 l 1
 50 17 l 1
63 27 m 1
 61 27 l 1
 61 25 l 1
 63 25 l 1
 63 27 l 1
61 1 m 1
 58 1 l 1
 58 -1 l 1
 59 -1 l 1
 59 0 l 1
 61 0 l 1
 61 1 l 1
60 -1 m 1
 59 -1 l 1
 59 -2 l 1
 60 -2 l 1
 60 -1 l 1
EndSplineSet
EndChar

StartChar: custom_1_1_1_3_5
Encoding: 23403 23403 3435
Width: 70
Flags: H
LayerCount: 2
Fore
SplineSet
31 43 m 1
 29 43 l 1
 29 41 l 1
 31 41 l 1
 31 43 l 1
31 39 m 1
 29 39 l 1
 29 37 l 1
 31 37 l 1
 31 39 l 1
31 35 m 1
 29 35 l 1
 29 33 l 1
 31 33 l 1
 31 35 l 1
36 37 m 1
 34 37 l 1
 34 35 l 1
 36 35 l 1
 36 37 l 1
31 31 m 1
 29 31 l 1
 29 29 l 1
 31 29 l 1
 31 31 l 1
36 33 m 1
 34 33 l 1
 34 31 l 1
 36 31 l 1
 36 33 l 1
31 27 m 1
 29 27 l 1
 29 25 l 1
 31 25 l 1
 31 27 l 1
25 18 m 1
 23 18 l 1
 23 17 l 1
 24 17 l 1
 24 15 l 1
 25 15 l 1
 25 18 l 1
23 17 m 1
 22 17 l 1
 22 16 l 1
 23 16 l 1
 23 17 l 1
49 43 m 1
 47 43 l 1
 47 41 l 1
 49 41 l 1
 49 43 l 1
49 39 m 1
 47 39 l 1
 47 37 l 1
 49 37 l 1
 49 39 l 1
49 35 m 1
 47 35 l 1
 47 33 l 1
 49 33 l 1
 49 35 l 1
49 31 m 1
 47 31 l 1
 47 29 l 1
 49 29 l 1
 49 31 l 1
63 43 m 1
 61 43 l 1
 61 41 l 1
 63 41 l 1
 63 43 l 1
63 39 m 1
 61 39 l 1
 61 37 l 1
 63 37 l 1
 63 39 l 1
63 35 m 1
 61 35 l 1
 61 33 l 1
 63 33 l 1
 63 35 l 1
63 31 m 1
 61 31 l 1
 61 29 l 1
 63 29 l 1
 63 31 l 1
49 27 m 1
 47 27 l 1
 47 25 l 1
 49 25 l 1
 49 27 l 1
49 19 m 1
 48 19 l 1
 48 17 l 1
 49 17 l 1
 49 18 l 1
 50 18 l 1
 50 20 l 1
 49 20 l 1
 49 19 l 1
51 18 m 1
 50 18 l 1
 50 17 l 1
 51 17 l 1
 51 18 l 1
63 27 m 1
 61 27 l 1
 61 25 l 1
 63 25 l 1
 63 27 l 1
60 2 m 1
 59 2 l 1
 59 1 l 1
 58 1 l 1
 58 -1 l 1
 59 -1 l 1
 59 0 l 1
 60 0 l 1
 60 2 l 1
61 0 m 1
 60 0 l 1
 60 -1 l 1
 61 -1 l 1
 61 0 l 1
EndSplineSet
EndChar

StartChar: custom_1_1_1_3_6
Encoding: 23404 23404 3436
Width: 70
Flags: H
LayerCount: 2
Fore
SplineSet
31 43 m 1
 29 43 l 1
 29 41 l 1
 31 41 l 1
 31 43 l 1
31 39 m 1
 29 39 l 1
 29 37 l 1
 31 37 l 1
 31 39 l 1
31 35 m 1
 29 35 l 1
 29 33 l 1
 31 33 l 1
 31 35 l 1
36 37 m 1
 34 37 l 1
 34 35 l 1
 36 35 l 1
 36 37 l 1
31 31 m 1
 29 31 l 1
 29 29 l 1
 31 29 l 1
 31 31 l 1
36 33 m 1
 34 33 l 1
 34 31 l 1
 36 31 l 1
 36 33 l 1
31 27 m 1
 29 27 l 1
 29 25 l 1
 31 25 l 1
 31 27 l 1
25 18 m 1
 23 18 l 1
 23 17 l 1
 24 17 l 1
 24 16 l 1
 26 16 l 1
 26 17 l 1
 25 17 l 1
 25 18 l 1
24 16 m 1
 23 16 l 1
 23 15 l 1
 24 15 l 1
 24 16 l 1
49 43 m 1
 47 43 l 1
 47 41 l 1
 49 41 l 1
 49 43 l 1
49 39 m 1
 47 39 l 1
 47 37 l 1
 49 37 l 1
 49 39 l 1
49 35 m 1
 47 35 l 1
 47 33 l 1
 49 33 l 1
 49 35 l 1
49 31 m 1
 47 31 l 1
 47 29 l 1
 49 29 l 1
 49 31 l 1
63 43 m 1
 61 43 l 1
 61 41 l 1
 63 41 l 1
 63 43 l 1
63 39 m 1
 61 39 l 1
 61 37 l 1
 63 37 l 1
 63 39 l 1
63 35 m 1
 61 35 l 1
 61 33 l 1
 63 33 l 1
 63 35 l 1
63 31 m 1
 61 31 l 1
 61 29 l 1
 63 29 l 1
 63 31 l 1
49 27 m 1
 47 27 l 1
 47 25 l 1
 49 25 l 1
 49 27 l 1
50 20 m 1
 48 20 l 1
 48 17 l 1
 49 17 l 1
 49 19 l 1
 50 19 l 1
 50 20 l 1
51 19 m 1
 50 19 l 1
 50 18 l 1
 51 18 l 1
 51 19 l 1
63 27 m 1
 61 27 l 1
 61 25 l 1
 63 25 l 1
 63 27 l 1
60 2 m 1
 58 2 l 1
 58 -1 l 1
 59 -1 l 1
 59 1 l 1
 60 1 l 1
 60 2 l 1
61 1 m 1
 60 1 l 1
 60 0 l 1
 61 0 l 1
 61 1 l 1
EndSplineSet
EndChar

StartChar: custom_1_1_1_3_7
Encoding: 23405 23405 3437
Width: 70
Flags: H
LayerCount: 2
Fore
SplineSet
31 43 m 1
 29 43 l 1
 29 41 l 1
 31 41 l 1
 31 43 l 1
31 39 m 1
 29 39 l 1
 29 37 l 1
 31 37 l 1
 31 39 l 1
31 35 m 1
 29 35 l 1
 29 33 l 1
 31 33 l 1
 31 35 l 1
36 37 m 1
 34 37 l 1
 34 35 l 1
 36 35 l 1
 36 37 l 1
31 31 m 1
 29 31 l 1
 29 29 l 1
 31 29 l 1
 31 31 l 1
36 33 m 1
 34 33 l 1
 34 31 l 1
 36 31 l 1
 36 33 l 1
31 27 m 1
 29 27 l 1
 29 25 l 1
 31 25 l 1
 31 27 l 1
26 18 m 1
 23 18 l 1
 23 17 l 1
 25 17 l 1
 25 16 l 1
 26 16 l 1
 26 18 l 1
25 16 m 1
 24 16 l 1
 24 15 l 1
 25 15 l 1
 25 16 l 1
49 43 m 1
 47 43 l 1
 47 41 l 1
 49 41 l 1
 49 43 l 1
49 39 m 1
 47 39 l 1
 47 37 l 1
 49 37 l 1
 49 39 l 1
49 35 m 1
 47 35 l 1
 47 33 l 1
 49 33 l 1
 49 35 l 1
49 31 m 1
 47 31 l 1
 47 29 l 1
 49 29 l 1
 49 31 l 1
63 43 m 1
 61 43 l 1
 61 41 l 1
 63 41 l 1
 63 43 l 1
63 39 m 1
 61 39 l 1
 61 37 l 1
 63 37 l 1
 63 39 l 1
63 35 m 1
 61 35 l 1
 61 33 l 1
 63 33 l 1
 63 35 l 1
63 31 m 1
 61 31 l 1
 61 29 l 1
 63 29 l 1
 63 31 l 1
49 27 m 1
 47 27 l 1
 47 25 l 1
 49 25 l 1
 49 27 l 1
50 20 m 1
 48 20 l 1
 48 19 l 1
 47 19 l 1
 47 18 l 1
 49 18 l 1
 49 19 l 1
 50 19 l 1
 50 20 l 1
50 18 m 1
 49 18 l 1
 49 17 l 1
 50 17 l 1
 50 18 l 1
63 27 m 1
 61 27 l 1
 61 25 l 1
 63 25 l 1
 63 27 l 1
60 2 m 1
 58 2 l 1
 58 1 l 1
 57 1 l 1
 57 0 l 1
 59 0 l 1
 59 1 l 1
 60 1 l 1
 60 2 l 1
60 0 m 1
 59 0 l 1
 59 -1 l 1
 60 -1 l 1
 60 0 l 1
EndSplineSet
EndChar

StartChar: custom_1_1_1_3_8
Encoding: 23406 23406 3438
Width: 70
Flags: H
LayerCount: 2
Fore
SplineSet
31 43 m 1
 29 43 l 1
 29 41 l 1
 31 41 l 1
 31 43 l 1
31 39 m 1
 29 39 l 1
 29 37 l 1
 31 37 l 1
 31 39 l 1
31 35 m 1
 29 35 l 1
 29 33 l 1
 31 33 l 1
 31 35 l 1
36 37 m 1
 34 37 l 1
 34 35 l 1
 36 35 l 1
 36 37 l 1
31 31 m 1
 29 31 l 1
 29 29 l 1
 31 29 l 1
 31 31 l 1
36 33 m 1
 34 33 l 1
 34 31 l 1
 36 31 l 1
 36 33 l 1
31 27 m 1
 29 27 l 1
 29 25 l 1
 31 25 l 1
 31 27 l 1
25 19 m 1
 24 19 l 1
 24 17 l 1
 25 17 l 1
 25 16 l 1
 26 16 l 1
 26 18 l 1
 25 18 l 1
 25 19 l 1
24 17 m 1
 23 17 l 1
 23 16 l 1
 24 16 l 1
 24 17 l 1
49 43 m 1
 47 43 l 1
 47 41 l 1
 49 41 l 1
 49 43 l 1
49 39 m 1
 47 39 l 1
 47 37 l 1
 49 37 l 1
 49 39 l 1
49 35 m 1
 47 35 l 1
 47 33 l 1
 49 33 l 1
 49 35 l 1
49 31 m 1
 47 31 l 1
 47 29 l 1
 49 29 l 1
 49 31 l 1
63 43 m 1
 61 43 l 1
 61 41 l 1
 63 41 l 1
 63 43 l 1
63 39 m 1
 61 39 l 1
 61 37 l 1
 63 37 l 1
 63 39 l 1
63 35 m 1
 61 35 l 1
 61 33 l 1
 63 33 l 1
 63 35 l 1
63 31 m 1
 61 31 l 1
 61 29 l 1
 63 29 l 1
 63 31 l 1
49 27 m 1
 47 27 l 1
 47 25 l 1
 49 25 l 1
 49 27 l 1
50 20 m 1
 47 20 l 1
 47 18 l 1
 48 18 l 1
 48 19 l 1
 50 19 l 1
 50 20 l 1
49 18 m 1
 48 18 l 1
 48 17 l 1
 49 17 l 1
 49 18 l 1
63 27 m 1
 61 27 l 1
 61 25 l 1
 63 25 l 1
 63 27 l 1
60 2 m 1
 57 2 l 1
 57 0 l 1
 58 0 l 1
 58 1 l 1
 60 1 l 1
 60 2 l 1
59 0 m 1
 58 0 l 1
 58 -1 l 1
 59 -1 l 1
 59 0 l 1
EndSplineSet
EndChar

StartChar: custom_1_1_1_3_9
Encoding: 23407 23407 3439
Width: 70
Flags: H
LayerCount: 2
Fore
SplineSet
31 43 m 1
 29 43 l 1
 29 41 l 1
 31 41 l 1
 31 43 l 1
31 39 m 1
 29 39 l 1
 29 37 l 1
 31 37 l 1
 31 39 l 1
31 35 m 1
 29 35 l 1
 29 33 l 1
 31 33 l 1
 31 35 l 1
36 37 m 1
 34 37 l 1
 34 35 l 1
 36 35 l 1
 36 37 l 1
31 31 m 1
 29 31 l 1
 29 29 l 1
 31 29 l 1
 31 31 l 1
36 33 m 1
 34 33 l 1
 34 31 l 1
 36 31 l 1
 36 33 l 1
31 27 m 1
 29 27 l 1
 29 25 l 1
 31 25 l 1
 31 27 l 1
26 19 m 1
 24 19 l 1
 24 18 l 1
 25 18 l 1
 25 16 l 1
 26 16 l 1
 26 19 l 1
24 18 m 1
 23 18 l 1
 23 17 l 1
 24 17 l 1
 24 18 l 1
49 43 m 1
 47 43 l 1
 47 41 l 1
 49 41 l 1
 49 43 l 1
49 39 m 1
 47 39 l 1
 47 37 l 1
 49 37 l 1
 49 39 l 1
49 35 m 1
 47 35 l 1
 47 33 l 1
 49 33 l 1
 49 35 l 1
49 31 m 1
 47 31 l 1
 47 29 l 1
 49 29 l 1
 49 31 l 1
63 43 m 1
 61 43 l 1
 61 41 l 1
 63 41 l 1
 63 43 l 1
63 39 m 1
 61 39 l 1
 61 37 l 1
 63 37 l 1
 63 39 l 1
63 35 m 1
 61 35 l 1
 61 33 l 1
 63 33 l 1
 63 35 l 1
63 31 m 1
 61 31 l 1
 61 29 l 1
 63 29 l 1
 63 31 l 1
49 27 m 1
 47 27 l 1
 47 25 l 1
 49 25 l 1
 49 27 l 1
49 21 m 1
 48 21 l 1
 48 20 l 1
 47 20 l 1
 47 18 l 1
 48 18 l 1
 48 19 l 1
 49 19 l 1
 49 21 l 1
50 19 m 1
 49 19 l 1
 49 18 l 1
 50 18 l 1
 50 19 l 1
63 27 m 1
 61 27 l 1
 61 25 l 1
 63 25 l 1
 63 27 l 1
59 3 m 1
 58 3 l 1
 58 2 l 1
 57 2 l 1
 57 0 l 1
 58 0 l 1
 58 1 l 1
 59 1 l 1
 59 3 l 1
60 1 m 1
 59 1 l 1
 59 0 l 1
 60 0 l 1
 60 1 l 1
EndSplineSet
EndChar

StartChar: custom_1_1_1_4_0
Encoding: 23408 23408 3440
Width: 70
Flags: H
LayerCount: 2
Fore
SplineSet
31 43 m 1
 29 43 l 1
 29 41 l 1
 31 41 l 1
 31 43 l 1
31 39 m 1
 29 39 l 1
 29 37 l 1
 31 37 l 1
 31 39 l 1
31 35 m 1
 29 35 l 1
 29 33 l 1
 31 33 l 1
 31 35 l 1
36 37 m 1
 34 37 l 1
 34 35 l 1
 36 35 l 1
 36 37 l 1
31 31 m 1
 29 31 l 1
 29 29 l 1
 31 29 l 1
 31 31 l 1
36 33 m 1
 34 33 l 1
 34 31 l 1
 36 31 l 1
 36 33 l 1
31 27 m 1
 29 27 l 1
 29 25 l 1
 31 25 l 1
 31 27 l 1
26 19 m 1
 24 19 l 1
 24 18 l 1
 25 18 l 1
 25 17 l 1
 27 17 l 1
 27 18 l 1
 26 18 l 1
 26 19 l 1
25 17 m 1
 24 17 l 1
 24 16 l 1
 25 16 l 1
 25 17 l 1
49 43 m 1
 47 43 l 1
 47 41 l 1
 49 41 l 1
 49 43 l 1
49 39 m 1
 47 39 l 1
 47 37 l 1
 49 37 l 1
 49 39 l 1
49 35 m 1
 47 35 l 1
 47 33 l 1
 49 33 l 1
 49 35 l 1
49 31 m 1
 47 31 l 1
 47 29 l 1
 49 29 l 1
 49 31 l 1
63 43 m 1
 61 43 l 1
 61 41 l 1
 63 41 l 1
 63 43 l 1
63 39 m 1
 61 39 l 1
 61 37 l 1
 63 37 l 1
 63 39 l 1
63 35 m 1
 61 35 l 1
 61 33 l 1
 63 33 l 1
 63 35 l 1
63 31 m 1
 61 31 l 1
 61 29 l 1
 63 29 l 1
 63 31 l 1
49 27 m 1
 47 27 l 1
 47 25 l 1
 49 25 l 1
 49 27 l 1
49 21 m 1
 47 21 l 1
 47 18 l 1
 48 18 l 1
 48 20 l 1
 49 20 l 1
 49 21 l 1
50 20 m 1
 49 20 l 1
 49 19 l 1
 50 19 l 1
 50 20 l 1
63 27 m 1
 61 27 l 1
 61 25 l 1
 63 25 l 1
 63 27 l 1
59 3 m 1
 57 3 l 1
 57 0 l 1
 58 0 l 1
 58 2 l 1
 59 2 l 1
 59 3 l 1
60 2 m 1
 59 2 l 1
 59 1 l 1
 60 1 l 1
 60 2 l 1
EndSplineSet
EndChar

StartChar: custom_1_1_1_4_1
Encoding: 23409 23409 3441
Width: 70
Flags: H
LayerCount: 2
Fore
SplineSet
31 43 m 1
 29 43 l 1
 29 41 l 1
 31 41 l 1
 31 43 l 1
31 39 m 1
 29 39 l 1
 29 37 l 1
 31 37 l 1
 31 39 l 1
31 35 m 1
 29 35 l 1
 29 33 l 1
 31 33 l 1
 31 35 l 1
36 37 m 1
 34 37 l 1
 34 35 l 1
 36 35 l 1
 36 37 l 1
31 31 m 1
 29 31 l 1
 29 29 l 1
 31 29 l 1
 31 31 l 1
36 33 m 1
 34 33 l 1
 34 31 l 1
 36 31 l 1
 36 33 l 1
31 27 m 1
 29 27 l 1
 29 25 l 1
 31 25 l 1
 31 27 l 1
27 19 m 1
 24 19 l 1
 24 18 l 1
 26 18 l 1
 26 17 l 1
 27 17 l 1
 27 19 l 1
26 17 m 1
 25 17 l 1
 25 16 l 1
 26 16 l 1
 26 17 l 1
49 43 m 1
 47 43 l 1
 47 41 l 1
 49 41 l 1
 49 43 l 1
49 39 m 1
 47 39 l 1
 47 37 l 1
 49 37 l 1
 49 39 l 1
49 35 m 1
 47 35 l 1
 47 33 l 1
 49 33 l 1
 49 35 l 1
49 31 m 1
 47 31 l 1
 47 29 l 1
 49 29 l 1
 49 31 l 1
63 43 m 1
 61 43 l 1
 61 41 l 1
 63 41 l 1
 63 43 l 1
63 39 m 1
 61 39 l 1
 61 37 l 1
 63 37 l 1
 63 39 l 1
63 35 m 1
 61 35 l 1
 61 33 l 1
 63 33 l 1
 63 35 l 1
63 31 m 1
 61 31 l 1
 61 29 l 1
 63 29 l 1
 63 31 l 1
49 27 m 1
 47 27 l 1
 47 25 l 1
 49 25 l 1
 49 27 l 1
47 20 m 1
 46 20 l 1
 46 19 l 1
 48 19 l 1
 48 20 l 1
 49 20 l 1
 49 21 l 1
 47 21 l 1
 47 20 l 1
49 19 m 1
 48 19 l 1
 48 18 l 1
 49 18 l 1
 49 19 l 1
63 27 m 1
 61 27 l 1
 61 25 l 1
 63 25 l 1
 63 27 l 1
57 2 m 1
 56 2 l 1
 56 1 l 1
 58 1 l 1
 58 2 l 1
 59 2 l 1
 59 3 l 1
 57 3 l 1
 57 2 l 1
59 1 m 1
 58 1 l 1
 58 0 l 1
 59 0 l 1
 59 1 l 1
EndSplineSet
EndChar

StartChar: custom_1_1_1_4_2
Encoding: 23410 23410 3442
Width: 70
Flags: H
LayerCount: 2
Fore
SplineSet
31 43 m 1
 29 43 l 1
 29 41 l 1
 31 41 l 1
 31 43 l 1
31 39 m 1
 29 39 l 1
 29 37 l 1
 31 37 l 1
 31 39 l 1
31 35 m 1
 29 35 l 1
 29 33 l 1
 31 33 l 1
 31 35 l 1
36 37 m 1
 34 37 l 1
 34 35 l 1
 36 35 l 1
 36 37 l 1
31 31 m 1
 29 31 l 1
 29 29 l 1
 31 29 l 1
 31 31 l 1
36 33 m 1
 34 33 l 1
 34 31 l 1
 36 31 l 1
 36 33 l 1
31 27 m 1
 29 27 l 1
 29 25 l 1
 31 25 l 1
 31 27 l 1
25 18 m 1
 24 18 l 1
 24 17 l 1
 25 17 l 1
 25 18 l 1
26 20 m 1
 25 20 l 1
 25 18 l 1
 26 18 l 1
 26 17 l 1
 27 17 l 1
 27 19 l 1
 26 19 l 1
 26 20 l 1
49 43 m 1
 47 43 l 1
 47 41 l 1
 49 41 l 1
 49 43 l 1
49 39 m 1
 47 39 l 1
 47 37 l 1
 49 37 l 1
 49 39 l 1
49 35 m 1
 47 35 l 1
 47 33 l 1
 49 33 l 1
 49 35 l 1
49 31 m 1
 47 31 l 1
 47 29 l 1
 49 29 l 1
 49 31 l 1
63 43 m 1
 61 43 l 1
 61 41 l 1
 63 41 l 1
 63 43 l 1
63 39 m 1
 61 39 l 1
 61 37 l 1
 63 37 l 1
 63 39 l 1
63 35 m 1
 61 35 l 1
 61 33 l 1
 63 33 l 1
 63 35 l 1
63 31 m 1
 61 31 l 1
 61 29 l 1
 63 29 l 1
 63 31 l 1
49 27 m 1
 47 27 l 1
 47 25 l 1
 49 25 l 1
 49 27 l 1
49 21 m 1
 46 21 l 1
 46 19 l 1
 47 19 l 1
 47 20 l 1
 49 20 l 1
 49 21 l 1
48 19 m 1
 47 19 l 1
 47 18 l 1
 48 18 l 1
 48 19 l 1
63 27 m 1
 61 27 l 1
 61 25 l 1
 63 25 l 1
 63 27 l 1
59 3 m 1
 56 3 l 1
 56 1 l 1
 57 1 l 1
 57 2 l 1
 59 2 l 1
 59 3 l 1
58 1 m 1
 57 1 l 1
 57 0 l 1
 58 0 l 1
 58 1 l 1
EndSplineSet
EndChar

StartChar: custom_1_1_1_4_3
Encoding: 23411 23411 3443
Width: 70
Flags: H
LayerCount: 2
Fore
SplineSet
31 43 m 1
 29 43 l 1
 29 41 l 1
 31 41 l 1
 31 43 l 1
31 39 m 1
 29 39 l 1
 29 37 l 1
 31 37 l 1
 31 39 l 1
31 35 m 1
 29 35 l 1
 29 33 l 1
 31 33 l 1
 31 35 l 1
36 37 m 1
 34 37 l 1
 34 35 l 1
 36 35 l 1
 36 37 l 1
31 31 m 1
 29 31 l 1
 29 29 l 1
 31 29 l 1
 31 31 l 1
36 33 m 1
 34 33 l 1
 34 31 l 1
 36 31 l 1
 36 33 l 1
31 27 m 1
 29 27 l 1
 29 25 l 1
 31 25 l 1
 31 27 l 1
25 19 m 1
 24 19 l 1
 24 18 l 1
 25 18 l 1
 25 19 l 1
27 20 m 1
 25 20 l 1
 25 19 l 1
 26 19 l 1
 26 17 l 1
 27 17 l 1
 27 20 l 1
49 43 m 1
 47 43 l 1
 47 41 l 1
 49 41 l 1
 49 43 l 1
49 39 m 1
 47 39 l 1
 47 37 l 1
 49 37 l 1
 49 39 l 1
49 35 m 1
 47 35 l 1
 47 33 l 1
 49 33 l 1
 49 35 l 1
49 31 m 1
 47 31 l 1
 47 29 l 1
 49 29 l 1
 49 31 l 1
63 43 m 1
 61 43 l 1
 61 41 l 1
 63 41 l 1
 63 43 l 1
63 39 m 1
 61 39 l 1
 61 37 l 1
 63 37 l 1
 63 39 l 1
63 35 m 1
 61 35 l 1
 61 33 l 1
 63 33 l 1
 63 35 l 1
63 31 m 1
 61 31 l 1
 61 29 l 1
 63 29 l 1
 63 31 l 1
49 27 m 1
 47 27 l 1
 47 25 l 1
 49 25 l 1
 49 27 l 1
48 22 m 1
 47 22 l 1
 47 21 l 1
 46 21 l 1
 46 19 l 1
 47 19 l 1
 47 20 l 1
 48 20 l 1
 48 22 l 1
49 20 m 1
 48 20 l 1
 48 19 l 1
 49 19 l 1
 49 20 l 1
63 27 m 1
 61 27 l 1
 61 25 l 1
 63 25 l 1
 63 27 l 1
57 3 m 1
 56 3 l 1
 56 1 l 1
 57 1 l 1
 57 2 l 1
 58 2 l 1
 58 4 l 1
 57 4 l 1
 57 3 l 1
59 2 m 1
 58 2 l 1
 58 1 l 1
 59 1 l 1
 59 2 l 1
EndSplineSet
EndChar

StartChar: custom_1_1_1_4_4
Encoding: 23412 23412 3444
Width: 70
Flags: H
LayerCount: 2
Fore
SplineSet
31 43 m 1
 29 43 l 1
 29 41 l 1
 31 41 l 1
 31 43 l 1
31 39 m 1
 29 39 l 1
 29 37 l 1
 31 37 l 1
 31 39 l 1
31 35 m 1
 29 35 l 1
 29 33 l 1
 31 33 l 1
 31 35 l 1
36 37 m 1
 34 37 l 1
 34 35 l 1
 36 35 l 1
 36 37 l 1
31 31 m 1
 29 31 l 1
 29 29 l 1
 31 29 l 1
 31 31 l 1
36 33 m 1
 34 33 l 1
 34 31 l 1
 36 31 l 1
 36 33 l 1
31 27 m 1
 29 27 l 1
 29 25 l 1
 31 25 l 1
 31 27 l 1
27 20 m 1
 25 20 l 1
 25 19 l 1
 26 19 l 1
 26 18 l 1
 28 18 l 1
 28 19 l 1
 27 19 l 1
 27 20 l 1
26 18 m 1
 25 18 l 1
 25 17 l 1
 26 17 l 1
 26 18 l 1
49 43 m 1
 47 43 l 1
 47 41 l 1
 49 41 l 1
 49 43 l 1
49 39 m 1
 47 39 l 1
 47 37 l 1
 49 37 l 1
 49 39 l 1
49 35 m 1
 47 35 l 1
 47 33 l 1
 49 33 l 1
 49 35 l 1
49 31 m 1
 47 31 l 1
 47 29 l 1
 49 29 l 1
 49 31 l 1
63 43 m 1
 61 43 l 1
 61 41 l 1
 63 41 l 1
 63 43 l 1
63 39 m 1
 61 39 l 1
 61 37 l 1
 63 37 l 1
 63 39 l 1
63 35 m 1
 61 35 l 1
 61 33 l 1
 63 33 l 1
 63 35 l 1
63 31 m 1
 61 31 l 1
 61 29 l 1
 63 29 l 1
 63 31 l 1
49 27 m 1
 47 27 l 1
 47 25 l 1
 49 25 l 1
 49 27 l 1
48 22 m 1
 46 22 l 1
 46 19 l 1
 47 19 l 1
 47 21 l 1
 48 21 l 1
 48 22 l 1
49 21 m 1
 48 21 l 1
 48 20 l 1
 49 20 l 1
 49 21 l 1
63 27 m 1
 61 27 l 1
 61 25 l 1
 63 25 l 1
 63 27 l 1
58 4 m 1
 56 4 l 1
 56 1 l 1
 57 1 l 1
 57 3 l 1
 58 3 l 1
 58 4 l 1
59 3 m 1
 58 3 l 1
 58 2 l 1
 59 2 l 1
 59 3 l 1
EndSplineSet
EndChar

StartChar: custom_1_1_1_4_5
Encoding: 23413 23413 3445
Width: 70
Flags: H
LayerCount: 2
Fore
SplineSet
31 43 m 1
 29 43 l 1
 29 41 l 1
 31 41 l 1
 31 43 l 1
31 39 m 1
 29 39 l 1
 29 37 l 1
 31 37 l 1
 31 39 l 1
31 35 m 1
 29 35 l 1
 29 33 l 1
 31 33 l 1
 31 35 l 1
36 37 m 1
 34 37 l 1
 34 35 l 1
 36 35 l 1
 36 37 l 1
31 31 m 1
 29 31 l 1
 29 29 l 1
 31 29 l 1
 31 31 l 1
36 33 m 1
 34 33 l 1
 34 31 l 1
 36 31 l 1
 36 33 l 1
31 27 m 1
 29 27 l 1
 29 25 l 1
 31 25 l 1
 31 27 l 1
28 20 m 1
 25 20 l 1
 25 19 l 1
 27 19 l 1
 27 18 l 1
 28 18 l 1
 28 20 l 1
27 18 m 1
 26 18 l 1
 26 17 l 1
 27 17 l 1
 27 18 l 1
49 43 m 1
 47 43 l 1
 47 41 l 1
 49 41 l 1
 49 43 l 1
49 39 m 1
 47 39 l 1
 47 37 l 1
 49 37 l 1
 49 39 l 1
49 35 m 1
 47 35 l 1
 47 33 l 1
 49 33 l 1
 49 35 l 1
49 31 m 1
 47 31 l 1
 47 29 l 1
 49 29 l 1
 49 31 l 1
63 43 m 1
 61 43 l 1
 61 41 l 1
 63 41 l 1
 63 43 l 1
63 39 m 1
 61 39 l 1
 61 37 l 1
 63 37 l 1
 63 39 l 1
63 35 m 1
 61 35 l 1
 61 33 l 1
 63 33 l 1
 63 35 l 1
63 31 m 1
 61 31 l 1
 61 29 l 1
 63 29 l 1
 63 31 l 1
49 27 m 1
 47 27 l 1
 47 25 l 1
 49 25 l 1
 49 27 l 1
48 22 m 1
 46 22 l 1
 46 21 l 1
 45 21 l 1
 45 20 l 1
 47 20 l 1
 47 21 l 1
 48 21 l 1
 48 22 l 1
48 20 m 1
 47 20 l 1
 47 19 l 1
 48 19 l 1
 48 20 l 1
63 27 m 1
 61 27 l 1
 61 25 l 1
 63 25 l 1
 63 27 l 1
58 4 m 1
 56 4 l 1
 56 3 l 1
 55 3 l 1
 55 2 l 1
 57 2 l 1
 57 3 l 1
 58 3 l 1
 58 4 l 1
58 2 m 1
 57 2 l 1
 57 1 l 1
 58 1 l 1
 58 2 l 1
EndSplineSet
EndChar

StartChar: custom_1_1_1_4_6
Encoding: 23414 23414 3446
Width: 70
Flags: H
LayerCount: 2
Fore
SplineSet
31 43 m 1
 29 43 l 1
 29 41 l 1
 31 41 l 1
 31 43 l 1
31 39 m 1
 29 39 l 1
 29 37 l 1
 31 37 l 1
 31 39 l 1
31 35 m 1
 29 35 l 1
 29 33 l 1
 31 33 l 1
 31 35 l 1
36 37 m 1
 34 37 l 1
 34 35 l 1
 36 35 l 1
 36 37 l 1
31 31 m 1
 29 31 l 1
 29 29 l 1
 31 29 l 1
 31 31 l 1
36 33 m 1
 34 33 l 1
 34 31 l 1
 36 31 l 1
 36 33 l 1
31 27 m 1
 29 27 l 1
 29 25 l 1
 31 25 l 1
 31 27 l 1
27 21 m 1
 26 21 l 1
 26 19 l 1
 27 19 l 1
 27 18 l 1
 28 18 l 1
 28 20 l 1
 27 20 l 1
 27 21 l 1
26 19 m 1
 25 19 l 1
 25 18 l 1
 26 18 l 1
 26 19 l 1
49 43 m 1
 47 43 l 1
 47 41 l 1
 49 41 l 1
 49 43 l 1
49 39 m 1
 47 39 l 1
 47 37 l 1
 49 37 l 1
 49 39 l 1
49 35 m 1
 47 35 l 1
 47 33 l 1
 49 33 l 1
 49 35 l 1
49 31 m 1
 47 31 l 1
 47 29 l 1
 49 29 l 1
 49 31 l 1
63 43 m 1
 61 43 l 1
 61 41 l 1
 63 41 l 1
 63 43 l 1
63 39 m 1
 61 39 l 1
 61 37 l 1
 63 37 l 1
 63 39 l 1
63 35 m 1
 61 35 l 1
 61 33 l 1
 63 33 l 1
 63 35 l 1
63 31 m 1
 61 31 l 1
 61 29 l 1
 63 29 l 1
 63 31 l 1
49 27 m 1
 47 27 l 1
 47 25 l 1
 49 25 l 1
 49 27 l 1
48 22 m 1
 45 22 l 1
 45 20 l 1
 46 20 l 1
 46 21 l 1
 48 21 l 1
 48 22 l 1
47 20 m 1
 46 20 l 1
 46 19 l 1
 47 19 l 1
 47 20 l 1
63 27 m 1
 61 27 l 1
 61 25 l 1
 63 25 l 1
 63 27 l 1
58 4 m 1
 55 4 l 1
 55 2 l 1
 56 2 l 1
 56 3 l 1
 58 3 l 1
 58 4 l 1
57 2 m 1
 56 2 l 1
 56 1 l 1
 57 1 l 1
 57 2 l 1
EndSplineSet
EndChar

StartChar: custom_1_1_1_4_7
Encoding: 23415 23415 3447
Width: 70
Flags: H
LayerCount: 2
Fore
SplineSet
31 43 m 1
 29 43 l 1
 29 41 l 1
 31 41 l 1
 31 43 l 1
31 39 m 1
 29 39 l 1
 29 37 l 1
 31 37 l 1
 31 39 l 1
31 35 m 1
 29 35 l 1
 29 33 l 1
 31 33 l 1
 31 35 l 1
36 37 m 1
 34 37 l 1
 34 35 l 1
 36 35 l 1
 36 37 l 1
31 31 m 1
 29 31 l 1
 29 29 l 1
 31 29 l 1
 31 31 l 1
36 33 m 1
 34 33 l 1
 34 31 l 1
 36 31 l 1
 36 33 l 1
31 27 m 1
 29 27 l 1
 29 25 l 1
 31 25 l 1
 31 27 l 1
28 21 m 1
 26 21 l 1
 26 20 l 1
 27 20 l 1
 27 18 l 1
 28 18 l 1
 28 21 l 1
26 20 m 1
 25 20 l 1
 25 19 l 1
 26 19 l 1
 26 20 l 1
49 43 m 1
 47 43 l 1
 47 41 l 1
 49 41 l 1
 49 43 l 1
49 39 m 1
 47 39 l 1
 47 37 l 1
 49 37 l 1
 49 39 l 1
49 35 m 1
 47 35 l 1
 47 33 l 1
 49 33 l 1
 49 35 l 1
49 31 m 1
 47 31 l 1
 47 29 l 1
 49 29 l 1
 49 31 l 1
63 43 m 1
 61 43 l 1
 61 41 l 1
 63 41 l 1
 63 43 l 1
63 39 m 1
 61 39 l 1
 61 37 l 1
 63 37 l 1
 63 39 l 1
63 35 m 1
 61 35 l 1
 61 33 l 1
 63 33 l 1
 63 35 l 1
63 31 m 1
 61 31 l 1
 61 29 l 1
 63 29 l 1
 63 31 l 1
49 27 m 1
 47 27 l 1
 47 25 l 1
 49 25 l 1
 49 27 l 1
47 23 m 1
 46 23 l 1
 46 22 l 1
 45 22 l 1
 45 20 l 1
 46 20 l 1
 46 21 l 1
 47 21 l 1
 47 23 l 1
48 21 m 1
 47 21 l 1
 47 20 l 1
 48 20 l 1
 48 21 l 1
63 27 m 1
 61 27 l 1
 61 25 l 1
 63 25 l 1
 63 27 l 1
57 5 m 1
 56 5 l 1
 56 4 l 1
 55 4 l 1
 55 2 l 1
 56 2 l 1
 56 3 l 1
 57 3 l 1
 57 5 l 1
58 3 m 1
 57 3 l 1
 57 2 l 1
 58 2 l 1
 58 3 l 1
EndSplineSet
EndChar

StartChar: custom_1_1_1_4_8
Encoding: 23416 23416 3448
Width: 70
Flags: H
LayerCount: 2
Fore
SplineSet
31 43 m 1
 29 43 l 1
 29 41 l 1
 31 41 l 1
 31 43 l 1
31 39 m 1
 29 39 l 1
 29 37 l 1
 31 37 l 1
 31 39 l 1
31 35 m 1
 29 35 l 1
 29 33 l 1
 31 33 l 1
 31 35 l 1
36 37 m 1
 34 37 l 1
 34 35 l 1
 36 35 l 1
 36 37 l 1
31 31 m 1
 29 31 l 1
 29 29 l 1
 31 29 l 1
 31 31 l 1
36 33 m 1
 34 33 l 1
 34 31 l 1
 36 31 l 1
 36 33 l 1
31 27 m 1
 29 27 l 1
 29 25 l 1
 31 25 l 1
 31 27 l 1
28 21 m 1
 26 21 l 1
 26 20 l 1
 27 20 l 1
 27 19 l 1
 29 19 l 1
 29 20 l 1
 28 20 l 1
 28 21 l 1
27 19 m 1
 26 19 l 1
 26 18 l 1
 27 18 l 1
 27 19 l 1
49 43 m 1
 47 43 l 1
 47 41 l 1
 49 41 l 1
 49 43 l 1
49 39 m 1
 47 39 l 1
 47 37 l 1
 49 37 l 1
 49 39 l 1
49 35 m 1
 47 35 l 1
 47 33 l 1
 49 33 l 1
 49 35 l 1
49 31 m 1
 47 31 l 1
 47 29 l 1
 49 29 l 1
 49 31 l 1
63 43 m 1
 61 43 l 1
 61 41 l 1
 63 41 l 1
 63 43 l 1
63 39 m 1
 61 39 l 1
 61 37 l 1
 63 37 l 1
 63 39 l 1
63 35 m 1
 61 35 l 1
 61 33 l 1
 63 33 l 1
 63 35 l 1
63 31 m 1
 61 31 l 1
 61 29 l 1
 63 29 l 1
 63 31 l 1
49 27 m 1
 47 27 l 1
 47 25 l 1
 49 25 l 1
 49 27 l 1
47 23 m 1
 45 23 l 1
 45 20 l 1
 46 20 l 1
 46 22 l 1
 47 22 l 1
 47 23 l 1
48 22 m 1
 47 22 l 1
 47 21 l 1
 48 21 l 1
 48 22 l 1
63 27 m 1
 61 27 l 1
 61 25 l 1
 63 25 l 1
 63 27 l 1
57 5 m 1
 55 5 l 1
 55 2 l 1
 56 2 l 1
 56 4 l 1
 57 4 l 1
 57 5 l 1
58 4 m 1
 57 4 l 1
 57 3 l 1
 58 3 l 1
 58 4 l 1
EndSplineSet
EndChar

StartChar: custom_1_1_1_4_9
Encoding: 23417 23417 3449
Width: 70
Flags: H
LayerCount: 2
Fore
SplineSet
31 43 m 1
 29 43 l 1
 29 41 l 1
 31 41 l 1
 31 43 l 1
31 39 m 1
 29 39 l 1
 29 37 l 1
 31 37 l 1
 31 39 l 1
31 35 m 1
 29 35 l 1
 29 33 l 1
 31 33 l 1
 31 35 l 1
36 37 m 1
 34 37 l 1
 34 35 l 1
 36 35 l 1
 36 37 l 1
31 31 m 1
 29 31 l 1
 29 29 l 1
 31 29 l 1
 31 31 l 1
36 33 m 1
 34 33 l 1
 34 31 l 1
 36 31 l 1
 36 33 l 1
31 27 m 1
 29 27 l 1
 29 25 l 1
 31 25 l 1
 31 27 l 1
29 21 m 1
 26 21 l 1
 26 20 l 1
 28 20 l 1
 28 19 l 1
 29 19 l 1
 29 21 l 1
28 19 m 1
 27 19 l 1
 27 18 l 1
 28 18 l 1
 28 19 l 1
49 43 m 1
 47 43 l 1
 47 41 l 1
 49 41 l 1
 49 43 l 1
49 39 m 1
 47 39 l 1
 47 37 l 1
 49 37 l 1
 49 39 l 1
49 35 m 1
 47 35 l 1
 47 33 l 1
 49 33 l 1
 49 35 l 1
49 31 m 1
 47 31 l 1
 47 29 l 1
 49 29 l 1
 49 31 l 1
63 43 m 1
 61 43 l 1
 61 41 l 1
 63 41 l 1
 63 43 l 1
63 39 m 1
 61 39 l 1
 61 37 l 1
 63 37 l 1
 63 39 l 1
63 35 m 1
 61 35 l 1
 61 33 l 1
 63 33 l 1
 63 35 l 1
63 31 m 1
 61 31 l 1
 61 29 l 1
 63 29 l 1
 63 31 l 1
45 22 m 1
 44 22 l 1
 44 21 l 1
 46 21 l 1
 46 22 l 1
 47 22 l 1
 47 23 l 1
 45 23 l 1
 45 22 l 1
49 27 m 1
 47 27 l 1
 47 25 l 1
 49 25 l 1
 49 27 l 1
47 21 m 1
 46 21 l 1
 46 20 l 1
 47 20 l 1
 47 21 l 1
63 27 m 1
 61 27 l 1
 61 25 l 1
 63 25 l 1
 63 27 l 1
55 4 m 1
 54 4 l 1
 54 3 l 1
 56 3 l 1
 56 4 l 1
 57 4 l 1
 57 5 l 1
 55 5 l 1
 55 4 l 1
57 3 m 1
 56 3 l 1
 56 2 l 1
 57 2 l 1
 57 3 l 1
EndSplineSet
EndChar

StartChar: custom_1_1_1_5_0
Encoding: 23418 23418 3450
Width: 70
Flags: H
LayerCount: 2
Fore
SplineSet
31 43 m 1
 29 43 l 1
 29 41 l 1
 31 41 l 1
 31 43 l 1
31 39 m 1
 29 39 l 1
 29 37 l 1
 31 37 l 1
 31 39 l 1
31 35 m 1
 29 35 l 1
 29 33 l 1
 31 33 l 1
 31 35 l 1
36 37 m 1
 34 37 l 1
 34 35 l 1
 36 35 l 1
 36 37 l 1
31 31 m 1
 29 31 l 1
 29 29 l 1
 31 29 l 1
 31 31 l 1
36 33 m 1
 34 33 l 1
 34 31 l 1
 36 31 l 1
 36 33 l 1
28 22 m 1
 27 22 l 1
 27 20 l 1
 28 20 l 1
 28 19 l 1
 29 19 l 1
 29 21 l 1
 28 21 l 1
 28 22 l 1
31 27 m 1
 29 27 l 1
 29 25 l 1
 31 25 l 1
 31 27 l 1
27 20 m 1
 26 20 l 1
 26 19 l 1
 27 19 l 1
 27 20 l 1
49 43 m 1
 47 43 l 1
 47 41 l 1
 49 41 l 1
 49 43 l 1
49 39 m 1
 47 39 l 1
 47 37 l 1
 49 37 l 1
 49 39 l 1
49 35 m 1
 47 35 l 1
 47 33 l 1
 49 33 l 1
 49 35 l 1
49 31 m 1
 47 31 l 1
 47 29 l 1
 49 29 l 1
 49 31 l 1
63 43 m 1
 61 43 l 1
 61 41 l 1
 63 41 l 1
 63 43 l 1
63 39 m 1
 61 39 l 1
 61 37 l 1
 63 37 l 1
 63 39 l 1
63 35 m 1
 61 35 l 1
 61 33 l 1
 63 33 l 1
 63 35 l 1
63 31 m 1
 61 31 l 1
 61 29 l 1
 63 29 l 1
 63 31 l 1
47 23 m 1
 44 23 l 1
 44 21 l 1
 45 21 l 1
 45 22 l 1
 47 22 l 1
 47 23 l 1
49 27 m 1
 47 27 l 1
 47 25 l 1
 49 25 l 1
 49 27 l 1
46 21 m 1
 45 21 l 1
 45 20 l 1
 46 20 l 1
 46 21 l 1
63 27 m 1
 61 27 l 1
 61 25 l 1
 63 25 l 1
 63 27 l 1
57 5 m 1
 54 5 l 1
 54 3 l 1
 55 3 l 1
 55 4 l 1
 57 4 l 1
 57 5 l 1
56 3 m 1
 55 3 l 1
 55 2 l 1
 56 2 l 1
 56 3 l 1
EndSplineSet
EndChar

StartChar: custom_1_1_1_5_1
Encoding: 23419 23419 3451
Width: 70
Flags: H
LayerCount: 2
Fore
SplineSet
31 43 m 1
 29 43 l 1
 29 41 l 1
 31 41 l 1
 31 43 l 1
31 39 m 1
 29 39 l 1
 29 37 l 1
 31 37 l 1
 31 39 l 1
31 35 m 1
 29 35 l 1
 29 33 l 1
 31 33 l 1
 31 35 l 1
36 37 m 1
 34 37 l 1
 34 35 l 1
 36 35 l 1
 36 37 l 1
31 31 m 1
 29 31 l 1
 29 29 l 1
 31 29 l 1
 31 31 l 1
36 33 m 1
 34 33 l 1
 34 31 l 1
 36 31 l 1
 36 33 l 1
29 22 m 1
 27 22 l 1
 27 21 l 1
 28 21 l 1
 28 19 l 1
 29 19 l 1
 29 22 l 1
31 27 m 1
 29 27 l 1
 29 25 l 1
 31 25 l 1
 31 27 l 1
27 21 m 1
 26 21 l 1
 26 20 l 1
 27 20 l 1
 27 21 l 1
49 43 m 1
 47 43 l 1
 47 41 l 1
 49 41 l 1
 49 43 l 1
49 39 m 1
 47 39 l 1
 47 37 l 1
 49 37 l 1
 49 39 l 1
49 35 m 1
 47 35 l 1
 47 33 l 1
 49 33 l 1
 49 35 l 1
49 31 m 1
 47 31 l 1
 47 29 l 1
 49 29 l 1
 49 31 l 1
63 43 m 1
 61 43 l 1
 61 41 l 1
 63 41 l 1
 63 43 l 1
63 39 m 1
 61 39 l 1
 61 37 l 1
 63 37 l 1
 63 39 l 1
63 35 m 1
 61 35 l 1
 61 33 l 1
 63 33 l 1
 63 35 l 1
63 31 m 1
 61 31 l 1
 61 29 l 1
 63 29 l 1
 63 31 l 1
45 23 m 1
 44 23 l 1
 44 21 l 1
 45 21 l 1
 45 22 l 1
 46 22 l 1
 46 24 l 1
 45 24 l 1
 45 23 l 1
49 27 m 1
 47 27 l 1
 47 25 l 1
 49 25 l 1
 49 27 l 1
47 22 m 1
 46 22 l 1
 46 21 l 1
 47 21 l 1
 47 22 l 1
63 27 m 1
 61 27 l 1
 61 25 l 1
 63 25 l 1
 63 27 l 1
56 6 m 1
 55 6 l 1
 55 5 l 1
 54 5 l 1
 54 3 l 1
 55 3 l 1
 55 4 l 1
 56 4 l 1
 56 6 l 1
57 4 m 1
 56 4 l 1
 56 3 l 1
 57 3 l 1
 57 4 l 1
EndSplineSet
EndChar

StartChar: custom_1_1_1_5_2
Encoding: 23420 23420 3452
Width: 70
Flags: H
LayerCount: 2
Fore
SplineSet
31 43 m 1
 29 43 l 1
 29 41 l 1
 31 41 l 1
 31 43 l 1
31 39 m 1
 29 39 l 1
 29 37 l 1
 31 37 l 1
 31 39 l 1
31 35 m 1
 29 35 l 1
 29 33 l 1
 31 33 l 1
 31 35 l 1
36 37 m 1
 34 37 l 1
 34 35 l 1
 36 35 l 1
 36 37 l 1
31 31 m 1
 29 31 l 1
 29 29 l 1
 31 29 l 1
 31 31 l 1
36 33 m 1
 34 33 l 1
 34 31 l 1
 36 31 l 1
 36 33 l 1
29 22 m 1
 27 22 l 1
 27 21 l 1
 28 21 l 1
 28 20 l 1
 30 20 l 1
 30 21 l 1
 29 21 l 1
 29 22 l 1
31 27 m 1
 29 27 l 1
 29 25 l 1
 31 25 l 1
 31 27 l 1
28 20 m 1
 27 20 l 1
 27 19 l 1
 28 19 l 1
 28 20 l 1
49 43 m 1
 47 43 l 1
 47 41 l 1
 49 41 l 1
 49 43 l 1
49 39 m 1
 47 39 l 1
 47 37 l 1
 49 37 l 1
 49 39 l 1
49 35 m 1
 47 35 l 1
 47 33 l 1
 49 33 l 1
 49 35 l 1
49 31 m 1
 47 31 l 1
 47 29 l 1
 49 29 l 1
 49 31 l 1
63 43 m 1
 61 43 l 1
 61 41 l 1
 63 41 l 1
 63 43 l 1
63 39 m 1
 61 39 l 1
 61 37 l 1
 63 37 l 1
 63 39 l 1
63 35 m 1
 61 35 l 1
 61 33 l 1
 63 33 l 1
 63 35 l 1
63 31 m 1
 61 31 l 1
 61 29 l 1
 63 29 l 1
 63 31 l 1
46 24 m 1
 44 24 l 1
 44 21 l 1
 45 21 l 1
 45 23 l 1
 46 23 l 1
 46 24 l 1
49 27 m 1
 47 27 l 1
 47 25 l 1
 49 25 l 1
 49 27 l 1
47 23 m 1
 46 23 l 1
 46 22 l 1
 47 22 l 1
 47 23 l 1
63 27 m 1
 61 27 l 1
 61 25 l 1
 63 25 l 1
 63 27 l 1
56 6 m 1
 54 6 l 1
 54 3 l 1
 55 3 l 1
 55 5 l 1
 56 5 l 1
 56 6 l 1
57 5 m 1
 56 5 l 1
 56 4 l 1
 57 4 l 1
 57 5 l 1
EndSplineSet
EndChar

StartChar: custom_1_1_1_5_3
Encoding: 23421 23421 3453
Width: 70
Flags: H
LayerCount: 2
Fore
SplineSet
31 43 m 1
 29 43 l 1
 29 41 l 1
 31 41 l 1
 31 43 l 1
31 39 m 1
 29 39 l 1
 29 37 l 1
 31 37 l 1
 31 39 l 1
31 35 m 1
 29 35 l 1
 29 33 l 1
 31 33 l 1
 31 35 l 1
36 37 m 1
 34 37 l 1
 34 35 l 1
 36 35 l 1
 36 37 l 1
31 31 m 1
 29 31 l 1
 29 29 l 1
 31 29 l 1
 31 31 l 1
36 33 m 1
 34 33 l 1
 34 31 l 1
 36 31 l 1
 36 33 l 1
30 22 m 1
 27 22 l 1
 27 21 l 1
 29 21 l 1
 29 20 l 1
 30 20 l 1
 30 22 l 1
31 27 m 1
 29 27 l 1
 29 25 l 1
 31 25 l 1
 31 27 l 1
29 20 m 1
 28 20 l 1
 28 19 l 1
 29 19 l 1
 29 20 l 1
49 43 m 1
 47 43 l 1
 47 41 l 1
 49 41 l 1
 49 43 l 1
49 39 m 1
 47 39 l 1
 47 37 l 1
 49 37 l 1
 49 39 l 1
49 35 m 1
 47 35 l 1
 47 33 l 1
 49 33 l 1
 49 35 l 1
49 31 m 1
 47 31 l 1
 47 29 l 1
 49 29 l 1
 49 31 l 1
63 43 m 1
 61 43 l 1
 61 41 l 1
 63 41 l 1
 63 43 l 1
63 39 m 1
 61 39 l 1
 61 37 l 1
 63 37 l 1
 63 39 l 1
63 35 m 1
 61 35 l 1
 61 33 l 1
 63 33 l 1
 63 35 l 1
63 31 m 1
 61 31 l 1
 61 29 l 1
 63 29 l 1
 63 31 l 1
46 24 m 1
 44 24 l 1
 44 23 l 1
 43 23 l 1
 43 22 l 1
 45 22 l 1
 45 23 l 1
 46 23 l 1
 46 24 l 1
49 27 m 1
 47 27 l 1
 47 25 l 1
 49 25 l 1
 49 27 l 1
46 22 m 1
 45 22 l 1
 45 21 l 1
 46 21 l 1
 46 22 l 1
63 27 m 1
 61 27 l 1
 61 25 l 1
 63 25 l 1
 63 27 l 1
56 6 m 1
 54 6 l 1
 54 5 l 1
 53 5 l 1
 53 4 l 1
 55 4 l 1
 55 5 l 1
 56 5 l 1
 56 6 l 1
56 4 m 1
 55 4 l 1
 55 3 l 1
 56 3 l 1
 56 4 l 1
EndSplineSet
EndChar

StartChar: custom_1_1_1_5_4
Encoding: 23422 23422 3454
Width: 70
Flags: H
LayerCount: 2
Fore
SplineSet
31 43 m 1
 29 43 l 1
 29 41 l 1
 31 41 l 1
 31 43 l 1
31 39 m 1
 29 39 l 1
 29 37 l 1
 31 37 l 1
 31 39 l 1
31 35 m 1
 29 35 l 1
 29 33 l 1
 31 33 l 1
 31 35 l 1
36 37 m 1
 34 37 l 1
 34 35 l 1
 36 35 l 1
 36 37 l 1
31 31 m 1
 29 31 l 1
 29 29 l 1
 31 29 l 1
 31 31 l 1
36 33 m 1
 34 33 l 1
 34 31 l 1
 36 31 l 1
 36 33 l 1
29 23 m 1
 28 23 l 1
 28 21 l 1
 29 21 l 1
 29 20 l 1
 30 20 l 1
 30 22 l 1
 29 22 l 1
 29 23 l 1
31 27 m 1
 29 27 l 1
 29 25 l 1
 31 25 l 1
 31 27 l 1
28 21 m 1
 27 21 l 1
 27 20 l 1
 28 20 l 1
 28 21 l 1
49 43 m 1
 47 43 l 1
 47 41 l 1
 49 41 l 1
 49 43 l 1
49 39 m 1
 47 39 l 1
 47 37 l 1
 49 37 l 1
 49 39 l 1
49 35 m 1
 47 35 l 1
 47 33 l 1
 49 33 l 1
 49 35 l 1
49 31 m 1
 47 31 l 1
 47 29 l 1
 49 29 l 1
 49 31 l 1
63 43 m 1
 61 43 l 1
 61 41 l 1
 63 41 l 1
 63 43 l 1
63 39 m 1
 61 39 l 1
 61 37 l 1
 63 37 l 1
 63 39 l 1
63 35 m 1
 61 35 l 1
 61 33 l 1
 63 33 l 1
 63 35 l 1
63 31 m 1
 61 31 l 1
 61 29 l 1
 63 29 l 1
 63 31 l 1
46 24 m 1
 43 24 l 1
 43 22 l 1
 44 22 l 1
 44 23 l 1
 46 23 l 1
 46 24 l 1
45 22 m 1
 44 22 l 1
 44 21 l 1
 45 21 l 1
 45 22 l 1
49 27 m 1
 47 27 l 1
 47 25 l 1
 49 25 l 1
 49 27 l 1
63 27 m 1
 61 27 l 1
 61 25 l 1
 63 25 l 1
 63 27 l 1
56 6 m 1
 53 6 l 1
 53 4 l 1
 54 4 l 1
 54 5 l 1
 56 5 l 1
 56 6 l 1
55 4 m 1
 54 4 l 1
 54 3 l 1
 55 3 l 1
 55 4 l 1
EndSplineSet
EndChar

StartChar: custom_1_1_1_5_5
Encoding: 23423 23423 3455
Width: 70
Flags: H
LayerCount: 2
Fore
SplineSet
31 43 m 1
 29 43 l 1
 29 41 l 1
 31 41 l 1
 31 43 l 1
31 39 m 1
 29 39 l 1
 29 37 l 1
 31 37 l 1
 31 39 l 1
31 35 m 1
 29 35 l 1
 29 33 l 1
 31 33 l 1
 31 35 l 1
36 37 m 1
 34 37 l 1
 34 35 l 1
 36 35 l 1
 36 37 l 1
31 31 m 1
 29 31 l 1
 29 29 l 1
 31 29 l 1
 31 31 l 1
36 33 m 1
 34 33 l 1
 34 31 l 1
 36 31 l 1
 36 33 l 1
30 23 m 1
 28 23 l 1
 28 22 l 1
 29 22 l 1
 29 20 l 1
 30 20 l 1
 30 23 l 1
28 22 m 1
 27 22 l 1
 27 21 l 1
 28 21 l 1
 28 22 l 1
31 27 m 1
 29 27 l 1
 29 25 l 1
 31 25 l 1
 31 27 l 1
49 43 m 1
 47 43 l 1
 47 41 l 1
 49 41 l 1
 49 43 l 1
49 39 m 1
 47 39 l 1
 47 37 l 1
 49 37 l 1
 49 39 l 1
49 35 m 1
 47 35 l 1
 47 33 l 1
 49 33 l 1
 49 35 l 1
49 31 m 1
 47 31 l 1
 47 29 l 1
 49 29 l 1
 49 31 l 1
63 43 m 1
 61 43 l 1
 61 41 l 1
 63 41 l 1
 63 43 l 1
63 39 m 1
 61 39 l 1
 61 37 l 1
 63 37 l 1
 63 39 l 1
63 35 m 1
 61 35 l 1
 61 33 l 1
 63 33 l 1
 63 35 l 1
63 31 m 1
 61 31 l 1
 61 29 l 1
 63 29 l 1
 63 31 l 1
45 25 m 1
 44 25 l 1
 44 24 l 1
 43 24 l 1
 43 22 l 1
 44 22 l 1
 44 23 l 1
 45 23 l 1
 45 25 l 1
49 27 m 1
 47 27 l 1
 47 25 l 1
 49 25 l 1
 49 27 l 1
46 23 m 1
 45 23 l 1
 45 22 l 1
 46 22 l 1
 46 23 l 1
63 27 m 1
 61 27 l 1
 61 25 l 1
 63 25 l 1
 63 27 l 1
55 7 m 1
 54 7 l 1
 54 6 l 1
 53 6 l 1
 53 4 l 1
 54 4 l 1
 54 5 l 1
 55 5 l 1
 55 7 l 1
56 5 m 1
 55 5 l 1
 55 4 l 1
 56 4 l 1
 56 5 l 1
EndSplineSet
EndChar

StartChar: custom_1_1_1_5_6
Encoding: 23424 23424 3456
Width: 70
Flags: H
LayerCount: 2
Fore
SplineSet
31 43 m 1
 29 43 l 1
 29 41 l 1
 31 41 l 1
 31 43 l 1
31 39 m 1
 29 39 l 1
 29 37 l 1
 31 37 l 1
 31 39 l 1
31 35 m 1
 29 35 l 1
 29 33 l 1
 31 33 l 1
 31 35 l 1
36 37 m 1
 34 37 l 1
 34 35 l 1
 36 35 l 1
 36 37 l 1
31 31 m 1
 29 31 l 1
 29 29 l 1
 31 29 l 1
 31 31 l 1
36 33 m 1
 34 33 l 1
 34 31 l 1
 36 31 l 1
 36 33 l 1
30 23 m 1
 28 23 l 1
 28 22 l 1
 29 22 l 1
 29 21 l 1
 31 21 l 1
 31 22 l 1
 30 22 l 1
 30 23 l 1
31 27 m 1
 29 27 l 1
 29 25 l 1
 31 25 l 1
 31 27 l 1
29 21 m 1
 28 21 l 1
 28 20 l 1
 29 20 l 1
 29 21 l 1
49 43 m 1
 47 43 l 1
 47 41 l 1
 49 41 l 1
 49 43 l 1
49 39 m 1
 47 39 l 1
 47 37 l 1
 49 37 l 1
 49 39 l 1
49 35 m 1
 47 35 l 1
 47 33 l 1
 49 33 l 1
 49 35 l 1
49 31 m 1
 47 31 l 1
 47 29 l 1
 49 29 l 1
 49 31 l 1
63 43 m 1
 61 43 l 1
 61 41 l 1
 63 41 l 1
 63 43 l 1
63 39 m 1
 61 39 l 1
 61 37 l 1
 63 37 l 1
 63 39 l 1
63 35 m 1
 61 35 l 1
 61 33 l 1
 63 33 l 1
 63 35 l 1
63 31 m 1
 61 31 l 1
 61 29 l 1
 63 29 l 1
 63 31 l 1
45 25 m 1
 43 25 l 1
 43 22 l 1
 44 22 l 1
 44 24 l 1
 45 24 l 1
 45 25 l 1
49 27 m 1
 47 27 l 1
 47 25 l 1
 49 25 l 1
 49 27 l 1
46 24 m 1
 45 24 l 1
 45 23 l 1
 46 23 l 1
 46 24 l 1
63 27 m 1
 61 27 l 1
 61 25 l 1
 63 25 l 1
 63 27 l 1
55 7 m 1
 53 7 l 1
 53 4 l 1
 54 4 l 1
 54 6 l 1
 55 6 l 1
 55 7 l 1
56 6 m 1
 55 6 l 1
 55 5 l 1
 56 5 l 1
 56 6 l 1
EndSplineSet
EndChar

StartChar: custom_1_1_1_5_7
Encoding: 23425 23425 3457
Width: 70
Flags: H
LayerCount: 2
Fore
SplineSet
31 43 m 1
 29 43 l 1
 29 41 l 1
 31 41 l 1
 31 43 l 1
31 39 m 1
 29 39 l 1
 29 37 l 1
 31 37 l 1
 31 39 l 1
31 35 m 1
 29 35 l 1
 29 33 l 1
 31 33 l 1
 31 35 l 1
36 37 m 1
 34 37 l 1
 34 35 l 1
 36 35 l 1
 36 37 l 1
31 31 m 1
 29 31 l 1
 29 29 l 1
 31 29 l 1
 31 31 l 1
36 33 m 1
 34 33 l 1
 34 31 l 1
 36 31 l 1
 36 33 l 1
31 23 m 1
 28 23 l 1
 28 22 l 1
 30 22 l 1
 30 21 l 1
 31 21 l 1
 31 23 l 1
31 27 m 1
 29 27 l 1
 29 25 l 1
 31 25 l 1
 31 27 l 1
30 21 m 1
 29 21 l 1
 29 20 l 1
 30 20 l 1
 30 21 l 1
49 43 m 1
 47 43 l 1
 47 41 l 1
 49 41 l 1
 49 43 l 1
49 39 m 1
 47 39 l 1
 47 37 l 1
 49 37 l 1
 49 39 l 1
49 35 m 1
 47 35 l 1
 47 33 l 1
 49 33 l 1
 49 35 l 1
49 31 m 1
 47 31 l 1
 47 29 l 1
 49 29 l 1
 49 31 l 1
63 43 m 1
 61 43 l 1
 61 41 l 1
 63 41 l 1
 63 43 l 1
63 39 m 1
 61 39 l 1
 61 37 l 1
 63 37 l 1
 63 39 l 1
63 35 m 1
 61 35 l 1
 61 33 l 1
 63 33 l 1
 63 35 l 1
63 31 m 1
 61 31 l 1
 61 29 l 1
 63 29 l 1
 63 31 l 1
43 24 m 1
 42 24 l 1
 42 23 l 1
 44 23 l 1
 44 24 l 1
 45 24 l 1
 45 25 l 1
 43 25 l 1
 43 24 l 1
45 23 m 1
 44 23 l 1
 44 22 l 1
 45 22 l 1
 45 23 l 1
49 27 m 1
 47 27 l 1
 47 25 l 1
 49 25 l 1
 49 27 l 1
63 27 m 1
 61 27 l 1
 61 25 l 1
 63 25 l 1
 63 27 l 1
53 6 m 1
 52 6 l 1
 52 5 l 1
 54 5 l 1
 54 6 l 1
 55 6 l 1
 55 7 l 1
 53 7 l 1
 53 6 l 1
55 5 m 1
 54 5 l 1
 54 4 l 1
 55 4 l 1
 55 5 l 1
EndSplineSet
EndChar

StartChar: custom_1_1_1_5_8
Encoding: 23426 23426 3458
Width: 70
Flags: H
LayerCount: 2
Fore
SplineSet
31 43 m 1
 29 43 l 1
 29 41 l 1
 31 41 l 1
 31 43 l 1
31 39 m 1
 29 39 l 1
 29 37 l 1
 31 37 l 1
 31 39 l 1
31 35 m 1
 29 35 l 1
 29 33 l 1
 31 33 l 1
 31 35 l 1
36 37 m 1
 34 37 l 1
 34 35 l 1
 36 35 l 1
 36 37 l 1
31 31 m 1
 29 31 l 1
 29 29 l 1
 31 29 l 1
 31 31 l 1
36 33 m 1
 34 33 l 1
 34 31 l 1
 36 31 l 1
 36 33 l 1
29 22 m 1
 28 22 l 1
 28 21 l 1
 29 21 l 1
 29 22 l 1
31 27 m 1
 29 27 l 1
 29 25 l 1
 31 25 l 1
 31 27 l 1
30 24 m 1
 29 24 l 1
 29 22 l 1
 30 22 l 1
 30 21 l 1
 31 21 l 1
 31 23 l 1
 30 23 l 1
 30 24 l 1
49 43 m 1
 47 43 l 1
 47 41 l 1
 49 41 l 1
 49 43 l 1
49 39 m 1
 47 39 l 1
 47 37 l 1
 49 37 l 1
 49 39 l 1
49 35 m 1
 47 35 l 1
 47 33 l 1
 49 33 l 1
 49 35 l 1
49 31 m 1
 47 31 l 1
 47 29 l 1
 49 29 l 1
 49 31 l 1
63 43 m 1
 61 43 l 1
 61 41 l 1
 63 41 l 1
 63 43 l 1
63 39 m 1
 61 39 l 1
 61 37 l 1
 63 37 l 1
 63 39 l 1
63 35 m 1
 61 35 l 1
 61 33 l 1
 63 33 l 1
 63 35 l 1
63 31 m 1
 61 31 l 1
 61 29 l 1
 63 29 l 1
 63 31 l 1
45 25 m 1
 42 25 l 1
 42 23 l 1
 43 23 l 1
 43 24 l 1
 45 24 l 1
 45 25 l 1
44 23 m 1
 43 23 l 1
 43 22 l 1
 44 22 l 1
 44 23 l 1
49 27 m 1
 47 27 l 1
 47 25 l 1
 49 25 l 1
 49 27 l 1
63 27 m 1
 61 27 l 1
 61 25 l 1
 63 25 l 1
 63 27 l 1
55 7 m 1
 52 7 l 1
 52 5 l 1
 53 5 l 1
 53 6 l 1
 55 6 l 1
 55 7 l 1
54 5 m 1
 53 5 l 1
 53 4 l 1
 54 4 l 1
 54 5 l 1
EndSplineSet
EndChar

StartChar: custom_1_1_1_5_9
Encoding: 23427 23427 3459
Width: 70
Flags: H
LayerCount: 2
Fore
SplineSet
31 43 m 1
 29 43 l 1
 29 41 l 1
 31 41 l 1
 31 43 l 1
31 39 m 1
 29 39 l 1
 29 37 l 1
 31 37 l 1
 31 39 l 1
31 35 m 1
 29 35 l 1
 29 33 l 1
 31 33 l 1
 31 35 l 1
36 37 m 1
 34 37 l 1
 34 35 l 1
 36 35 l 1
 36 37 l 1
31 31 m 1
 29 31 l 1
 29 29 l 1
 31 29 l 1
 31 31 l 1
36 33 m 1
 34 33 l 1
 34 31 l 1
 36 31 l 1
 36 33 l 1
29 23 m 1
 28 23 l 1
 28 22 l 1
 29 22 l 1
 29 23 l 1
31 27 m 1
 29 27 l 1
 29 23 l 1
 30 23 l 1
 30 21 l 1
 31 21 l 1
 31 27 l 1
49 43 m 1
 47 43 l 1
 47 41 l 1
 49 41 l 1
 49 43 l 1
49 39 m 1
 47 39 l 1
 47 37 l 1
 49 37 l 1
 49 39 l 1
49 35 m 1
 47 35 l 1
 47 33 l 1
 49 33 l 1
 49 35 l 1
49 31 m 1
 47 31 l 1
 47 29 l 1
 49 29 l 1
 49 31 l 1
63 43 m 1
 61 43 l 1
 61 41 l 1
 63 41 l 1
 63 43 l 1
63 39 m 1
 61 39 l 1
 61 37 l 1
 63 37 l 1
 63 39 l 1
63 35 m 1
 61 35 l 1
 61 33 l 1
 63 33 l 1
 63 35 l 1
63 31 m 1
 61 31 l 1
 61 29 l 1
 63 29 l 1
 63 31 l 1
44 26 m 1
 43 26 l 1
 43 25 l 1
 42 25 l 1
 42 23 l 1
 43 23 l 1
 43 24 l 1
 44 24 l 1
 44 26 l 1
45 24 m 1
 44 24 l 1
 44 23 l 1
 45 23 l 1
 45 24 l 1
49 27 m 1
 47 27 l 1
 47 25 l 1
 49 25 l 1
 49 27 l 1
63 27 m 1
 61 27 l 1
 61 25 l 1
 63 25 l 1
 63 27 l 1
53 7 m 1
 52 7 l 1
 52 5 l 1
 53 5 l 1
 53 6 l 1
 54 6 l 1
 54 8 l 1
 53 8 l 1
 53 7 l 1
55 6 m 1
 54 6 l 1
 54 5 l 1
 55 5 l 1
 55 6 l 1
EndSplineSet
EndChar

StartChar: custom_1_1_1_6_0
Encoding: 23428 23428 3460
Width: 70
Flags: H
LayerCount: 2
Fore
SplineSet
31 43 m 1
 29 43 l 1
 29 41 l 1
 31 41 l 1
 31 43 l 1
31 39 m 1
 29 39 l 1
 29 37 l 1
 31 37 l 1
 31 39 l 1
31 35 m 1
 29 35 l 1
 29 33 l 1
 31 33 l 1
 31 35 l 1
36 37 m 1
 34 37 l 1
 34 35 l 1
 36 35 l 1
 36 37 l 1
31 31 m 1
 29 31 l 1
 29 29 l 1
 31 29 l 1
 31 31 l 1
36 33 m 1
 34 33 l 1
 34 31 l 1
 36 31 l 1
 36 33 l 1
29 26 m 1
 28 26 l 1
 28 23 l 1
 29 23 l 1
 29 26 l 1
31 27 m 1
 29 27 l 1
 29 26 l 1
 31 26 l 1
 31 27 l 1
32 26 m 1
 31 26 l 1
 31 23 l 1
 30 23 l 1
 30 22 l 1
 32 22 l 1
 32 26 l 1
30 22 m 1
 29 22 l 1
 29 21 l 1
 30 21 l 1
 30 22 l 1
49 43 m 1
 47 43 l 1
 47 41 l 1
 49 41 l 1
 49 43 l 1
49 39 m 1
 47 39 l 1
 47 37 l 1
 49 37 l 1
 49 39 l 1
49 35 m 1
 47 35 l 1
 47 33 l 1
 49 33 l 1
 49 35 l 1
49 31 m 1
 47 31 l 1
 47 29 l 1
 49 29 l 1
 49 31 l 1
63 43 m 1
 61 43 l 1
 61 41 l 1
 63 41 l 1
 63 43 l 1
63 39 m 1
 61 39 l 1
 61 37 l 1
 63 37 l 1
 63 39 l 1
63 35 m 1
 61 35 l 1
 61 33 l 1
 63 33 l 1
 63 35 l 1
63 31 m 1
 61 31 l 1
 61 29 l 1
 63 29 l 1
 63 31 l 1
44 26 m 1
 42 26 l 1
 42 23 l 1
 43 23 l 1
 43 25 l 1
 44 25 l 1
 44 26 l 1
45 25 m 1
 44 25 l 1
 44 24 l 1
 45 24 l 1
 45 25 l 1
49 27 m 1
 47 27 l 1
 47 25 l 1
 49 25 l 1
 49 27 l 1
63 27 m 1
 61 27 l 1
 61 25 l 1
 63 25 l 1
 63 27 l 1
54 8 m 1
 52 8 l 1
 52 5 l 1
 53 5 l 1
 53 7 l 1
 54 7 l 1
 54 8 l 1
55 7 m 1
 54 7 l 1
 54 6 l 1
 55 6 l 1
 55 7 l 1
EndSplineSet
EndChar

